<?xml version="1.0" encoding="UTF-8" standalone="no"?>
<!DOCTYPE svg PUBLIC "-//W3C//DTD SVG 1.1//EN"
 "http://www.w3.org/Graphics/SVG/1.1/DTD/svg11.dtd">
<!-- Generated by graphviz version 2.30.1 (20180420.1509)
 -->
<!-- Title: snakemake_dag Pages: 1 -->
<svg width="132pt" height="404pt"
 viewBox="0.00 0.00 132.00 404.00" xmlns="http://www.w3.org/2000/svg" xmlns:xlink="http://www.w3.org/1999/xlink">
<g id="graph0" class="graph" transform="scale(1 1) rotate(0) translate(4 400)">
<title>snakemake_dag</title>
<polygon fill="white" stroke="white" points="-4,5 -4,-400 129,-400 129,5 -4,5"/>
<!-- 0 -->
<g id="node1" class="node"><title>0</title>
<path fill="none" stroke="#97d856" stroke-width="2" d="M77,-36C77,-36 47,-36 47,-36 41,-36 35,-30 35,-24 35,-24 35,-12 35,-12 35,-6 41,-0 47,-0 47,-0 77,-0 77,-0 83,-0 89,-6 89,-12 89,-12 89,-24 89,-24 89,-30 83,-36 77,-36"/>
<text text-anchor="middle" x="62" y="-15.5" font-family="sans" font-size="10.00">result</text>
</g>
<!-- 1 -->
<g id="node2" class="node"><title>1</title>
<path fill="none" stroke="#56d8d8" stroke-width="2" d="M78,-108C78,-108 46,-108 46,-108 40,-108 34,-102 34,-96 34,-96 34,-84 34,-84 34,-78 40,-72 46,-72 46,-72 78,-72 78,-72 84,-72 90,-78 90,-84 90,-84 90,-96 90,-96 90,-102 84,-108 78,-108"/>
<text text-anchor="middle" x="62" y="-87.5" font-family="sans" font-size="10.00">cut_tree</text>
</g>
<!-- 1&#45;&gt;0 -->
<g id="edge1" class="edge"><title>1&#45;&gt;0</title>
<path fill="none" stroke="grey" stroke-width="2" d="M62,-71.6966C62,-63.9827 62,-54.7125 62,-46.1124"/>
<polygon fill="grey" stroke="grey" points="65.5001,-46.1043 62,-36.1043 58.5001,-46.1044 65.5001,-46.1043"/>
</g>
<!-- 2 -->
<g id="node3" class="node"><title>2</title>
<path fill="none" stroke="#56d89a" stroke-width="2" d="M82.25,-180C82.25,-180 41.75,-180 41.75,-180 35.75,-180 29.75,-174 29.75,-168 29.75,-168 29.75,-156 29.75,-156 29.75,-150 35.75,-144 41.75,-144 41.75,-144 82.25,-144 82.25,-144 88.25,-144 94.25,-150 94.25,-156 94.25,-156 94.25,-168 94.25,-168 94.25,-174 88.25,-180 82.25,-180"/>
<text text-anchor="middle" x="62" y="-159.5" font-family="sans" font-size="10.00">build_tree</text>
</g>
<!-- 2&#45;&gt;1 -->
<g id="edge2" class="edge"><title>2&#45;&gt;1</title>
<path fill="none" stroke="grey" stroke-width="2" d="M62,-143.697C62,-135.983 62,-126.712 62,-118.112"/>
<polygon fill="grey" stroke="grey" points="65.5001,-118.104 62,-108.104 58.5001,-118.104 65.5001,-118.104"/>
</g>
<!-- 3 -->
<g id="node4" class="node"><title>3</title>
<path fill="none" stroke="#d89556" stroke-width="2" d="M96,-252C96,-252 28,-252 28,-252 22,-252 16,-246 16,-240 16,-240 16,-228 16,-228 16,-222 22,-216 28,-216 28,-216 96,-216 96,-216 102,-216 108,-222 108,-228 108,-228 108,-240 108,-240 108,-246 102,-252 96,-252"/>
<text text-anchor="middle" x="62" y="-231.5" font-family="sans" font-size="10.00">align_partitions</text>
</g>
<!-- 3&#45;&gt;2 -->
<g id="edge3" class="edge"><title>3&#45;&gt;2</title>
<path fill="none" stroke="grey" stroke-width="2" d="M62,-215.697C62,-207.983 62,-198.712 62,-190.112"/>
<polygon fill="grey" stroke="grey" points="65.5001,-190.104 62,-180.104 58.5001,-190.104 65.5001,-190.104"/>
</g>
<!-- 4 -->
<g id="node5" class="node"><title>4</title>
<path fill="none" stroke="#d85656" stroke-width="2" d="M112.25,-324C112.25,-324 11.75,-324 11.75,-324 5.75,-324 -0.25,-318 -0.25,-312 -0.25,-312 -0.25,-300 -0.25,-300 -0.25,-294 5.75,-288 11.75,-288 11.75,-288 112.25,-288 112.25,-288 118.25,-288 124.25,-294 124.25,-300 124.25,-300 124.25,-312 124.25,-312 124.25,-318 118.25,-324 112.25,-324"/>
<text text-anchor="middle" x="62" y="-303.5" font-family="sans" font-size="10.00">analyze_partis_output</text>
</g>
<!-- 4&#45;&gt;3 -->
<g id="edge4" class="edge"><title>4&#45;&gt;3</title>
<path fill="none" stroke="grey" stroke-width="2" d="M62,-287.697C62,-279.983 62,-270.712 62,-262.112"/>
<polygon fill="grey" stroke="grey" points="65.5001,-262.104 62,-252.104 58.5001,-262.104 65.5001,-262.104"/>
</g>
<!-- 5 -->
<g id="node6" class="node"><title>5</title>
<path fill="none" stroke="#d6d856" stroke-width="2" d="M79.25,-396C79.25,-396 44.75,-396 44.75,-396 38.75,-396 32.75,-390 32.75,-384 32.75,-384 32.75,-372 32.75,-372 32.75,-366 38.75,-360 44.75,-360 44.75,-360 79.25,-360 79.25,-360 85.25,-360 91.25,-366 91.25,-372 91.25,-372 91.25,-384 91.25,-384 91.25,-390 85.25,-396 79.25,-396"/>
<text text-anchor="middle" x="62" y="-375.5" font-family="sans" font-size="10.00">simulate</text>
</g>
<!-- 5&#45;&gt;4 -->
<g id="edge5" class="edge"><title>5&#45;&gt;4</title>
<path fill="none" stroke="grey" stroke-width="2" d="M62,-359.697C62,-351.983 62,-342.712 62,-334.112"/>
<polygon fill="grey" stroke="grey" points="65.5001,-334.104 62,-324.104 58.5001,-334.104 65.5001,-334.104"/>
</g>
</g>
</svg>
