<?xml version="1.0" encoding="UTF-8" standalone="no"?>
<!DOCTYPE svg PUBLIC "-//W3C//DTD SVG 1.1//EN"
 "http://www.w3.org/Graphics/SVG/1.1/DTD/svg11.dtd">
<!-- Generated by graphviz version 2.30.1 (20180420.1509)
 -->
<!-- Title: snakemake_dag Pages: 1 -->
<svg width="555pt" height="476pt"
 viewBox="0.00 0.00 555.00 476.00" xmlns="http://www.w3.org/2000/svg" xmlns:xlink="http://www.w3.org/1999/xlink">
<g id="graph0" class="graph" transform="scale(1 1) rotate(0) translate(4 472)">
<title>snakemake_dag</title>
<polygon fill="white" stroke="white" points="-4,5 -4,-472 552,-472 552,5 -4,5"/>
<!-- 0 -->
<g id="node1" class="node"><title>0</title>
<path fill="none" stroke="#bed856" stroke-width="2" d="M291,-36C291,-36 261,-36 261,-36 255,-36 249,-30 249,-24 249,-24 249,-12 249,-12 249,-6 255,-0 261,-0 261,-0 291,-0 291,-0 297,-0 303,-6 303,-12 303,-12 303,-24 303,-24 303,-30 297,-36 291,-36"/>
<text text-anchor="middle" x="276" y="-15.5" font-family="sans" font-size="10.00">result</text>
</g>
<!-- 1 -->
<g id="node2" class="node"><title>1</title>
<path fill="none" stroke="#d88d56" stroke-width="2" stroke-dasharray="5,2" d="M66.25,-108C66.25,-108 25.75,-108 25.75,-108 19.75,-108 13.75,-102 13.75,-96 13.75,-96 13.75,-84 13.75,-84 13.75,-78 19.75,-72 25.75,-72 25.75,-72 66.25,-72 66.25,-72 72.25,-72 78.25,-78 78.25,-84 78.25,-84 78.25,-96 78.25,-96 78.25,-102 72.25,-108 66.25,-108"/>
<text text-anchor="middle" x="46" y="-87.5" font-family="sans" font-size="10.00">build_tree</text>
</g>
<!-- 1&#45;&gt;0 -->
<g id="edge1" class="edge"><title>1&#45;&gt;0</title>
<path fill="none" stroke="grey" stroke-width="2" d="M78.5383,-75.0962C81.3839,-74.0058 84.2329,-72.9578 87,-72 139.029,-53.9908 200.664,-37.6035 239.057,-27.9638"/>
<polygon fill="grey" stroke="grey" points="239.912,-31.3579 248.77,-25.5449 238.22,-24.5654 239.912,-31.3579"/>
</g>
<!-- 2 -->
<g id="node3" class="node"><title>2</title>
<path fill="none" stroke="#d85656" stroke-width="2" stroke-dasharray="5,2" d="M80,-180C80,-180 12,-180 12,-180 6,-180 0,-174 0,-168 0,-168 0,-156 0,-156 0,-150 6,-144 12,-144 12,-144 80,-144 80,-144 86,-144 92,-150 92,-156 92,-156 92,-168 92,-168 92,-174 86,-180 80,-180"/>
<text text-anchor="middle" x="46" y="-159.5" font-family="sans" font-size="10.00">align_partitions</text>
</g>
<!-- 2&#45;&gt;1 -->
<g id="edge7" class="edge"><title>2&#45;&gt;1</title>
<path fill="none" stroke="grey" stroke-width="2" d="M46,-143.697C46,-135.983 46,-126.712 46,-118.112"/>
<polygon fill="grey" stroke="grey" points="49.5001,-118.104 46,-108.104 42.5001,-118.104 49.5001,-118.104"/>
</g>
<!-- 3 -->
<g id="node4" class="node"><title>3</title>
<path fill="none" stroke="#56d8c1" stroke-width="2" stroke-dasharray="5,2" d="M152.25,-252C152.25,-252 51.75,-252 51.75,-252 45.75,-252 39.75,-246 39.75,-240 39.75,-240 39.75,-228 39.75,-228 39.75,-222 45.75,-216 51.75,-216 51.75,-216 152.25,-216 152.25,-216 158.25,-216 164.25,-222 164.25,-228 164.25,-228 164.25,-240 164.25,-240 164.25,-246 158.25,-252 152.25,-252"/>
<text text-anchor="middle" x="102" y="-231.5" font-family="sans" font-size="10.00">analyze_partis_output</text>
</g>
<!-- 3&#45;&gt;2 -->
<g id="edge8" class="edge"><title>3&#45;&gt;2</title>
<path fill="none" stroke="grey" stroke-width="2" d="M88.1573,-215.697C81.5115,-207.389 73.4216,-197.277 66.1126,-188.141"/>
<polygon fill="grey" stroke="grey" points="68.6635,-185.727 59.6835,-180.104 63.1974,-190.099 68.6635,-185.727"/>
</g>
<!-- 20 -->
<g id="node21" class="node"><title>20</title>
<path fill="none" stroke="#88d856" stroke-width="2" d="M153,-180C153,-180 123,-180 123,-180 117,-180 111,-174 111,-168 111,-168 111,-156 111,-156 111,-150 117,-144 123,-144 123,-144 153,-144 153,-144 159,-144 165,-150 165,-156 165,-156 165,-168 165,-168 165,-174 159,-180 153,-180"/>
<text text-anchor="middle" x="138" y="-159.5" font-family="sans" font-size="10.00">findVDJ</text>
</g>
<!-- 3&#45;&gt;20 -->
<g id="edge23" class="edge"><title>3&#45;&gt;20</title>
<path fill="none" stroke="grey" stroke-width="2" d="M110.899,-215.697C114.997,-207.728 119.949,-198.1 124.493,-189.264"/>
<polygon fill="grey" stroke="grey" points="127.742,-190.598 129.203,-180.104 121.517,-187.396 127.742,-190.598"/>
</g>
<!-- 4 -->
<g id="node5" class="node"><title>4</title>
<path fill="none" stroke="#56d88a" stroke-width="2" stroke-dasharray="5,2" d="M119.25,-324C119.25,-324 84.75,-324 84.75,-324 78.75,-324 72.75,-318 72.75,-312 72.75,-312 72.75,-300 72.75,-300 72.75,-294 78.75,-288 84.75,-288 84.75,-288 119.25,-288 119.25,-288 125.25,-288 131.25,-294 131.25,-300 131.25,-300 131.25,-312 131.25,-312 131.25,-318 125.25,-324 119.25,-324"/>
<text text-anchor="middle" x="102" y="-303.5" font-family="sans" font-size="10.00">simulate</text>
</g>
<!-- 4&#45;&gt;3 -->
<g id="edge9" class="edge"><title>4&#45;&gt;3</title>
<path fill="none" stroke="grey" stroke-width="2" d="M102,-287.697C102,-279.983 102,-270.712 102,-262.112"/>
<polygon fill="grey" stroke="grey" points="105.5,-262.104 102,-252.104 98.5001,-262.104 105.5,-262.104"/>
</g>
<!-- 5 -->
<g id="node6" class="node"><title>5</title>
<path fill="none" stroke="#56c1d8" stroke-width="2" stroke-dasharray="5,2" d="M143.25,-396C143.25,-396 60.75,-396 60.75,-396 54.75,-396 48.75,-390 48.75,-384 48.75,-384 48.75,-372 48.75,-372 48.75,-366 54.75,-360 60.75,-360 60.75,-360 143.25,-360 143.25,-360 149.25,-360 155.25,-366 155.25,-372 155.25,-372 155.25,-384 155.25,-384 155.25,-390 149.25,-396 143.25,-396"/>
<text text-anchor="middle" x="102" y="-375.5" font-family="sans" font-size="10.00">cache_parameters</text>
</g>
<!-- 5&#45;&gt;4 -->
<g id="edge10" class="edge"><title>5&#45;&gt;4</title>
<path fill="none" stroke="grey" stroke-width="2" d="M102,-359.697C102,-351.983 102,-342.712 102,-334.112"/>
<polygon fill="grey" stroke="grey" points="105.5,-334.104 102,-324.104 98.5001,-334.104 105.5,-334.104"/>
</g>
<!-- 6 -->
<g id="node7" class="node"><title>6</title>
<path fill="none" stroke="#d8bc56" stroke-width="2" stroke-dasharray="5,2" d="M128.25,-468C128.25,-468 75.75,-468 75.75,-468 69.75,-468 63.75,-462 63.75,-456 63.75,-456 63.75,-444 63.75,-444 63.75,-438 69.75,-432 75.75,-432 75.75,-432 128.25,-432 128.25,-432 134.25,-432 140.25,-438 140.25,-444 140.25,-444 140.25,-456 140.25,-456 140.25,-462 134.25,-468 128.25,-468"/>
<text text-anchor="middle" x="102" y="-453" font-family="sans" font-size="10.00">tsv_to_fasta</text>
<text text-anchor="middle" x="102" y="-442" font-family="sans" font-size="10.00">d: nielson3</text>
</g>
<!-- 6&#45;&gt;5 -->
<g id="edge11" class="edge"><title>6&#45;&gt;5</title>
<path fill="none" stroke="grey" stroke-width="2" d="M102,-431.697C102,-423.983 102,-414.712 102,-406.112"/>
<polygon fill="grey" stroke="grey" points="105.5,-406.104 102,-396.104 98.5001,-406.104 105.5,-406.104"/>
</g>
<!-- 7 -->
<g id="node8" class="node"><title>7</title>
<path fill="none" stroke="#d88d56" stroke-width="2" stroke-dasharray="5,2" d="M250.25,-108C250.25,-108 209.75,-108 209.75,-108 203.75,-108 197.75,-102 197.75,-96 197.75,-96 197.75,-84 197.75,-84 197.75,-78 203.75,-72 209.75,-72 209.75,-72 250.25,-72 250.25,-72 256.25,-72 262.25,-78 262.25,-84 262.25,-84 262.25,-96 262.25,-96 262.25,-102 256.25,-108 250.25,-108"/>
<text text-anchor="middle" x="230" y="-87.5" font-family="sans" font-size="10.00">build_tree</text>
</g>
<!-- 7&#45;&gt;0 -->
<g id="edge2" class="edge"><title>7&#45;&gt;0</title>
<path fill="none" stroke="grey" stroke-width="2" d="M241.371,-71.6966C246.718,-63.5589 253.204,-53.689 259.111,-44.7013"/>
<polygon fill="grey" stroke="grey" points="262.193,-46.3835 264.76,-36.1043 256.343,-42.5393 262.193,-46.3835"/>
</g>
<!-- 8 -->
<g id="node9" class="node"><title>8</title>
<path fill="none" stroke="#d85656" stroke-width="2" stroke-dasharray="5,2" d="M264,-180C264,-180 196,-180 196,-180 190,-180 184,-174 184,-168 184,-168 184,-156 184,-156 184,-150 190,-144 196,-144 196,-144 264,-144 264,-144 270,-144 276,-150 276,-156 276,-156 276,-168 276,-168 276,-174 270,-180 264,-180"/>
<text text-anchor="middle" x="230" y="-159.5" font-family="sans" font-size="10.00">align_partitions</text>
</g>
<!-- 8&#45;&gt;7 -->
<g id="edge12" class="edge"><title>8&#45;&gt;7</title>
<path fill="none" stroke="grey" stroke-width="2" d="M230,-143.697C230,-135.983 230,-126.712 230,-118.112"/>
<polygon fill="grey" stroke="grey" points="233.5,-118.104 230,-108.104 226.5,-118.104 233.5,-118.104"/>
</g>
<!-- 9 -->
<g id="node10" class="node"><title>9</title>
<path fill="none" stroke="#56d8c1" stroke-width="2" stroke-dasharray="5,2" d="M336.25,-252C336.25,-252 235.75,-252 235.75,-252 229.75,-252 223.75,-246 223.75,-240 223.75,-240 223.75,-228 223.75,-228 223.75,-222 229.75,-216 235.75,-216 235.75,-216 336.25,-216 336.25,-216 342.25,-216 348.25,-222 348.25,-228 348.25,-228 348.25,-240 348.25,-240 348.25,-246 342.25,-252 336.25,-252"/>
<text text-anchor="middle" x="286" y="-231.5" font-family="sans" font-size="10.00">analyze_partis_output</text>
</g>
<!-- 9&#45;&gt;8 -->
<g id="edge13" class="edge"><title>9&#45;&gt;8</title>
<path fill="none" stroke="grey" stroke-width="2" d="M272.157,-215.697C265.511,-207.389 257.422,-197.277 250.113,-188.141"/>
<polygon fill="grey" stroke="grey" points="252.664,-185.727 243.683,-180.104 247.197,-190.099 252.664,-185.727"/>
</g>
<!-- 22 -->
<g id="node23" class="node"><title>22</title>
<path fill="none" stroke="#88d856" stroke-width="2" d="M337,-180C337,-180 307,-180 307,-180 301,-180 295,-174 295,-168 295,-168 295,-156 295,-156 295,-150 301,-144 307,-144 307,-144 337,-144 337,-144 343,-144 349,-150 349,-156 349,-156 349,-168 349,-168 349,-174 343,-180 337,-180"/>
<text text-anchor="middle" x="322" y="-159.5" font-family="sans" font-size="10.00">findVDJ</text>
</g>
<!-- 9&#45;&gt;22 -->
<g id="edge25" class="edge"><title>9&#45;&gt;22</title>
<path fill="none" stroke="grey" stroke-width="2" d="M294.899,-215.697C298.997,-207.728 303.949,-198.1 308.493,-189.264"/>
<polygon fill="grey" stroke="grey" points="311.742,-190.598 313.203,-180.104 305.517,-187.396 311.742,-190.598"/>
</g>
<!-- 10 -->
<g id="node11" class="node"><title>10</title>
<path fill="none" stroke="#56d88a" stroke-width="2" stroke-dasharray="5,2" d="M303.25,-324C303.25,-324 268.75,-324 268.75,-324 262.75,-324 256.75,-318 256.75,-312 256.75,-312 256.75,-300 256.75,-300 256.75,-294 262.75,-288 268.75,-288 268.75,-288 303.25,-288 303.25,-288 309.25,-288 315.25,-294 315.25,-300 315.25,-300 315.25,-312 315.25,-312 315.25,-318 309.25,-324 303.25,-324"/>
<text text-anchor="middle" x="286" y="-303.5" font-family="sans" font-size="10.00">simulate</text>
</g>
<!-- 10&#45;&gt;9 -->
<g id="edge14" class="edge"><title>10&#45;&gt;9</title>
<path fill="none" stroke="grey" stroke-width="2" d="M286,-287.697C286,-279.983 286,-270.712 286,-262.112"/>
<polygon fill="grey" stroke="grey" points="289.5,-262.104 286,-252.104 282.5,-262.104 289.5,-262.104"/>
</g>
<!-- 11 -->
<g id="node12" class="node"><title>11</title>
<path fill="none" stroke="#56c1d8" stroke-width="2" stroke-dasharray="5,2" d="M327.25,-396C327.25,-396 244.75,-396 244.75,-396 238.75,-396 232.75,-390 232.75,-384 232.75,-384 232.75,-372 232.75,-372 232.75,-366 238.75,-360 244.75,-360 244.75,-360 327.25,-360 327.25,-360 333.25,-360 339.25,-366 339.25,-372 339.25,-372 339.25,-384 339.25,-384 339.25,-390 333.25,-396 327.25,-396"/>
<text text-anchor="middle" x="286" y="-375.5" font-family="sans" font-size="10.00">cache_parameters</text>
</g>
<!-- 11&#45;&gt;10 -->
<g id="edge15" class="edge"><title>11&#45;&gt;10</title>
<path fill="none" stroke="grey" stroke-width="2" d="M286,-359.697C286,-351.983 286,-342.712 286,-334.112"/>
<polygon fill="grey" stroke="grey" points="289.5,-334.104 286,-324.104 282.5,-334.104 289.5,-334.104"/>
</g>
<!-- 12 -->
<g id="node13" class="node"><title>12</title>
<path fill="none" stroke="#d8bc56" stroke-width="2" stroke-dasharray="5,2" d="M312.25,-468C312.25,-468 259.75,-468 259.75,-468 253.75,-468 247.75,-462 247.75,-456 247.75,-456 247.75,-444 247.75,-444 247.75,-438 253.75,-432 259.75,-432 259.75,-432 312.25,-432 312.25,-432 318.25,-432 324.25,-438 324.25,-444 324.25,-444 324.25,-456 324.25,-456 324.25,-462 318.25,-468 312.25,-468"/>
<text text-anchor="middle" x="286" y="-453" font-family="sans" font-size="10.00">tsv_to_fasta</text>
<text text-anchor="middle" x="286" y="-442" font-family="sans" font-size="10.00">d: nielson2</text>
</g>
<!-- 12&#45;&gt;11 -->
<g id="edge16" class="edge"><title>12&#45;&gt;11</title>
<path fill="none" stroke="grey" stroke-width="2" d="M286,-431.697C286,-423.983 286,-414.712 286,-406.112"/>
<polygon fill="grey" stroke="grey" points="289.5,-406.104 286,-396.104 282.5,-406.104 289.5,-406.104"/>
</g>
<!-- 13 -->
<g id="node14" class="node"><title>13</title>
<path fill="none" stroke="#d88d56" stroke-width="2" stroke-dasharray="5,2" d="M434.25,-108C434.25,-108 393.75,-108 393.75,-108 387.75,-108 381.75,-102 381.75,-96 381.75,-96 381.75,-84 381.75,-84 381.75,-78 387.75,-72 393.75,-72 393.75,-72 434.25,-72 434.25,-72 440.25,-72 446.25,-78 446.25,-84 446.25,-84 446.25,-96 446.25,-96 446.25,-102 440.25,-108 434.25,-108"/>
<text text-anchor="middle" x="414" y="-87.5" font-family="sans" font-size="10.00">build_tree</text>
</g>
<!-- 13&#45;&gt;0 -->
<g id="edge3" class="edge"><title>13&#45;&gt;0</title>
<path fill="none" stroke="grey" stroke-width="2" d="M381.645,-72.5881C360.826,-62.0279 333.738,-48.2871 312.203,-37.3637"/>
<polygon fill="grey" stroke="grey" points="313.547,-34.1213 303.046,-32.7189 310.381,-40.3641 313.547,-34.1213"/>
</g>
<!-- 14 -->
<g id="node15" class="node"><title>14</title>
<path fill="none" stroke="#d85656" stroke-width="2" stroke-dasharray="5,2" d="M448,-180C448,-180 380,-180 380,-180 374,-180 368,-174 368,-168 368,-168 368,-156 368,-156 368,-150 374,-144 380,-144 380,-144 448,-144 448,-144 454,-144 460,-150 460,-156 460,-156 460,-168 460,-168 460,-174 454,-180 448,-180"/>
<text text-anchor="middle" x="414" y="-159.5" font-family="sans" font-size="10.00">align_partitions</text>
</g>
<!-- 14&#45;&gt;13 -->
<g id="edge17" class="edge"><title>14&#45;&gt;13</title>
<path fill="none" stroke="grey" stroke-width="2" d="M414,-143.697C414,-135.983 414,-126.712 414,-118.112"/>
<polygon fill="grey" stroke="grey" points="417.5,-118.104 414,-108.104 410.5,-118.104 417.5,-118.104"/>
</g>
<!-- 15 -->
<g id="node16" class="node"><title>15</title>
<path fill="none" stroke="#56d8c1" stroke-width="2" stroke-dasharray="5,2" d="M499.25,-252C499.25,-252 398.75,-252 398.75,-252 392.75,-252 386.75,-246 386.75,-240 386.75,-240 386.75,-228 386.75,-228 386.75,-222 392.75,-216 398.75,-216 398.75,-216 499.25,-216 499.25,-216 505.25,-216 511.25,-222 511.25,-228 511.25,-228 511.25,-240 511.25,-240 511.25,-246 505.25,-252 499.25,-252"/>
<text text-anchor="middle" x="449" y="-231.5" font-family="sans" font-size="10.00">analyze_partis_output</text>
</g>
<!-- 15&#45;&gt;14 -->
<g id="edge18" class="edge"><title>15&#45;&gt;14</title>
<path fill="none" stroke="grey" stroke-width="2" d="M440.348,-215.697C436.364,-207.728 431.55,-198.1 427.132,-189.264"/>
<polygon fill="grey" stroke="grey" points="430.155,-187.483 422.552,-180.104 423.894,-190.614 430.155,-187.483"/>
</g>
<!-- 24 -->
<g id="node25" class="node"><title>24</title>
<path fill="none" stroke="#88d856" stroke-width="2" d="M520,-180C520,-180 490,-180 490,-180 484,-180 478,-174 478,-168 478,-168 478,-156 478,-156 478,-150 484,-144 490,-144 490,-144 520,-144 520,-144 526,-144 532,-150 532,-156 532,-156 532,-168 532,-168 532,-174 526,-180 520,-180"/>
<text text-anchor="middle" x="505" y="-159.5" font-family="sans" font-size="10.00">findVDJ</text>
</g>
<!-- 15&#45;&gt;24 -->
<g id="edge27" class="edge"><title>15&#45;&gt;24</title>
<path fill="none" stroke="grey" stroke-width="2" d="M462.843,-215.697C469.489,-207.389 477.578,-197.277 484.887,-188.141"/>
<polygon fill="grey" stroke="grey" points="487.803,-190.099 491.317,-180.104 482.336,-185.727 487.803,-190.099"/>
</g>
<!-- 16 -->
<g id="node17" class="node"><title>16</title>
<path fill="none" stroke="#56d88a" stroke-width="2" stroke-dasharray="5,2" d="M466.25,-324C466.25,-324 431.75,-324 431.75,-324 425.75,-324 419.75,-318 419.75,-312 419.75,-312 419.75,-300 419.75,-300 419.75,-294 425.75,-288 431.75,-288 431.75,-288 466.25,-288 466.25,-288 472.25,-288 478.25,-294 478.25,-300 478.25,-300 478.25,-312 478.25,-312 478.25,-318 472.25,-324 466.25,-324"/>
<text text-anchor="middle" x="449" y="-303.5" font-family="sans" font-size="10.00">simulate</text>
</g>
<!-- 16&#45;&gt;15 -->
<g id="edge19" class="edge"><title>16&#45;&gt;15</title>
<path fill="none" stroke="grey" stroke-width="2" d="M449,-287.697C449,-279.983 449,-270.712 449,-262.112"/>
<polygon fill="grey" stroke="grey" points="452.5,-262.104 449,-252.104 445.5,-262.104 452.5,-262.104"/>
</g>
<!-- 17 -->
<g id="node18" class="node"><title>17</title>
<path fill="none" stroke="#56c1d8" stroke-width="2" stroke-dasharray="5,2" d="M490.25,-396C490.25,-396 407.75,-396 407.75,-396 401.75,-396 395.75,-390 395.75,-384 395.75,-384 395.75,-372 395.75,-372 395.75,-366 401.75,-360 407.75,-360 407.75,-360 490.25,-360 490.25,-360 496.25,-360 502.25,-366 502.25,-372 502.25,-372 502.25,-384 502.25,-384 502.25,-390 496.25,-396 490.25,-396"/>
<text text-anchor="middle" x="449" y="-375.5" font-family="sans" font-size="10.00">cache_parameters</text>
</g>
<!-- 17&#45;&gt;16 -->
<g id="edge20" class="edge"><title>17&#45;&gt;16</title>
<path fill="none" stroke="grey" stroke-width="2" d="M449,-359.697C449,-351.983 449,-342.712 449,-334.112"/>
<polygon fill="grey" stroke="grey" points="452.5,-334.104 449,-324.104 445.5,-334.104 452.5,-334.104"/>
</g>
<!-- 18 -->
<g id="node19" class="node"><title>18</title>
<path fill="none" stroke="#d8bc56" stroke-width="2" stroke-dasharray="5,2" d="M475.25,-468C475.25,-468 422.75,-468 422.75,-468 416.75,-468 410.75,-462 410.75,-456 410.75,-456 410.75,-444 410.75,-444 410.75,-438 416.75,-432 422.75,-432 422.75,-432 475.25,-432 475.25,-432 481.25,-432 487.25,-438 487.25,-444 487.25,-444 487.25,-456 487.25,-456 487.25,-462 481.25,-468 475.25,-468"/>
<text text-anchor="middle" x="449" y="-453" font-family="sans" font-size="10.00">tsv_to_fasta</text>
<text text-anchor="middle" x="449" y="-442" font-family="sans" font-size="10.00">d: nielson1</text>
</g>
<!-- 18&#45;&gt;17 -->
<g id="edge21" class="edge"><title>18&#45;&gt;17</title>
<path fill="none" stroke="grey" stroke-width="2" d="M449,-431.697C449,-423.983 449,-414.712 449,-406.112"/>
<polygon fill="grey" stroke="grey" points="452.5,-406.104 449,-396.104 445.5,-406.104 452.5,-406.104"/>
</g>
<!-- 19 -->
<g id="node20" class="node"><title>19</title>
<path fill="none" stroke="#568ad8" stroke-width="2" d="M167.25,-108C167.25,-108 108.75,-108 108.75,-108 102.75,-108 96.75,-102 96.75,-96 96.75,-96 96.75,-84 96.75,-84 96.75,-78 102.75,-72 108.75,-72 108.75,-72 167.25,-72 167.25,-72 173.25,-72 179.25,-78 179.25,-84 179.25,-84 179.25,-96 179.25,-96 179.25,-102 173.25,-108 167.25,-108"/>
<text text-anchor="middle" x="138" y="-87.5" font-family="sans" font-size="10.00">find_germline</text>
</g>
<!-- 19&#45;&gt;0 -->
<g id="edge4" class="edge"><title>19&#45;&gt;0</title>
<path fill="none" stroke="grey" stroke-width="2" d="M171.759,-71.8761C192.333,-61.4397 218.622,-48.1048 239.652,-37.4375"/>
<polygon fill="grey" stroke="grey" points="241.272,-40.5403 248.607,-32.8951 238.105,-34.2975 241.272,-40.5403"/>
</g>
<!-- 20&#45;&gt;19 -->
<g id="edge22" class="edge"><title>20&#45;&gt;19</title>
<path fill="none" stroke="grey" stroke-width="2" d="M138,-143.697C138,-135.983 138,-126.712 138,-118.112"/>
<polygon fill="grey" stroke="grey" points="141.5,-118.104 138,-108.104 134.5,-118.104 141.5,-118.104"/>
</g>
<!-- 21 -->
<g id="node22" class="node"><title>21</title>
<path fill="none" stroke="#568ad8" stroke-width="2" d="M351.25,-108C351.25,-108 292.75,-108 292.75,-108 286.75,-108 280.75,-102 280.75,-96 280.75,-96 280.75,-84 280.75,-84 280.75,-78 286.75,-72 292.75,-72 292.75,-72 351.25,-72 351.25,-72 357.25,-72 363.25,-78 363.25,-84 363.25,-84 363.25,-96 363.25,-96 363.25,-102 357.25,-108 351.25,-108"/>
<text text-anchor="middle" x="322" y="-87.5" font-family="sans" font-size="10.00">find_germline</text>
</g>
<!-- 21&#45;&gt;0 -->
<g id="edge5" class="edge"><title>21&#45;&gt;0</title>
<path fill="none" stroke="grey" stroke-width="2" d="M310.629,-71.6966C305.282,-63.5589 298.796,-53.689 292.889,-44.7013"/>
<polygon fill="grey" stroke="grey" points="295.657,-42.5393 287.24,-36.1043 289.807,-46.3835 295.657,-42.5393"/>
</g>
<!-- 22&#45;&gt;21 -->
<g id="edge24" class="edge"><title>22&#45;&gt;21</title>
<path fill="none" stroke="grey" stroke-width="2" d="M322,-143.697C322,-135.983 322,-126.712 322,-118.112"/>
<polygon fill="grey" stroke="grey" points="325.5,-118.104 322,-108.104 318.5,-118.104 325.5,-118.104"/>
</g>
<!-- 23 -->
<g id="node24" class="node"><title>23</title>
<path fill="none" stroke="#568ad8" stroke-width="2" d="M535.25,-108C535.25,-108 476.75,-108 476.75,-108 470.75,-108 464.75,-102 464.75,-96 464.75,-96 464.75,-84 464.75,-84 464.75,-78 470.75,-72 476.75,-72 476.75,-72 535.25,-72 535.25,-72 541.25,-72 547.25,-78 547.25,-84 547.25,-84 547.25,-96 547.25,-96 547.25,-102 541.25,-108 535.25,-108"/>
<text text-anchor="middle" x="506" y="-87.5" font-family="sans" font-size="10.00">find_germline</text>
</g>
<!-- 23&#45;&gt;0 -->
<g id="edge6" class="edge"><title>23&#45;&gt;0</title>
<path fill="none" stroke="grey" stroke-width="2" d="M464.566,-75.0582C461.333,-74.0104 458.116,-72.9803 455,-72 405.97,-56.5747 348.993,-39.9213 312.731,-29.4811"/>
<polygon fill="grey" stroke="grey" points="313.654,-26.1048 303.076,-26.7074 311.721,-32.8327 313.654,-26.1048"/>
</g>
<!-- 24&#45;&gt;23 -->
<g id="edge26" class="edge"><title>24&#45;&gt;23</title>
<path fill="none" stroke="grey" stroke-width="2" d="M505.247,-143.697C505.357,-135.983 505.49,-126.712 505.613,-118.112"/>
<polygon fill="grey" stroke="grey" points="509.112,-118.153 505.756,-108.104 502.113,-118.053 509.112,-118.153"/>
</g>
</g>
</svg>
