<?xml version="1.0" encoding="UTF-8" standalone="no"?>
<!DOCTYPE svg PUBLIC "-//W3C//DTD SVG 1.1//EN"
 "http://www.w3.org/Graphics/SVG/1.1/DTD/svg11.dtd">
<!-- Generated by graphviz version 2.30.1 (20180420.1509)
 -->
<!-- Title: snakemake_dag Pages: 1 -->
<svg width="132pt" height="260pt"
 viewBox="0.00 0.00 132.00 260.00" xmlns="http://www.w3.org/2000/svg" xmlns:xlink="http://www.w3.org/1999/xlink">
<g id="graph0" class="graph" transform="scale(1 1) rotate(0) translate(4 256)">
<title>snakemake_dag</title>
<polygon fill="white" stroke="white" points="-4,5 -4,-256 129,-256 129,5 -4,5"/>
<!-- 0 -->
<g id="node1" class="node"><title>0</title>
<path fill="none" stroke="#d85656" stroke-width="2" d="M77,-36C77,-36 47,-36 47,-36 41,-36 35,-30 35,-24 35,-24 35,-12 35,-12 35,-6 41,-0 47,-0 47,-0 77,-0 77,-0 83,-0 89,-6 89,-12 89,-12 89,-24 89,-24 89,-30 83,-36 77,-36"/>
<text text-anchor="middle" x="62" y="-15.5" font-family="sans" font-size="10.00">result</text>
</g>
<!-- 1 -->
<g id="node2" class="node"><title>1</title>
<path fill="none" stroke="#56d8d8" stroke-width="2" d="M112.25,-108C112.25,-108 11.75,-108 11.75,-108 5.75,-108 -0.25,-102 -0.25,-96 -0.25,-96 -0.25,-84 -0.25,-84 -0.25,-78 5.75,-72 11.75,-72 11.75,-72 112.25,-72 112.25,-72 118.25,-72 124.25,-78 124.25,-84 124.25,-84 124.25,-96 124.25,-96 124.25,-102 118.25,-108 112.25,-108"/>
<text text-anchor="middle" x="62" y="-87.5" font-family="sans" font-size="10.00">analyze_partis_output</text>
</g>
<!-- 1&#45;&gt;0 -->
<g id="edge1" class="edge"><title>1&#45;&gt;0</title>
<path fill="none" stroke="grey" stroke-width="2" d="M62,-71.6966C62,-63.9827 62,-54.7125 62,-46.1124"/>
<polygon fill="grey" stroke="grey" points="65.5001,-46.1043 62,-36.1043 58.5001,-46.1044 65.5001,-46.1043"/>
</g>
<!-- 2 -->
<g id="node3" class="node"><title>2</title>
<path fill="none" stroke="#d89556" stroke-width="2" d="M79.25,-180C79.25,-180 44.75,-180 44.75,-180 38.75,-180 32.75,-174 32.75,-168 32.75,-168 32.75,-156 32.75,-156 32.75,-150 38.75,-144 44.75,-144 44.75,-144 79.25,-144 79.25,-144 85.25,-144 91.25,-150 91.25,-156 91.25,-156 91.25,-168 91.25,-168 91.25,-174 85.25,-180 79.25,-180"/>
<text text-anchor="middle" x="62" y="-159.5" font-family="sans" font-size="10.00">simulate</text>
</g>
<!-- 2&#45;&gt;1 -->
<g id="edge2" class="edge"><title>2&#45;&gt;1</title>
<path fill="none" stroke="grey" stroke-width="2" d="M62,-143.697C62,-135.983 62,-126.712 62,-118.112"/>
<polygon fill="grey" stroke="grey" points="65.5001,-118.104 62,-108.104 58.5001,-118.104 65.5001,-118.104"/>
</g>
<!-- 3 -->
<g id="node4" class="node"><title>3</title>
<path fill="none" stroke="#569ad8" stroke-width="2" stroke-dasharray="5,2" d="M88.25,-252C88.25,-252 35.75,-252 35.75,-252 29.75,-252 23.75,-246 23.75,-240 23.75,-240 23.75,-228 23.75,-228 23.75,-222 29.75,-216 35.75,-216 35.75,-216 88.25,-216 88.25,-216 94.25,-216 100.25,-222 100.25,-228 100.25,-228 100.25,-240 100.25,-240 100.25,-246 94.25,-252 88.25,-252"/>
<text text-anchor="middle" x="62" y="-237" font-family="sans" font-size="10.00">tsv_to_fasta</text>
<text text-anchor="middle" x="62" y="-226" font-family="sans" font-size="10.00">d: nielson1</text>
</g>
<!-- 3&#45;&gt;2 -->
<g id="edge3" class="edge"><title>3&#45;&gt;2</title>
<path fill="none" stroke="grey" stroke-width="2" d="M62,-215.697C62,-207.983 62,-198.712 62,-190.112"/>
<polygon fill="grey" stroke="grey" points="65.5001,-190.104 62,-180.104 58.5001,-190.104 65.5001,-190.104"/>
</g>
</g>
</svg>
