<?xml version="1.0" encoding="UTF-8" standalone="no"?>
<!DOCTYPE svg PUBLIC "-//W3C//DTD SVG 1.1//EN"
 "http://www.w3.org/Graphics/SVG/1.1/DTD/svg11.dtd">
<!-- Generated by graphviz version 2.30.1 (20180420.1509)
 -->
<!-- Title: snakemake_dag Pages: 1 -->
<svg width="358pt" height="476pt"
 viewBox="0.00 0.00 358.00 476.00" xmlns="http://www.w3.org/2000/svg" xmlns:xlink="http://www.w3.org/1999/xlink">
<g id="graph0" class="graph" transform="scale(1 1) rotate(0) translate(4 472)">
<title>snakemake_dag</title>
<polygon fill="white" stroke="white" points="-4,5 -4,-472 355,-472 355,5 -4,5"/>
<!-- 0 -->
<g id="node1" class="node"><title>0</title>
<path fill="none" stroke="#d6d856" stroke-width="2" d="M127,-36C127,-36 97,-36 97,-36 91,-36 85,-30 85,-24 85,-24 85,-12 85,-12 85,-6 91,-0 97,-0 97,-0 127,-0 127,-0 133,-0 139,-6 139,-12 139,-12 139,-24 139,-24 139,-30 133,-36 127,-36"/>
<text text-anchor="middle" x="112" y="-15.5" font-family="sans" font-size="10.00">result</text>
</g>
<!-- 1 -->
<g id="node2" class="node"><title>1</title>
<path fill="none" stroke="#56a9d8" stroke-width="2" d="M86.25,-252C86.25,-252 11.75,-252 11.75,-252 5.75,-252 -0.25,-246 -0.25,-240 -0.25,-240 -0.25,-228 -0.25,-228 -0.25,-222 5.75,-216 11.75,-216 11.75,-216 86.25,-216 86.25,-216 92.25,-216 98.25,-222 98.25,-228 98.25,-228 98.25,-240 98.25,-240 98.25,-246 92.25,-252 86.25,-252"/>
<text text-anchor="middle" x="49" y="-231.5" font-family="sans" font-size="10.00">get_family_sizes</text>
</g>
<!-- 1&#45;&gt;0 -->
<g id="edge1" class="edge"><title>1&#45;&gt;0</title>
<path fill="none" stroke="grey" stroke-width="2" d="M48.3511,-215.987C48.0731,-197.863 48.8142,-168.473 55,-144 64.0813,-108.071 83.1361,-69.7091 96.7126,-45.1025"/>
<polygon fill="grey" stroke="grey" points="99.9421,-46.5002 101.793,-36.0684 93.8408,-43.0688 99.9421,-46.5002"/>
</g>
<!-- 2 -->
<g id="node3" class="node"><title>2</title>
<path fill="none" stroke="#afd856" stroke-width="2" d="M220.25,-396C220.25,-396 119.75,-396 119.75,-396 113.75,-396 107.75,-390 107.75,-384 107.75,-384 107.75,-372 107.75,-372 107.75,-366 113.75,-360 119.75,-360 119.75,-360 220.25,-360 220.25,-360 226.25,-360 232.25,-366 232.25,-372 232.25,-372 232.25,-384 232.25,-384 232.25,-390 226.25,-396 220.25,-396"/>
<text text-anchor="middle" x="170" y="-375.5" font-family="sans" font-size="10.00">analyze_partis_output</text>
</g>
<!-- 2&#45;&gt;1 -->
<g id="edge4" class="edge"><title>2&#45;&gt;1</title>
<path fill="none" stroke="grey" stroke-width="2" d="M155.405,-359.871C134.237,-335.031 94.8832,-288.846 70.4234,-260.142"/>
<polygon fill="grey" stroke="grey" points="72.7971,-257.531 63.6472,-252.189 67.469,-262.071 72.7971,-257.531"/>
</g>
<!-- 4 -->
<g id="node5" class="node"><title>4</title>
<path fill="none" stroke="#d85656" stroke-width="2" d="M159.25,-180C159.25,-180 76.75,-180 76.75,-180 70.75,-180 64.75,-174 64.75,-168 64.75,-168 64.75,-156 64.75,-156 64.75,-150 70.75,-144 76.75,-144 76.75,-144 159.25,-144 159.25,-144 165.25,-144 171.25,-150 171.25,-156 171.25,-156 171.25,-168 171.25,-168 171.25,-174 165.25,-180 159.25,-180"/>
<text text-anchor="middle" x="118" y="-159.5" font-family="sans" font-size="10.00">shuffle_sequences</text>
</g>
<!-- 2&#45;&gt;4 -->
<g id="edge6" class="edge"><title>2&#45;&gt;4</title>
<path fill="none" stroke="grey" stroke-width="2" d="M165.833,-359.849C156.819,-322.753 135.449,-234.81 124.586,-190.103"/>
<polygon fill="grey" stroke="grey" points="127.95,-189.123 122.187,-180.232 121.148,-190.776 127.95,-189.123"/>
</g>
<!-- 5 -->
<g id="node6" class="node"><title>5</title>
<path fill="none" stroke="#59d856" stroke-width="2" d="M260,-108C260,-108 152,-108 152,-108 146,-108 140,-102 140,-96 140,-96 140,-84 140,-84 140,-78 146,-72 152,-72 152,-72 260,-72 260,-72 266,-72 272,-78 272,-84 272,-84 272,-96 272,-96 272,-102 266,-108 260,-108"/>
<text text-anchor="middle" x="206" y="-87.5" font-family="sans" font-size="10.00">compare_ancestral_seq</text>
</g>
<!-- 2&#45;&gt;5 -->
<g id="edge7" class="edge"><title>2&#45;&gt;5</title>
<path fill="none" stroke="grey" stroke-width="2" d="M172.144,-359.966C178.158,-312.192 195.222,-176.623 202.568,-118.266"/>
<polygon fill="grey" stroke="grey" points="206.045,-118.665 203.822,-108.306 199.1,-117.791 206.045,-118.665"/>
</g>
<!-- 8 -->
<g id="node9" class="node"><title>8</title>
<path fill="none" stroke="#5682d8" stroke-width="2" d="M308,-324C308,-324 240,-324 240,-324 234,-324 228,-318 228,-312 228,-312 228,-300 228,-300 228,-294 234,-288 240,-288 240,-288 308,-288 308,-288 314,-288 320,-294 320,-300 320,-300 320,-312 320,-312 320,-318 314,-324 308,-324"/>
<text text-anchor="middle" x="274" y="-303.5" font-family="sans" font-size="10.00">align_partitions</text>
</g>
<!-- 2&#45;&gt;8 -->
<g id="edge12" class="edge"><title>2&#45;&gt;8</title>
<path fill="none" stroke="grey" stroke-width="2" d="M195.441,-359.876C208.787,-350.893 225.324,-339.763 239.778,-330.034"/>
<polygon fill="grey" stroke="grey" points="242.119,-332.677 248.461,-324.19 238.211,-326.87 242.119,-332.677"/>
</g>
<!-- 3 -->
<g id="node4" class="node"><title>3</title>
<path fill="none" stroke="#56d882" stroke-width="2" d="M187.25,-468C187.25,-468 152.75,-468 152.75,-468 146.75,-468 140.75,-462 140.75,-456 140.75,-456 140.75,-444 140.75,-444 140.75,-438 146.75,-432 152.75,-432 152.75,-432 187.25,-432 187.25,-432 193.25,-432 199.25,-438 199.25,-444 199.25,-444 199.25,-456 199.25,-456 199.25,-462 193.25,-468 187.25,-468"/>
<text text-anchor="middle" x="170" y="-447.5" font-family="sans" font-size="10.00">simulate</text>
</g>
<!-- 3&#45;&gt;2 -->
<g id="edge5" class="edge"><title>3&#45;&gt;2</title>
<path fill="none" stroke="grey" stroke-width="2" d="M170,-431.697C170,-423.983 170,-414.712 170,-406.112"/>
<polygon fill="grey" stroke="grey" points="173.5,-406.104 170,-396.104 166.5,-406.104 173.5,-406.104"/>
</g>
<!-- 4&#45;&gt;0 -->
<g id="edge3" class="edge"><title>4&#45;&gt;0</title>
<path fill="none" stroke="grey" stroke-width="2" d="M117.276,-143.871C116.254,-119.67 114.375,-75.2108 113.157,-46.3932"/>
<polygon fill="grey" stroke="grey" points="116.645,-46.0326 112.726,-36.1893 109.652,-46.3281 116.645,-46.0326"/>
</g>
<!-- 5&#45;&gt;0 -->
<g id="edge2" class="edge"><title>5&#45;&gt;0</title>
<path fill="none" stroke="grey" stroke-width="2" d="M182.764,-71.6966C170.812,-62.796 156.077,-51.8232 143.153,-42.1989"/>
<polygon fill="grey" stroke="grey" points="145.08,-39.2699 134.969,-36.1043 140.899,-44.8842 145.08,-39.2699"/>
</g>
<!-- 6 -->
<g id="node7" class="node"><title>6</title>
<path fill="none" stroke="#d88556" stroke-width="2" d="M329.25,-180C329.25,-180 240.75,-180 240.75,-180 234.75,-180 228.75,-174 228.75,-168 228.75,-168 228.75,-156 228.75,-156 228.75,-150 234.75,-144 240.75,-144 240.75,-144 329.25,-144 329.25,-144 335.25,-144 341.25,-150 341.25,-156 341.25,-156 341.25,-168 341.25,-168 341.25,-174 335.25,-180 329.25,-180"/>
<text text-anchor="middle" x="285" y="-159.5" font-family="sans" font-size="10.00">ancestral_sequence</text>
</g>
<!-- 6&#45;&gt;5 -->
<g id="edge8" class="edge"><title>6&#45;&gt;5</title>
<path fill="none" stroke="grey" stroke-width="2" d="M265.472,-143.697C255.618,-134.965 243.514,-124.24 232.804,-114.75"/>
<polygon fill="grey" stroke="grey" points="235.109,-112.117 225.303,-108.104 230.467,-117.356 235.109,-112.117"/>
</g>
<!-- 7 -->
<g id="node8" class="node"><title>7</title>
<path fill="none" stroke="#56d8a9" stroke-width="2" d="M337.25,-252C337.25,-252 296.75,-252 296.75,-252 290.75,-252 284.75,-246 284.75,-240 284.75,-240 284.75,-228 284.75,-228 284.75,-222 290.75,-216 296.75,-216 296.75,-216 337.25,-216 337.25,-216 343.25,-216 349.25,-222 349.25,-228 349.25,-228 349.25,-240 349.25,-240 349.25,-246 343.25,-252 337.25,-252"/>
<text text-anchor="middle" x="317" y="-231.5" font-family="sans" font-size="10.00">build_tree</text>
</g>
<!-- 7&#45;&gt;6 -->
<g id="edge10" class="edge"><title>7&#45;&gt;6</title>
<path fill="none" stroke="grey" stroke-width="2" d="M309.09,-215.697C305.447,-207.728 301.046,-198.1 297.006,-189.264"/>
<polygon fill="grey" stroke="grey" points="300.16,-187.744 292.819,-180.104 293.794,-190.654 300.16,-187.744"/>
</g>
<!-- 8&#45;&gt;6 -->
<g id="edge9" class="edge"><title>8&#45;&gt;6</title>
<path fill="none" stroke="grey" stroke-width="2" d="M273.306,-287.889C272.785,-269.934 272.529,-240.911 275,-216 275.845,-207.483 277.361,-198.291 278.962,-189.992"/>
<polygon fill="grey" stroke="grey" points="282.415,-190.574 280.99,-180.076 275.557,-189.171 282.415,-190.574"/>
</g>
<!-- 8&#45;&gt;7 -->
<g id="edge11" class="edge"><title>8&#45;&gt;7</title>
<path fill="none" stroke="grey" stroke-width="2" d="M284.629,-287.697C289.628,-279.559 295.691,-269.689 301.212,-260.701"/>
<polygon fill="grey" stroke="grey" points="304.241,-262.457 306.493,-252.104 298.277,-258.793 304.241,-262.457"/>
</g>
</g>
</svg>
