<?xml version="1.0" encoding="UTF-8" standalone="no"?>
<!DOCTYPE svg PUBLIC "-//W3C//DTD SVG 1.1//EN"
 "http://www.w3.org/Graphics/SVG/1.1/DTD/svg11.dtd">
<!-- Generated by graphviz version 2.30.1 (20180420.1509)
 -->
<!-- Title: snakemake_dag Pages: 1 -->
<svg width="470pt" height="620pt"
 viewBox="0.00 0.00 470.00 620.00" xmlns="http://www.w3.org/2000/svg" xmlns:xlink="http://www.w3.org/1999/xlink">
<g id="graph0" class="graph" transform="scale(1 1) rotate(0) translate(4 616)">
<title>snakemake_dag</title>
<polygon fill="white" stroke="white" points="-4,5 -4,-616 467,-616 467,5 -4,5"/>
<!-- 0 -->
<g id="node1" class="node"><title>0</title>
<path fill="none" stroke="#d87556" stroke-width="2" d="M273,-36C273,-36 243,-36 243,-36 237,-36 231,-30 231,-24 231,-24 231,-12 231,-12 231,-6 237,-0 243,-0 243,-0 273,-0 273,-0 279,-0 285,-6 285,-12 285,-12 285,-24 285,-24 285,-30 279,-36 273,-36"/>
<text text-anchor="middle" x="258" y="-15.5" font-family="sans" font-size="10.00">all</text>
</g>
<!-- 1 -->
<g id="node2" class="node"><title>1</title>
<path fill="none" stroke="#d89c56" stroke-width="2" d="M231,-252C231,-252 169,-252 169,-252 163,-252 157,-246 157,-240 157,-240 157,-228 157,-228 157,-222 163,-216 169,-216 169,-216 231,-216 231,-216 237,-216 243,-222 243,-228 243,-228 243,-240 243,-240 243,-246 237,-252 231,-252"/>
<text text-anchor="middle" x="200" y="-231.5" font-family="sans" font-size="10.00">seq_similarity</text>
</g>
<!-- 1&#45;&gt;0 -->
<g id="edge2" class="edge"><title>1&#45;&gt;0</title>
<path fill="none" stroke="grey" stroke-width="2" d="M204.561,-215.585C212.322,-186.027 228.653,-124.164 243,-72 245.344,-63.4783 247.95,-54.2018 250.324,-45.8261"/>
<polygon fill="grey" stroke="grey" points="253.702,-46.7438 253.072,-36.1678 246.969,-44.8286 253.702,-46.7438"/>
</g>
<!-- 2 -->
<g id="node3" class="node"><title>2</title>
<path fill="none" stroke="#56d89a" stroke-width="2" d="M113.25,-324C113.25,-324 24.75,-324 24.75,-324 18.75,-324 12.75,-318 12.75,-312 12.75,-312 12.75,-300 12.75,-300 12.75,-294 18.75,-288 24.75,-288 24.75,-288 113.25,-288 113.25,-288 119.25,-288 125.25,-294 125.25,-300 125.25,-300 125.25,-312 125.25,-312 125.25,-318 119.25,-324 113.25,-324"/>
<text text-anchor="middle" x="69" y="-303.5" font-family="sans" font-size="10.00">ancestral_sequence</text>
</g>
<!-- 2&#45;&gt;1 -->
<g id="edge3" class="edge"><title>2&#45;&gt;1</title>
<path fill="none" stroke="grey" stroke-width="2" d="M101.046,-287.876C118.492,-278.554 140.265,-266.919 158.943,-256.939"/>
<polygon fill="grey" stroke="grey" points="160.66,-259.99 167.831,-252.19 157.361,-253.816 160.66,-259.99"/>
</g>
<!-- 3 -->
<g id="node4" class="node"><title>3</title>
<path fill="none" stroke="#568ad8" stroke-width="2" d="M116,-396C116,-396 22,-396 22,-396 16,-396 10,-390 10,-384 10,-384 10,-372 10,-372 10,-366 16,-360 22,-360 22,-360 116,-360 116,-360 122,-360 128,-366 128,-372 128,-372 128,-384 128,-384 128,-390 122,-396 116,-396"/>
<text text-anchor="middle" x="69" y="-375.5" font-family="sans" font-size="10.00">build_tree_discerned</text>
</g>
<!-- 3&#45;&gt;2 -->
<g id="edge5" class="edge"><title>3&#45;&gt;2</title>
<path fill="none" stroke="grey" stroke-width="2" d="M69,-359.697C69,-351.983 69,-342.712 69,-334.112"/>
<polygon fill="grey" stroke="grey" points="72.5001,-334.104 69,-324.104 65.5001,-334.104 72.5001,-334.104"/>
</g>
<!-- 4 -->
<g id="node5" class="node"><title>4</title>
<path fill="none" stroke="#56a9d8" stroke-width="2" d="M126,-468C126,-468 12,-468 12,-468 6,-468 0,-462 0,-456 0,-456 0,-444 0,-444 0,-438 6,-432 12,-432 12,-432 126,-432 126,-432 132,-432 138,-438 138,-444 138,-444 138,-456 138,-456 138,-462 132,-468 126,-468"/>
<text text-anchor="middle" x="69" y="-447.5" font-family="sans" font-size="10.00">align_discerned_families</text>
</g>
<!-- 4&#45;&gt;3 -->
<g id="edge6" class="edge"><title>4&#45;&gt;3</title>
<path fill="none" stroke="grey" stroke-width="2" d="M69,-431.697C69,-423.983 69,-414.712 69,-406.112"/>
<polygon fill="grey" stroke="grey" points="72.5001,-406.104 69,-396.104 65.5001,-406.104 72.5001,-406.104"/>
</g>
<!-- 5 -->
<g id="node6" class="node"><title>5</title>
<path fill="none" stroke="#59d856" stroke-width="2" d="M244.25,-324C244.25,-324 155.75,-324 155.75,-324 149.75,-324 143.75,-318 143.75,-312 143.75,-312 143.75,-300 143.75,-300 143.75,-294 149.75,-288 155.75,-288 155.75,-288 244.25,-288 244.25,-288 250.25,-288 256.25,-294 256.25,-300 256.25,-300 256.25,-312 256.25,-312 256.25,-318 250.25,-324 244.25,-324"/>
<text text-anchor="middle" x="200" y="-303.5" font-family="sans" font-size="10.00">ancestral_phangorn</text>
</g>
<!-- 5&#45;&gt;1 -->
<g id="edge4" class="edge"><title>5&#45;&gt;1</title>
<path fill="none" stroke="grey" stroke-width="2" d="M200,-287.697C200,-279.983 200,-270.712 200,-262.112"/>
<polygon fill="grey" stroke="grey" points="203.5,-262.104 200,-252.104 196.5,-262.104 203.5,-262.104"/>
</g>
<!-- 6 -->
<g id="node7" class="node"><title>6</title>
<path fill="none" stroke="#d8d356" stroke-width="2" d="M222.25,-396C222.25,-396 181.75,-396 181.75,-396 175.75,-396 169.75,-390 169.75,-384 169.75,-384 169.75,-372 169.75,-372 169.75,-366 175.75,-360 181.75,-360 181.75,-360 222.25,-360 222.25,-360 228.25,-360 234.25,-366 234.25,-372 234.25,-372 234.25,-384 234.25,-384 234.25,-390 228.25,-396 222.25,-396"/>
<text text-anchor="middle" x="202" y="-375.5" font-family="sans" font-size="10.00">build_tree</text>
</g>
<!-- 6&#45;&gt;5 -->
<g id="edge7" class="edge"><title>6&#45;&gt;5</title>
<path fill="none" stroke="grey" stroke-width="2" d="M201.506,-359.697C201.285,-351.983 201.02,-342.712 200.775,-334.112"/>
<polygon fill="grey" stroke="grey" points="204.273,-334 200.489,-324.104 197.276,-334.2 204.273,-334"/>
</g>
<!-- 7 -->
<g id="node8" class="node"><title>7</title>
<path fill="none" stroke="#d8ac56" stroke-width="2" d="M235,-468C235,-468 173,-468 173,-468 167,-468 161,-462 161,-456 161,-456 161,-444 161,-444 161,-438 167,-432 173,-432 173,-432 235,-432 235,-432 241,-432 247,-438 247,-444 247,-444 247,-456 247,-456 247,-462 241,-468 235,-468"/>
<text text-anchor="middle" x="204" y="-447.5" font-family="sans" font-size="10.00">align_families</text>
</g>
<!-- 7&#45;&gt;6 -->
<g id="edge8" class="edge"><title>7&#45;&gt;6</title>
<path fill="none" stroke="grey" stroke-width="2" d="M203.506,-431.697C203.285,-423.983 203.02,-414.712 202.775,-406.112"/>
<polygon fill="grey" stroke="grey" points="206.273,-406 202.489,-396.104 199.276,-406.2 206.273,-406"/>
</g>
<!-- 8 -->
<g id="node9" class="node"><title>8</title>
<path fill="none" stroke="#56d87b" stroke-width="2" d="M373.25,-540C373.25,-540 272.75,-540 272.75,-540 266.75,-540 260.75,-534 260.75,-528 260.75,-528 260.75,-516 260.75,-516 260.75,-510 266.75,-504 272.75,-504 272.75,-504 373.25,-504 373.25,-504 379.25,-504 385.25,-510 385.25,-516 385.25,-516 385.25,-528 385.25,-528 385.25,-534 379.25,-540 373.25,-540"/>
<text text-anchor="middle" x="323" y="-519.5" font-family="sans" font-size="10.00">analyze_partis_output</text>
</g>
<!-- 8&#45;&gt;7 -->
<g id="edge9" class="edge"><title>8&#45;&gt;7</title>
<path fill="none" stroke="grey" stroke-width="2" d="M293.889,-503.876C278.33,-494.724 258.981,-483.342 242.224,-473.485"/>
<polygon fill="grey" stroke="grey" points="243.617,-470.243 233.223,-468.19 240.067,-476.277 243.617,-470.243"/>
</g>
<!-- 15 -->
<g id="node16" class="node"><title>15</title>
<path fill="none" stroke="#d8bc56" stroke-width="2" d="M366,-468C366,-468 280,-468 280,-468 274,-468 268,-462 268,-456 268,-456 268,-444 268,-444 268,-438 274,-432 280,-432 280,-432 366,-432 366,-432 372,-432 378,-438 378,-444 378,-444 378,-456 378,-456 378,-462 372,-468 366,-468"/>
<text text-anchor="middle" x="323" y="-447.5" font-family="sans" font-size="10.00">remove_singletons</text>
</g>
<!-- 8&#45;&gt;15 -->
<g id="edge19" class="edge"><title>8&#45;&gt;15</title>
<path fill="none" stroke="grey" stroke-width="2" d="M323,-503.697C323,-495.983 323,-486.712 323,-478.112"/>
<polygon fill="grey" stroke="grey" points="326.5,-478.104 323,-468.104 319.5,-478.104 326.5,-478.104"/>
</g>
<!-- 16 -->
<g id="node17" class="node"><title>16</title>
<path fill="none" stroke="#68d856" stroke-width="2" d="M449.25,-180C449.25,-180 374.75,-180 374.75,-180 368.75,-180 362.75,-174 362.75,-168 362.75,-168 362.75,-156 362.75,-156 362.75,-150 368.75,-144 374.75,-144 374.75,-144 449.25,-144 449.25,-144 455.25,-144 461.25,-150 461.25,-156 461.25,-156 461.25,-168 461.25,-168 461.25,-174 455.25,-180 449.25,-180"/>
<text text-anchor="middle" x="412" y="-159.5" font-family="sans" font-size="10.00">get_family_sizes</text>
</g>
<!-- 8&#45;&gt;16 -->
<g id="edge20" class="edge"><title>8&#45;&gt;16</title>
<path fill="none" stroke="grey" stroke-width="2" d="M350.785,-503.877C385.102,-480.347 439,-434.548 439,-379 439,-379 439,-379 439,-305 439,-264.502 428.27,-218.632 420.338,-190.258"/>
<polygon fill="grey" stroke="grey" points="423.597,-188.926 417.464,-180.287 416.871,-190.865 423.597,-188.926"/>
</g>
<!-- 9 -->
<g id="node10" class="node"><title>9</title>
<path fill="none" stroke="#ced856" stroke-width="2" d="M340.25,-612C340.25,-612 305.75,-612 305.75,-612 299.75,-612 293.75,-606 293.75,-600 293.75,-600 293.75,-588 293.75,-588 293.75,-582 299.75,-576 305.75,-576 305.75,-576 340.25,-576 340.25,-576 346.25,-576 352.25,-582 352.25,-588 352.25,-588 352.25,-600 352.25,-600 352.25,-606 346.25,-612 340.25,-612"/>
<text text-anchor="middle" x="323" y="-591.5" font-family="sans" font-size="10.00">simulate</text>
</g>
<!-- 9&#45;&gt;8 -->
<g id="edge10" class="edge"><title>9&#45;&gt;8</title>
<path fill="none" stroke="grey" stroke-width="2" d="M323,-575.697C323,-567.983 323,-558.712 323,-550.112"/>
<polygon fill="grey" stroke="grey" points="326.5,-550.104 323,-540.104 319.5,-550.104 326.5,-550.104"/>
</g>
<!-- 10 -->
<g id="node11" class="node"><title>10</title>
<path fill="none" stroke="#56d0d8" stroke-width="2" d="M344,-108C344,-108 264,-108 264,-108 258,-108 252,-102 252,-96 252,-96 252,-84 252,-84 252,-78 258,-72 264,-72 264,-72 344,-72 344,-72 350,-72 356,-78 356,-84 356,-84 356,-96 356,-96 356,-102 350,-108 344,-108"/>
<text text-anchor="middle" x="304" y="-87.5" font-family="sans" font-size="10.00">combine_analysis</text>
</g>
<!-- 10&#45;&gt;0 -->
<g id="edge1" class="edge"><title>10&#45;&gt;0</title>
<path fill="none" stroke="grey" stroke-width="2" d="M292.629,-71.6966C287.282,-63.5589 280.796,-53.689 274.889,-44.7013"/>
<polygon fill="grey" stroke="grey" points="277.657,-42.5393 269.24,-36.1043 271.807,-46.3835 277.657,-42.5393"/>
</g>
<!-- 11 -->
<g id="node12" class="node"><title>11</title>
<path fill="none" stroke="#56d8c1" stroke-width="2" d="M319,-180C319,-180 289,-180 289,-180 283,-180 277,-174 277,-168 277,-168 277,-156 277,-156 277,-150 283,-144 289,-144 289,-144 319,-144 319,-144 325,-144 331,-150 331,-156 331,-156 331,-168 331,-168 331,-174 325,-180 319,-180"/>
<text text-anchor="middle" x="304" y="-159.5" font-family="sans" font-size="10.00">scoper</text>
</g>
<!-- 11&#45;&gt;10 -->
<g id="edge12" class="edge"><title>11&#45;&gt;10</title>
<path fill="none" stroke="grey" stroke-width="2" d="M304,-143.697C304,-135.983 304,-126.712 304,-118.112"/>
<polygon fill="grey" stroke="grey" points="307.5,-118.104 304,-108.104 300.5,-118.104 307.5,-118.104"/>
</g>
<!-- 12 -->
<g id="node13" class="node"><title>12</title>
<path fill="none" stroke="#56c1d8" stroke-width="2" d="M321,-252C321,-252 287,-252 287,-252 281,-252 275,-246 275,-240 275,-240 275,-228 275,-228 275,-222 281,-216 287,-216 287,-216 321,-216 321,-216 327,-216 333,-222 333,-228 333,-228 333,-240 333,-240 333,-246 327,-252 321,-252"/>
<text text-anchor="middle" x="304" y="-231.5" font-family="sans" font-size="10.00">changeo</text>
</g>
<!-- 12&#45;&gt;11 -->
<g id="edge13" class="edge"><title>12&#45;&gt;11</title>
<path fill="none" stroke="grey" stroke-width="2" d="M304,-215.697C304,-207.983 304,-198.712 304,-190.112"/>
<polygon fill="grey" stroke="grey" points="307.5,-190.104 304,-180.104 300.5,-190.104 307.5,-190.104"/>
</g>
<!-- 13 -->
<g id="node14" class="node"><title>13</title>
<path fill="none" stroke="#569ad8" stroke-width="2" d="M398.25,-324C398.25,-324 325.75,-324 325.75,-324 319.75,-324 313.75,-318 313.75,-312 313.75,-312 313.75,-300 313.75,-300 313.75,-294 319.75,-288 325.75,-288 325.75,-288 398.25,-288 398.25,-288 404.25,-288 410.25,-294 410.25,-300 410.25,-300 410.25,-312 410.25,-312 410.25,-318 404.25,-324 398.25,-324"/>
<text text-anchor="middle" x="362" y="-303.5" font-family="sans" font-size="10.00">combine_vquest</text>
</g>
<!-- 13&#45;&gt;12 -->
<g id="edge14" class="edge"><title>13&#45;&gt;12</title>
<path fill="none" stroke="grey" stroke-width="2" d="M347.663,-287.697C340.709,-279.305 332.23,-269.07 324.599,-259.861"/>
<polygon fill="grey" stroke="grey" points="327.247,-257.571 318.172,-252.104 321.857,-262.038 327.247,-257.571"/>
</g>
<!-- 14 -->
<g id="node15" class="node"><title>14</title>
<path fill="none" stroke="#d88d56" stroke-width="2" d="M393,-396C393,-396 363,-396 363,-396 357,-396 351,-390 351,-384 351,-384 351,-372 351,-372 351,-366 357,-360 363,-360 363,-360 393,-360 393,-360 399,-360 405,-366 405,-372 405,-372 405,-384 405,-384 405,-390 399,-396 393,-396"/>
<text text-anchor="middle" x="378" y="-375.5" font-family="sans" font-size="10.00">findVDJ</text>
</g>
<!-- 14&#45;&gt;13 -->
<g id="edge16" class="edge"><title>14&#45;&gt;13</title>
<path fill="none" stroke="grey" stroke-width="2" d="M374.045,-359.697C372.282,-351.983 370.163,-342.712 368.197,-334.112"/>
<polygon fill="grey" stroke="grey" points="371.55,-333.073 365.91,-324.104 364.726,-334.633 371.55,-333.073"/>
</g>
<!-- 15&#45;&gt;12 -->
<g id="edge15" class="edge"><title>15&#45;&gt;12</title>
<path fill="none" stroke="grey" stroke-width="2" d="M319.525,-431.704C314.89,-407.667 306.928,-362.742 304,-324 302.438,-303.33 302.513,-279.882 302.939,-262.245"/>
<polygon fill="grey" stroke="grey" points="306.442,-262.189 303.237,-252.091 299.445,-261.983 306.442,-262.189"/>
</g>
<!-- 15&#45;&gt;13 -->
<g id="edge17" class="edge"><title>15&#45;&gt;13</title>
<path fill="none" stroke="grey" stroke-width="2" d="M325.887,-431.747C329.096,-413.675 334.789,-384.559 342,-360 344.521,-351.413 347.777,-342.234 350.927,-333.968"/>
<polygon fill="grey" stroke="grey" points="354.271,-335.029 354.66,-324.441 347.753,-332.475 354.271,-335.029"/>
</g>
<!-- 15&#45;&gt;14 -->
<g id="edge18" class="edge"><title>15&#45;&gt;14</title>
<path fill="none" stroke="grey" stroke-width="2" d="M336.596,-431.697C343.123,-423.389 351.068,-413.277 358.247,-404.141"/>
<polygon fill="grey" stroke="grey" points="361.135,-406.13 364.561,-396.104 355.631,-401.805 361.135,-406.13"/>
</g>
<!-- 16&#45;&gt;10 -->
<g id="edge11" class="edge"><title>16&#45;&gt;10</title>
<path fill="none" stroke="grey" stroke-width="2" d="M385.58,-143.876C371.59,-134.808 354.224,-123.552 339.114,-113.759"/>
<polygon fill="grey" stroke="grey" points="340.817,-110.692 330.521,-108.19 337.009,-116.566 340.817,-110.692"/>
</g>
</g>
</svg>
