<?xml version="1.0" encoding="UTF-8" standalone="no"?>
<!DOCTYPE svg PUBLIC "-//W3C//DTD SVG 1.1//EN"
 "http://www.w3.org/Graphics/SVG/1.1/DTD/svg11.dtd">
<!-- Generated by graphviz version 2.30.1 (20180420.1509)
 -->
<!-- Title: snakemake_dag Pages: 1 -->
<svg width="405pt" height="476pt"
 viewBox="0.00 0.00 405.00 476.00" xmlns="http://www.w3.org/2000/svg" xmlns:xlink="http://www.w3.org/1999/xlink">
<g id="graph0" class="graph" transform="scale(1 1) rotate(0) translate(4 472)">
<title>snakemake_dag</title>
<polygon fill="white" stroke="white" points="-4,5 -4,-472 402,-472 402,5 -4,5"/>
<!-- 0 -->
<g id="node1" class="node"><title>0</title>
<path fill="none" stroke="#d89c56" stroke-width="2" d="M165,-36C165,-36 135,-36 135,-36 129,-36 123,-30 123,-24 123,-24 123,-12 123,-12 123,-6 129,-0 135,-0 135,-0 165,-0 165,-0 171,-0 177,-6 177,-12 177,-12 177,-24 177,-24 177,-30 171,-36 165,-36"/>
<text text-anchor="middle" x="150" y="-15.5" font-family="sans" font-size="10.00">result</text>
</g>
<!-- 1 -->
<g id="node2" class="node"><title>1</title>
<path fill="none" stroke="#56c1d8" stroke-width="2" d="M86.25,-252C86.25,-252 11.75,-252 11.75,-252 5.75,-252 -0.25,-246 -0.25,-240 -0.25,-240 -0.25,-228 -0.25,-228 -0.25,-222 5.75,-216 11.75,-216 11.75,-216 86.25,-216 86.25,-216 92.25,-216 98.25,-222 98.25,-228 98.25,-228 98.25,-240 98.25,-240 98.25,-246 92.25,-252 86.25,-252"/>
<text text-anchor="middle" x="49" y="-231.5" font-family="sans" font-size="10.00">get_family_sizes</text>
</g>
<!-- 1&#45;&gt;0 -->
<g id="edge2" class="edge"><title>1&#45;&gt;0</title>
<path fill="none" stroke="grey" stroke-width="2" d="M45.6333,-215.939C40.4395,-184.743 33.7929,-117.532 62,-72 73.6774,-53.1505 94.7683,-40.1091 113.375,-31.6801"/>
<polygon fill="grey" stroke="grey" points="114.969,-34.806 122.816,-27.6864 112.242,-28.3591 114.969,-34.806"/>
</g>
<!-- 2 -->
<g id="node3" class="node"><title>2</title>
<path fill="none" stroke="#ced856" stroke-width="2" d="M255.25,-396C255.25,-396 154.75,-396 154.75,-396 148.75,-396 142.75,-390 142.75,-384 142.75,-384 142.75,-372 142.75,-372 142.75,-366 148.75,-360 154.75,-360 154.75,-360 255.25,-360 255.25,-360 261.25,-360 267.25,-366 267.25,-372 267.25,-372 267.25,-384 267.25,-384 267.25,-390 261.25,-396 255.25,-396"/>
<text text-anchor="middle" x="205" y="-375.5" font-family="sans" font-size="10.00">analyze_partis_output</text>
</g>
<!-- 2&#45;&gt;1 -->
<g id="edge4" class="edge"><title>2&#45;&gt;1</title>
<path fill="none" stroke="grey" stroke-width="2" d="M158.182,-359.997C138.885,-351.349 117.282,-339.373 101,-324 82.3843,-306.424 68.3354,-280.698 59.5627,-261.42"/>
<polygon fill="grey" stroke="grey" points="62.663,-259.773 55.4598,-252.003 56.2457,-262.569 62.663,-259.773"/>
</g>
<!-- 7 -->
<g id="node8" class="node"><title>7</title>
<path fill="none" stroke="#56d86b" stroke-width="2" d="M205.25,-324C205.25,-324 122.75,-324 122.75,-324 116.75,-324 110.75,-318 110.75,-312 110.75,-312 110.75,-300 110.75,-300 110.75,-294 116.75,-288 122.75,-288 122.75,-288 205.25,-288 205.25,-288 211.25,-288 217.25,-294 217.25,-300 217.25,-300 217.25,-312 217.25,-312 217.25,-318 211.25,-324 205.25,-324"/>
<text text-anchor="middle" x="164" y="-303.5" font-family="sans" font-size="10.00">shuffle_sequences</text>
</g>
<!-- 2&#45;&gt;7 -->
<g id="edge10" class="edge"><title>2&#45;&gt;7</title>
<path fill="none" stroke="grey" stroke-width="2" d="M194.865,-359.697C190.148,-351.644 184.438,-341.894 179.218,-332.982"/>
<polygon fill="grey" stroke="grey" points="182.092,-330.964 174.018,-324.104 176.052,-334.502 182.092,-330.964"/>
</g>
<!-- 8 -->
<g id="node9" class="node"><title>8</title>
<path fill="none" stroke="#68d856" stroke-width="2" d="M367,-108C367,-108 259,-108 259,-108 253,-108 247,-102 247,-96 247,-96 247,-84 247,-84 247,-78 253,-72 259,-72 259,-72 367,-72 367,-72 373,-72 379,-78 379,-84 379,-84 379,-96 379,-96 379,-102 373,-108 367,-108"/>
<text text-anchor="middle" x="313" y="-87.5" font-family="sans" font-size="10.00">compare_ancestral_seq</text>
</g>
<!-- 2&#45;&gt;8 -->
<g id="edge12" class="edge"><title>2&#45;&gt;8</title>
<path fill="none" stroke="grey" stroke-width="2" d="M212.711,-359.583C217.031,-349.36 222.281,-336.11 226,-324 250.058,-245.659 228.734,-216.988 266,-144 271.224,-133.769 278.892,-123.948 286.527,-115.6"/>
<polygon fill="grey" stroke="grey" points="289.058,-118.017 293.457,-108.378 284.008,-113.17 289.058,-118.017"/>
</g>
<!-- 11 -->
<g id="node12" class="node"><title>11</title>
<path fill="none" stroke="#afd856" stroke-width="2" d="M355,-324C355,-324 287,-324 287,-324 281,-324 275,-318 275,-312 275,-312 275,-300 275,-300 275,-294 281,-288 287,-288 287,-288 355,-288 355,-288 361,-288 367,-294 367,-300 367,-300 367,-312 367,-312 367,-318 361,-324 355,-324"/>
<text text-anchor="middle" x="321" y="-303.5" font-family="sans" font-size="10.00">align_partitions</text>
</g>
<!-- 2&#45;&gt;11 -->
<g id="edge16" class="edge"><title>2&#45;&gt;11</title>
<path fill="none" stroke="grey" stroke-width="2" d="M233.377,-359.876C248.544,-350.724 267.405,-339.342 283.739,-329.485"/>
<polygon fill="grey" stroke="grey" points="285.761,-332.353 292.514,-324.19 282.144,-326.36 285.761,-332.353"/>
</g>
<!-- 3 -->
<g id="node4" class="node"><title>3</title>
<path fill="none" stroke="#d8bc56" stroke-width="2" d="M222.25,-468C222.25,-468 187.75,-468 187.75,-468 181.75,-468 175.75,-462 175.75,-456 175.75,-456 175.75,-444 175.75,-444 175.75,-438 181.75,-432 187.75,-432 187.75,-432 222.25,-432 222.25,-432 228.25,-432 234.25,-438 234.25,-444 234.25,-444 234.25,-456 234.25,-456 234.25,-462 228.25,-468 222.25,-468"/>
<text text-anchor="middle" x="205" y="-447.5" font-family="sans" font-size="10.00">simulate</text>
</g>
<!-- 3&#45;&gt;2 -->
<g id="edge5" class="edge"><title>3&#45;&gt;2</title>
<path fill="none" stroke="grey" stroke-width="2" d="M205,-431.697C205,-423.983 205,-414.712 205,-406.112"/>
<polygon fill="grey" stroke="grey" points="208.5,-406.104 205,-396.104 201.5,-406.104 208.5,-406.104"/>
</g>
<!-- 4 -->
<g id="node5" class="node"><title>4</title>
<path fill="none" stroke="#56d8d0" stroke-width="2" d="M217,-108C217,-108 83,-108 83,-108 77,-108 71,-102 71,-96 71,-96 71,-84 71,-84 71,-78 77,-72 83,-72 83,-72 217,-72 217,-72 223,-72 229,-78 229,-84 229,-84 229,-96 229,-96 229,-102 223,-108 217,-108"/>
<text text-anchor="middle" x="150" y="-87.5" font-family="sans" font-size="10.00">ancestral_sequence_shuffled</text>
</g>
<!-- 4&#45;&gt;0 -->
<g id="edge1" class="edge"><title>4&#45;&gt;0</title>
<path fill="none" stroke="grey" stroke-width="2" d="M150,-71.6966C150,-63.9827 150,-54.7125 150,-46.1124"/>
<polygon fill="grey" stroke="grey" points="153.5,-46.1043 150,-36.1043 146.5,-46.1044 153.5,-46.1043"/>
</g>
<!-- 5 -->
<g id="node6" class="node"><title>5</title>
<path fill="none" stroke="#56d88a" stroke-width="2" d="M207,-180C207,-180 121,-180 121,-180 115,-180 109,-174 109,-168 109,-168 109,-156 109,-156 109,-150 115,-144 121,-144 121,-144 207,-144 207,-144 213,-144 219,-150 219,-156 219,-156 219,-168 219,-168 219,-174 213,-180 207,-180"/>
<text text-anchor="middle" x="164" y="-159.5" font-family="sans" font-size="10.00">build_tree_shuffled</text>
</g>
<!-- 5&#45;&gt;4 -->
<g id="edge7" class="edge"><title>5&#45;&gt;4</title>
<path fill="none" stroke="grey" stroke-width="2" d="M160.539,-143.697C158.997,-135.983 157.142,-126.712 155.422,-118.112"/>
<polygon fill="grey" stroke="grey" points="158.814,-117.224 153.421,-108.104 151.95,-118.597 158.814,-117.224"/>
</g>
<!-- 6 -->
<g id="node7" class="node"><title>6</title>
<path fill="none" stroke="#d87556" stroke-width="2" d="M194.25,-252C194.25,-252 133.75,-252 133.75,-252 127.75,-252 121.75,-246 121.75,-240 121.75,-240 121.75,-228 121.75,-228 121.75,-222 127.75,-216 133.75,-216 133.75,-216 194.25,-216 194.25,-216 200.25,-216 206.25,-222 206.25,-228 206.25,-228 206.25,-240 206.25,-240 206.25,-246 200.25,-252 194.25,-252"/>
<text text-anchor="middle" x="164" y="-231.5" font-family="sans" font-size="10.00">align_shuffled</text>
</g>
<!-- 6&#45;&gt;4 -->
<g id="edge6" class="edge"><title>6&#45;&gt;4</title>
<path fill="none" stroke="grey" stroke-width="2" d="M133.231,-215.907C120.456,-207.021 106.999,-194.883 100,-180 93.1912,-165.521 94.0929,-158.87 100,-144 104.291,-133.199 111.942,-123.324 119.988,-115.102"/>
<polygon fill="grey" stroke="grey" points="122.578,-117.469 127.404,-108.037 117.75,-112.401 122.578,-117.469"/>
</g>
<!-- 6&#45;&gt;5 -->
<g id="edge8" class="edge"><title>6&#45;&gt;5</title>
<path fill="none" stroke="grey" stroke-width="2" d="M164,-215.697C164,-207.983 164,-198.712 164,-190.112"/>
<polygon fill="grey" stroke="grey" points="167.5,-190.104 164,-180.104 160.5,-190.104 167.5,-190.104"/>
</g>
<!-- 7&#45;&gt;6 -->
<g id="edge9" class="edge"><title>7&#45;&gt;6</title>
<path fill="none" stroke="grey" stroke-width="2" d="M164,-287.697C164,-279.983 164,-270.712 164,-262.112"/>
<polygon fill="grey" stroke="grey" points="167.5,-262.104 164,-252.104 160.5,-262.104 167.5,-262.104"/>
</g>
<!-- 8&#45;&gt;0 -->
<g id="edge3" class="edge"><title>8&#45;&gt;0</title>
<path fill="none" stroke="grey" stroke-width="2" d="M273.126,-71.8761C246.717,-60.5347 212.336,-45.7703 186.62,-34.7262"/>
<polygon fill="grey" stroke="grey" points="187.792,-31.4206 177.222,-30.6906 185.03,-37.8526 187.792,-31.4206"/>
</g>
<!-- 9 -->
<g id="node10" class="node"><title>9</title>
<path fill="none" stroke="#567bd8" stroke-width="2" d="M376.25,-180C376.25,-180 287.75,-180 287.75,-180 281.75,-180 275.75,-174 275.75,-168 275.75,-168 275.75,-156 275.75,-156 275.75,-150 281.75,-144 287.75,-144 287.75,-144 376.25,-144 376.25,-144 382.25,-144 388.25,-150 388.25,-156 388.25,-156 388.25,-168 388.25,-168 388.25,-174 382.25,-180 376.25,-180"/>
<text text-anchor="middle" x="332" y="-159.5" font-family="sans" font-size="10.00">ancestral_sequence</text>
</g>
<!-- 9&#45;&gt;8 -->
<g id="edge11" class="edge"><title>9&#45;&gt;8</title>
<path fill="none" stroke="grey" stroke-width="2" d="M327.303,-143.697C325.187,-135.898 322.638,-126.509 320.282,-117.829"/>
<polygon fill="grey" stroke="grey" points="323.64,-116.838 317.643,-108.104 316.884,-118.672 323.64,-116.838"/>
</g>
<!-- 10 -->
<g id="node11" class="node"><title>10</title>
<path fill="none" stroke="#88d856" stroke-width="2" d="M384.25,-252C384.25,-252 343.75,-252 343.75,-252 337.75,-252 331.75,-246 331.75,-240 331.75,-240 331.75,-228 331.75,-228 331.75,-222 337.75,-216 343.75,-216 343.75,-216 384.25,-216 384.25,-216 390.25,-216 396.25,-222 396.25,-228 396.25,-228 396.25,-240 396.25,-240 396.25,-246 390.25,-252 384.25,-252"/>
<text text-anchor="middle" x="364" y="-231.5" font-family="sans" font-size="10.00">build_tree</text>
</g>
<!-- 10&#45;&gt;9 -->
<g id="edge13" class="edge"><title>10&#45;&gt;9</title>
<path fill="none" stroke="grey" stroke-width="2" d="M356.09,-215.697C352.447,-207.728 348.046,-198.1 344.006,-189.264"/>
<polygon fill="grey" stroke="grey" points="347.16,-187.744 339.819,-180.104 340.794,-190.654 347.16,-187.744"/>
</g>
<!-- 11&#45;&gt;9 -->
<g id="edge14" class="edge"><title>11&#45;&gt;9</title>
<path fill="none" stroke="grey" stroke-width="2" d="M320.306,-287.889C319.785,-269.934 319.529,-240.911 322,-216 322.845,-207.483 324.361,-198.291 325.962,-189.992"/>
<polygon fill="grey" stroke="grey" points="329.415,-190.574 327.99,-180.076 322.557,-189.171 329.415,-190.574"/>
</g>
<!-- 11&#45;&gt;10 -->
<g id="edge15" class="edge"><title>11&#45;&gt;10</title>
<path fill="none" stroke="grey" stroke-width="2" d="M331.629,-287.697C336.628,-279.559 342.691,-269.689 348.212,-260.701"/>
<polygon fill="grey" stroke="grey" points="351.241,-262.457 353.493,-252.104 345.277,-258.793 351.241,-262.457"/>
</g>
</g>
</svg>
