<?xml version="1.0" encoding="UTF-8" standalone="no"?>
<!DOCTYPE svg PUBLIC "-//W3C//DTD SVG 1.1//EN"
 "http://www.w3.org/Graphics/SVG/1.1/DTD/svg11.dtd">
<!-- Generated by graphviz version 2.30.1 (20180420.1509)
 -->
<!-- Title: snakemake_dag Pages: 1 -->
<svg width="248pt" height="548pt"
 viewBox="0.00 0.00 248.00 548.00" xmlns="http://www.w3.org/2000/svg" xmlns:xlink="http://www.w3.org/1999/xlink">
<g id="graph0" class="graph" transform="scale(1 1) rotate(0) translate(4 544)">
<title>snakemake_dag</title>
<polygon fill="white" stroke="white" points="-4,5 -4,-544 245,-544 245,5 -4,5"/>
<!-- 0 -->
<g id="node1" class="node"><title>0</title>
<path fill="none" stroke="#5682d8" stroke-width="2" d="M143,-36C143,-36 113,-36 113,-36 107,-36 101,-30 101,-24 101,-24 101,-12 101,-12 101,-6 107,-0 113,-0 113,-0 143,-0 143,-0 149,-0 155,-6 155,-12 155,-12 155,-24 155,-24 155,-30 149,-36 143,-36"/>
<text text-anchor="middle" x="128" y="-15.5" font-family="sans" font-size="10.00">all</text>
</g>
<!-- 1 -->
<g id="node2" class="node"><title>1</title>
<path fill="none" stroke="#d85656" stroke-width="2" d="M86.25,-252C86.25,-252 11.75,-252 11.75,-252 5.75,-252 -0.25,-246 -0.25,-240 -0.25,-240 -0.25,-228 -0.25,-228 -0.25,-222 5.75,-216 11.75,-216 11.75,-216 86.25,-216 86.25,-216 92.25,-216 98.25,-222 98.25,-228 98.25,-228 98.25,-240 98.25,-240 98.25,-246 92.25,-252 86.25,-252"/>
<text text-anchor="middle" x="49" y="-231.5" font-family="sans" font-size="10.00">get_family_sizes</text>
</g>
<!-- 1&#45;&gt;0 -->
<g id="edge2" class="edge"><title>1&#45;&gt;0</title>
<path fill="none" stroke="grey" stroke-width="2" d="M47.191,-215.861C44.7432,-185.113 43.1936,-119.374 68,-72 73.8932,-60.7453 83.2273,-50.7708 92.7939,-42.5972"/>
<polygon fill="grey" stroke="grey" points="95.2018,-45.1527 100.814,-36.1663 90.8228,-39.6915 95.2018,-45.1527"/>
</g>
<!-- 2 -->
<g id="node3" class="node"><title>2</title>
<path fill="none" stroke="#56d89a" stroke-width="2" d="M157.25,-468C157.25,-468 56.75,-468 56.75,-468 50.75,-468 44.75,-462 44.75,-456 44.75,-456 44.75,-444 44.75,-444 44.75,-438 50.75,-432 56.75,-432 56.75,-432 157.25,-432 157.25,-432 163.25,-432 169.25,-438 169.25,-444 169.25,-444 169.25,-456 169.25,-456 169.25,-462 163.25,-468 157.25,-468"/>
<text text-anchor="middle" x="107" y="-447.5" font-family="sans" font-size="10.00">analyze_partis_output</text>
</g>
<!-- 2&#45;&gt;1 -->
<g id="edge4" class="edge"><title>2&#45;&gt;1</title>
<path fill="none" stroke="grey" stroke-width="2" d="M98.8877,-431.618C94.3503,-421.407 88.8503,-408.157 85,-396 70.3933,-349.88 59.3897,-294.532 53.5932,-262.21"/>
<polygon fill="grey" stroke="grey" points="57.0083,-261.421 51.8294,-252.178 50.114,-262.633 57.0083,-261.421"/>
</g>
<!-- 8 -->
<g id="node9" class="node"><title>8</title>
<path fill="none" stroke="#d88556" stroke-width="2" d="M192,-396C192,-396 106,-396 106,-396 100,-396 94,-390 94,-384 94,-384 94,-372 94,-372 94,-366 100,-360 106,-360 106,-360 192,-360 192,-360 198,-360 204,-366 204,-372 204,-372 204,-384 204,-384 204,-390 198,-396 192,-396"/>
<text text-anchor="middle" x="149" y="-375.5" font-family="sans" font-size="10.00">remove_singletons</text>
</g>
<!-- 2&#45;&gt;8 -->
<g id="edge10" class="edge"><title>2&#45;&gt;8</title>
<path fill="none" stroke="grey" stroke-width="2" d="M117.382,-431.697C122.265,-423.559 128.187,-413.689 133.579,-404.701"/>
<polygon fill="grey" stroke="grey" points="136.594,-406.48 138.737,-396.104 130.591,-402.879 136.594,-406.48"/>
</g>
<!-- 3 -->
<g id="node4" class="node"><title>3</title>
<path fill="none" stroke="#9fd856" stroke-width="2" d="M124.25,-540C124.25,-540 89.75,-540 89.75,-540 83.75,-540 77.75,-534 77.75,-528 77.75,-528 77.75,-516 77.75,-516 77.75,-510 83.75,-504 89.75,-504 89.75,-504 124.25,-504 124.25,-504 130.25,-504 136.25,-510 136.25,-516 136.25,-516 136.25,-528 136.25,-528 136.25,-534 130.25,-540 124.25,-540"/>
<text text-anchor="middle" x="107" y="-519.5" font-family="sans" font-size="10.00">simulate</text>
</g>
<!-- 3&#45;&gt;2 -->
<g id="edge5" class="edge"><title>3&#45;&gt;2</title>
<path fill="none" stroke="grey" stroke-width="2" d="M107,-503.697C107,-495.983 107,-486.712 107,-478.112"/>
<polygon fill="grey" stroke="grey" points="110.5,-478.104 107,-468.104 103.5,-478.104 110.5,-478.104"/>
</g>
<!-- 4 -->
<g id="node5" class="node"><title>4</title>
<path fill="none" stroke="#ced856" stroke-width="2" d="M166.25,-108C166.25,-108 89.75,-108 89.75,-108 83.75,-108 77.75,-102 77.75,-96 77.75,-96 77.75,-84 77.75,-84 77.75,-78 83.75,-72 89.75,-72 89.75,-72 166.25,-72 166.25,-72 172.25,-72 178.25,-78 178.25,-84 178.25,-84 178.25,-96 178.25,-96 178.25,-102 172.25,-108 166.25,-108"/>
<text text-anchor="middle" x="128" y="-87.5" font-family="sans" font-size="10.00">get_mptp_values</text>
</g>
<!-- 4&#45;&gt;0 -->
<g id="edge1" class="edge"><title>4&#45;&gt;0</title>
<path fill="none" stroke="grey" stroke-width="2" d="M128,-71.6966C128,-63.9827 128,-54.7125 128,-46.1124"/>
<polygon fill="grey" stroke="grey" points="131.5,-46.1043 128,-36.1043 124.5,-46.1044 131.5,-46.1043"/>
</g>
<!-- 5 -->
<g id="node6" class="node"><title>5</title>
<path fill="none" stroke="#56d8c9" stroke-width="2" d="M155.25,-180C155.25,-180 92.75,-180 92.75,-180 86.75,-180 80.75,-174 80.75,-168 80.75,-168 80.75,-156 80.75,-156 80.75,-150 86.75,-144 92.75,-144 92.75,-144 155.25,-144 155.25,-144 161.25,-144 167.25,-150 167.25,-156 167.25,-156 167.25,-168 167.25,-168 167.25,-174 161.25,-180 155.25,-180"/>
<text text-anchor="middle" x="124" y="-159.5" font-family="sans" font-size="10.00">cut_tree_mptp</text>
</g>
<!-- 5&#45;&gt;4 -->
<g id="edge6" class="edge"><title>5&#45;&gt;4</title>
<path fill="none" stroke="grey" stroke-width="2" d="M124.989,-143.697C125.43,-135.983 125.959,-126.712 126.451,-118.112"/>
<polygon fill="grey" stroke="grey" points="129.946,-118.288 127.023,-108.104 122.958,-117.888 129.946,-118.288"/>
</g>
<!-- 6 -->
<g id="node7" class="node"><title>6</title>
<path fill="none" stroke="#d8b456" stroke-width="2" d="M169.25,-252C169.25,-252 128.75,-252 128.75,-252 122.75,-252 116.75,-246 116.75,-240 116.75,-240 116.75,-228 116.75,-228 116.75,-222 122.75,-216 128.75,-216 128.75,-216 169.25,-216 169.25,-216 175.25,-216 181.25,-222 181.25,-228 181.25,-228 181.25,-240 181.25,-240 181.25,-246 175.25,-252 169.25,-252"/>
<text text-anchor="middle" x="149" y="-231.5" font-family="sans" font-size="10.00">build_tree</text>
</g>
<!-- 6&#45;&gt;5 -->
<g id="edge7" class="edge"><title>6&#45;&gt;5</title>
<path fill="none" stroke="grey" stroke-width="2" d="M142.82,-215.697C140.005,-207.813 136.609,-198.304 133.481,-189.546"/>
<polygon fill="grey" stroke="grey" points="136.768,-188.345 130.109,-180.104 130.176,-190.699 136.768,-188.345"/>
</g>
<!-- 7 -->
<g id="node8" class="node"><title>7</title>
<path fill="none" stroke="#70d856" stroke-width="2" d="M164,-324C164,-324 134,-324 134,-324 128,-324 122,-318 122,-312 122,-312 122,-300 122,-300 122,-294 128,-288 134,-288 134,-288 164,-288 164,-288 170,-288 176,-294 176,-300 176,-300 176,-312 176,-312 176,-318 170,-324 164,-324"/>
<text text-anchor="middle" x="149" y="-303.5" font-family="sans" font-size="10.00">align</text>
</g>
<!-- 7&#45;&gt;6 -->
<g id="edge8" class="edge"><title>7&#45;&gt;6</title>
<path fill="none" stroke="grey" stroke-width="2" d="M149,-287.697C149,-279.983 149,-270.712 149,-262.112"/>
<polygon fill="grey" stroke="grey" points="152.5,-262.104 149,-252.104 145.5,-262.104 152.5,-262.104"/>
</g>
<!-- 8&#45;&gt;7 -->
<g id="edge9" class="edge"><title>8&#45;&gt;7</title>
<path fill="none" stroke="grey" stroke-width="2" d="M149,-359.697C149,-351.983 149,-342.712 149,-334.112"/>
<polygon fill="grey" stroke="grey" points="152.5,-334.104 149,-324.104 145.5,-334.104 152.5,-334.104"/>
</g>
<!-- 9 -->
<g id="node10" class="node"><title>9</title>
<path fill="none" stroke="#56b1d8" stroke-width="2" d="M228,-180C228,-180 198,-180 198,-180 192,-180 186,-174 186,-168 186,-168 186,-156 186,-156 186,-150 192,-144 198,-144 198,-144 228,-144 228,-144 234,-144 240,-150 240,-156 240,-156 240,-168 240,-168 240,-174 234,-180 228,-180"/>
<text text-anchor="middle" x="213" y="-159.5" font-family="sans" font-size="10.00">mixcr</text>
</g>
<!-- 8&#45;&gt;9 -->
<g id="edge11" class="edge"><title>8&#45;&gt;9</title>
<path fill="none" stroke="grey" stroke-width="2" d="M163.356,-359.93C170.941,-350.035 179.744,-336.992 185,-324 203.067,-279.341 209.485,-223.092 211.759,-190.277"/>
<polygon fill="grey" stroke="grey" points="215.265,-190.292 212.382,-180.097 208.278,-189.864 215.265,-190.292"/>
</g>
<!-- 9&#45;&gt;0 -->
<g id="edge3" class="edge"><title>9&#45;&gt;0</title>
<path fill="none" stroke="grey" stroke-width="2" d="M210.841,-143.78C207.856,-124.955 201.144,-94.4812 187,-72 180.126,-61.074 170.374,-51.0426 160.774,-42.7159"/>
<polygon fill="grey" stroke="grey" points="162.751,-39.8096 152.812,-36.1401 158.294,-45.2068 162.751,-39.8096"/>
</g>
</g>
</svg>
