<?xml version="1.0" encoding="UTF-8" standalone="no"?>
<!DOCTYPE svg PUBLIC "-//W3C//DTD SVG 1.1//EN"
 "http://www.w3.org/Graphics/SVG/1.1/DTD/svg11.dtd">
<!-- Generated by graphviz version 2.30.1 (20180420.1509)
 -->
<!-- Title: snakemake_dag Pages: 1 -->
<svg width="267pt" height="476pt"
 viewBox="0.00 0.00 267.00 476.00" xmlns="http://www.w3.org/2000/svg" xmlns:xlink="http://www.w3.org/1999/xlink">
<g id="graph0" class="graph" transform="scale(1 1) rotate(0) translate(4 472)">
<title>snakemake_dag</title>
<polygon fill="white" stroke="white" points="-4,5 -4,-472 264,-472 264,5 -4,5"/>
<!-- 0 -->
<g id="node1" class="node"><title>0</title>
<path fill="none" stroke="#88d856" stroke-width="2" d="M117,-36C117,-36 87,-36 87,-36 81,-36 75,-30 75,-24 75,-24 75,-12 75,-12 75,-6 81,-0 87,-0 87,-0 117,-0 117,-0 123,-0 129,-6 129,-12 129,-12 129,-24 129,-24 129,-30 123,-36 117,-36"/>
<text text-anchor="middle" x="102" y="-15.5" font-family="sans" font-size="10.00">result</text>
</g>
<!-- 1 -->
<g id="node2" class="node"><title>1</title>
<path fill="none" stroke="#569ad8" stroke-width="2" d="M86.25,-252C86.25,-252 11.75,-252 11.75,-252 5.75,-252 -0.25,-246 -0.25,-240 -0.25,-240 -0.25,-228 -0.25,-228 -0.25,-222 5.75,-216 11.75,-216 11.75,-216 86.25,-216 86.25,-216 92.25,-216 98.25,-222 98.25,-228 98.25,-228 98.25,-240 98.25,-240 98.25,-246 92.25,-252 86.25,-252"/>
<text text-anchor="middle" x="49" y="-231.5" font-family="sans" font-size="10.00">get_family_sizes</text>
</g>
<!-- 1&#45;&gt;0 -->
<g id="edge2" class="edge"><title>1&#45;&gt;0</title>
<path fill="none" stroke="grey" stroke-width="2" d="M48.5373,-215.979C48.2552,-185.968 50.0635,-122.08 68,-72 71.4471,-62.3756 76.9128,-52.7103 82.4623,-44.3183"/>
<polygon fill="grey" stroke="grey" points="85.3508,-46.295 88.1947,-36.089 79.6069,-42.2939 85.3508,-46.295"/>
</g>
<!-- 2 -->
<g id="node3" class="node"><title>2</title>
<path fill="none" stroke="#567bd8" stroke-width="2" d="M147.25,-396C147.25,-396 46.75,-396 46.75,-396 40.75,-396 34.75,-390 34.75,-384 34.75,-384 34.75,-372 34.75,-372 34.75,-366 40.75,-360 46.75,-360 46.75,-360 147.25,-360 147.25,-360 153.25,-360 159.25,-366 159.25,-372 159.25,-372 159.25,-384 159.25,-384 159.25,-390 153.25,-396 147.25,-396"/>
<text text-anchor="middle" x="97" y="-375.5" font-family="sans" font-size="10.00">analyze_partis_output</text>
</g>
<!-- 2&#45;&gt;1 -->
<g id="edge3" class="edge"><title>2&#45;&gt;1</title>
<path fill="none" stroke="grey" stroke-width="2" d="M91.2101,-359.871C82.9933,-335.564 67.8683,-290.819 58.1312,-262.013"/>
<polygon fill="grey" stroke="grey" points="61.3285,-260.542 54.8105,-252.189 54.6971,-262.783 61.3285,-260.542"/>
</g>
<!-- 7 -->
<g id="node8" class="node"><title>7</title>
<path fill="none" stroke="#56d86b" stroke-width="2" d="M193.25,-324C193.25,-324 110.75,-324 110.75,-324 104.75,-324 98.75,-318 98.75,-312 98.75,-312 98.75,-300 98.75,-300 98.75,-294 104.75,-288 110.75,-288 110.75,-288 193.25,-288 193.25,-288 199.25,-288 205.25,-294 205.25,-300 205.25,-300 205.25,-312 205.25,-312 205.25,-318 199.25,-324 193.25,-324"/>
<text text-anchor="middle" x="152" y="-303.5" font-family="sans" font-size="10.00">shuffle_sequences</text>
</g>
<!-- 2&#45;&gt;7 -->
<g id="edge9" class="edge"><title>2&#45;&gt;7</title>
<path fill="none" stroke="grey" stroke-width="2" d="M110.596,-359.697C117.123,-351.389 125.068,-341.277 132.247,-332.141"/>
<polygon fill="grey" stroke="grey" points="135.135,-334.13 138.561,-324.104 129.631,-329.805 135.135,-334.13"/>
</g>
<!-- 3 -->
<g id="node4" class="node"><title>3</title>
<path fill="none" stroke="#d89c56" stroke-width="2" d="M114.25,-468C114.25,-468 79.75,-468 79.75,-468 73.75,-468 67.75,-462 67.75,-456 67.75,-456 67.75,-444 67.75,-444 67.75,-438 73.75,-432 79.75,-432 79.75,-432 114.25,-432 114.25,-432 120.25,-432 126.25,-438 126.25,-444 126.25,-444 126.25,-456 126.25,-456 126.25,-462 120.25,-468 114.25,-468"/>
<text text-anchor="middle" x="97" y="-447.5" font-family="sans" font-size="10.00">simulate</text>
</g>
<!-- 3&#45;&gt;2 -->
<g id="edge4" class="edge"><title>3&#45;&gt;2</title>
<path fill="none" stroke="grey" stroke-width="2" d="M97,-431.697C97,-423.983 97,-414.712 97,-406.112"/>
<polygon fill="grey" stroke="grey" points="100.5,-406.104 97,-396.104 93.5001,-406.104 100.5,-406.104"/>
</g>
<!-- 4 -->
<g id="node5" class="node"><title>4</title>
<path fill="none" stroke="#56d8a9" stroke-width="2" d="M223,-108C223,-108 89,-108 89,-108 83,-108 77,-102 77,-96 77,-96 77,-84 77,-84 77,-78 83,-72 89,-72 89,-72 223,-72 223,-72 229,-72 235,-78 235,-84 235,-84 235,-96 235,-96 235,-102 229,-108 223,-108"/>
<text text-anchor="middle" x="156" y="-87.5" font-family="sans" font-size="10.00">ancestral_sequence_shuffled</text>
</g>
<!-- 4&#45;&gt;0 -->
<g id="edge1" class="edge"><title>4&#45;&gt;0</title>
<path fill="none" stroke="grey" stroke-width="2" d="M142.652,-71.6966C136.243,-63.3893 128.442,-53.2771 121.394,-44.1407"/>
<polygon fill="grey" stroke="grey" points="124.074,-41.8844 115.195,-36.1043 118.532,-46.16 124.074,-41.8844"/>
</g>
<!-- 5 -->
<g id="node6" class="node"><title>5</title>
<path fill="none" stroke="#d87556" stroke-width="2" d="M247,-180C247,-180 161,-180 161,-180 155,-180 149,-174 149,-168 149,-168 149,-156 149,-156 149,-150 155,-144 161,-144 161,-144 247,-144 247,-144 253,-144 259,-150 259,-156 259,-156 259,-168 259,-168 259,-174 253,-180 247,-180"/>
<text text-anchor="middle" x="204" y="-159.5" font-family="sans" font-size="10.00">build_tree_shuffled</text>
</g>
<!-- 5&#45;&gt;4 -->
<g id="edge5" class="edge"><title>5&#45;&gt;4</title>
<path fill="none" stroke="grey" stroke-width="2" d="M192.135,-143.697C186.497,-135.474 179.646,-125.483 173.431,-116.421"/>
<polygon fill="grey" stroke="grey" points="176.271,-114.372 167.729,-108.104 170.497,-118.331 176.271,-114.372"/>
</g>
<!-- 6 -->
<g id="node7" class="node"><title>6</title>
<path fill="none" stroke="#afd856" stroke-width="2" d="M189.25,-252C189.25,-252 128.75,-252 128.75,-252 122.75,-252 116.75,-246 116.75,-240 116.75,-240 116.75,-228 116.75,-228 116.75,-222 122.75,-216 128.75,-216 128.75,-216 189.25,-216 189.25,-216 195.25,-216 201.25,-222 201.25,-228 201.25,-228 201.25,-240 201.25,-240 201.25,-246 195.25,-252 189.25,-252"/>
<text text-anchor="middle" x="159" y="-231.5" font-family="sans" font-size="10.00">align_shuffled</text>
</g>
<!-- 6&#45;&gt;4 -->
<g id="edge6" class="edge"><title>6&#45;&gt;4</title>
<path fill="none" stroke="grey" stroke-width="2" d="M151.107,-215.745C146.893,-205.577 142.143,-192.327 140,-180 137.26,-164.236 137.663,-159.828 140,-144 141.278,-135.347 143.669,-126.149 146.22,-117.887"/>
<polygon fill="grey" stroke="grey" points="149.55,-118.965 149.348,-108.372 142.9,-116.779 149.55,-118.965"/>
</g>
<!-- 6&#45;&gt;5 -->
<g id="edge7" class="edge"><title>6&#45;&gt;5</title>
<path fill="none" stroke="grey" stroke-width="2" d="M170.124,-215.697C175.355,-207.559 181.7,-197.689 187.478,-188.701"/>
<polygon fill="grey" stroke="grey" points="190.541,-190.409 193.004,-180.104 184.653,-186.623 190.541,-190.409"/>
</g>
<!-- 7&#45;&gt;6 -->
<g id="edge8" class="edge"><title>7&#45;&gt;6</title>
<path fill="none" stroke="grey" stroke-width="2" d="M153.73,-287.697C154.502,-279.983 155.429,-270.712 156.289,-262.112"/>
<polygon fill="grey" stroke="grey" points="159.777,-262.403 157.29,-252.104 152.812,-261.706 159.777,-262.403"/>
</g>
</g>
</svg>
