<?xml version="1.0" encoding="UTF-8" standalone="no"?>
<!DOCTYPE svg PUBLIC "-//W3C//DTD SVG 1.1//EN"
 "http://www.w3.org/Graphics/SVG/1.1/DTD/svg11.dtd">
<!-- Generated by graphviz version 2.30.1 (20180420.1509)
 -->
<!-- Title: snakemake_dag Pages: 1 -->
<svg width="418pt" height="476pt"
 viewBox="0.00 0.00 418.00 476.00" xmlns="http://www.w3.org/2000/svg" xmlns:xlink="http://www.w3.org/1999/xlink">
<g id="graph0" class="graph" transform="scale(1 1) rotate(0) translate(4 472)">
<title>snakemake_dag</title>
<polygon fill="white" stroke="white" points="-4,5 -4,-472 415,-472 415,5 -4,5"/>
<!-- 0 -->
<g id="node1" class="node"><title>0</title>
<path fill="none" stroke="#97d856" stroke-width="2" d="M220,-36C220,-36 190,-36 190,-36 184,-36 178,-30 178,-24 178,-24 178,-12 178,-12 178,-6 184,-0 190,-0 190,-0 220,-0 220,-0 226,-0 232,-6 232,-12 232,-12 232,-24 232,-24 232,-30 226,-36 220,-36"/>
<text text-anchor="middle" x="205" y="-15.5" font-family="sans" font-size="10.00">result</text>
</g>
<!-- 1 -->
<g id="node2" class="node"><title>1</title>
<path fill="none" stroke="#569ad8" stroke-width="2" d="M121.25,-108C121.25,-108 80.75,-108 80.75,-108 74.75,-108 68.75,-102 68.75,-96 68.75,-96 68.75,-84 68.75,-84 68.75,-78 74.75,-72 80.75,-72 80.75,-72 121.25,-72 121.25,-72 127.25,-72 133.25,-78 133.25,-84 133.25,-84 133.25,-96 133.25,-96 133.25,-102 127.25,-108 121.25,-108"/>
<text text-anchor="middle" x="101" y="-87.5" font-family="sans" font-size="10.00">build_tree</text>
</g>
<!-- 1&#45;&gt;0 -->
<g id="edge1" class="edge"><title>1&#45;&gt;0</title>
<path fill="none" stroke="grey" stroke-width="2" d="M126.441,-71.8761C139.787,-62.8931 156.324,-51.7625 170.778,-42.0341"/>
<polygon fill="grey" stroke="grey" points="173.119,-44.6771 179.461,-36.1898 169.211,-38.87 173.119,-44.6771"/>
</g>
<!-- 2 -->
<g id="node3" class="node"><title>2</title>
<path fill="none" stroke="#56d8d8" stroke-width="2" d="M113,-180C113,-180 45,-180 45,-180 39,-180 33,-174 33,-168 33,-168 33,-156 33,-156 33,-150 39,-144 45,-144 45,-144 113,-144 113,-144 119,-144 125,-150 125,-156 125,-156 125,-168 125,-168 125,-174 119,-180 113,-180"/>
<text text-anchor="middle" x="79" y="-159.5" font-family="sans" font-size="10.00">align_partitions</text>
</g>
<!-- 2&#45;&gt;1 -->
<g id="edge4" class="edge"><title>2&#45;&gt;1</title>
<path fill="none" stroke="grey" stroke-width="2" d="M84.4382,-143.697C86.8892,-135.898 89.8402,-126.509 92.568,-117.829"/>
<polygon fill="grey" stroke="grey" points="95.965,-118.694 95.6244,-108.104 89.287,-116.595 95.965,-118.694"/>
</g>
<!-- 3 -->
<g id="node4" class="node"><title>3</title>
<path fill="none" stroke="#59d856" stroke-width="2" d="M112.25,-252C112.25,-252 11.75,-252 11.75,-252 5.75,-252 -0.25,-246 -0.25,-240 -0.25,-240 -0.25,-228 -0.25,-228 -0.25,-222 5.75,-216 11.75,-216 11.75,-216 112.25,-216 112.25,-216 118.25,-216 124.25,-222 124.25,-228 124.25,-228 124.25,-240 124.25,-240 124.25,-246 118.25,-252 112.25,-252"/>
<text text-anchor="middle" x="62" y="-231.5" font-family="sans" font-size="10.00">analyze_partis_output</text>
</g>
<!-- 3&#45;&gt;2 -->
<g id="edge5" class="edge"><title>3&#45;&gt;2</title>
<path fill="none" stroke="grey" stroke-width="2" d="M66.2022,-215.697C68.0962,-207.898 70.3765,-198.509 72.4843,-189.829"/>
<polygon fill="grey" stroke="grey" points="75.8872,-190.648 74.8461,-180.104 69.0849,-188.996 75.8872,-190.648"/>
</g>
<!-- 4 -->
<g id="node5" class="node"><title>4</title>
<path fill="none" stroke="#d85656" stroke-width="2" d="M79.25,-324C79.25,-324 44.75,-324 44.75,-324 38.75,-324 32.75,-318 32.75,-312 32.75,-312 32.75,-300 32.75,-300 32.75,-294 38.75,-288 44.75,-288 44.75,-288 79.25,-288 79.25,-288 85.25,-288 91.25,-294 91.25,-300 91.25,-300 91.25,-312 91.25,-312 91.25,-318 85.25,-324 79.25,-324"/>
<text text-anchor="middle" x="62" y="-303.5" font-family="sans" font-size="10.00">simulate</text>
</g>
<!-- 4&#45;&gt;3 -->
<g id="edge6" class="edge"><title>4&#45;&gt;3</title>
<path fill="none" stroke="grey" stroke-width="2" d="M62,-287.697C62,-279.983 62,-270.712 62,-262.112"/>
<polygon fill="grey" stroke="grey" points="65.5001,-262.104 62,-252.104 58.5001,-262.104 65.5001,-262.104"/>
</g>
<!-- 5 -->
<g id="node6" class="node"><title>5</title>
<path fill="none" stroke="#d89556" stroke-width="2" d="M103.25,-396C103.25,-396 20.75,-396 20.75,-396 14.75,-396 8.75,-390 8.75,-384 8.75,-384 8.75,-372 8.75,-372 8.75,-366 14.75,-360 20.75,-360 20.75,-360 103.25,-360 103.25,-360 109.25,-360 115.25,-366 115.25,-372 115.25,-372 115.25,-384 115.25,-384 115.25,-390 109.25,-396 103.25,-396"/>
<text text-anchor="middle" x="62" y="-375.5" font-family="sans" font-size="10.00">cache_parameters</text>
</g>
<!-- 5&#45;&gt;4 -->
<g id="edge7" class="edge"><title>5&#45;&gt;4</title>
<path fill="none" stroke="grey" stroke-width="2" d="M62,-359.697C62,-351.983 62,-342.712 62,-334.112"/>
<polygon fill="grey" stroke="grey" points="65.5001,-334.104 62,-324.104 58.5001,-334.104 65.5001,-334.104"/>
</g>
<!-- 6 -->
<g id="node7" class="node"><title>6</title>
<path fill="none" stroke="#d6d856" stroke-width="2" d="M88.25,-468C88.25,-468 35.75,-468 35.75,-468 29.75,-468 23.75,-462 23.75,-456 23.75,-456 23.75,-444 23.75,-444 23.75,-438 29.75,-432 35.75,-432 35.75,-432 88.25,-432 88.25,-432 94.25,-432 100.25,-438 100.25,-444 100.25,-444 100.25,-456 100.25,-456 100.25,-462 94.25,-468 88.25,-468"/>
<text text-anchor="middle" x="62" y="-453" font-family="sans" font-size="10.00">tsv_to_fasta</text>
<text text-anchor="middle" x="62" y="-442" font-family="sans" font-size="10.00">d: nielson3</text>
</g>
<!-- 6&#45;&gt;5 -->
<g id="edge8" class="edge"><title>6&#45;&gt;5</title>
<path fill="none" stroke="grey" stroke-width="2" d="M62,-431.697C62,-423.983 62,-414.712 62,-406.112"/>
<polygon fill="grey" stroke="grey" points="65.5001,-406.104 62,-396.104 58.5001,-406.104 65.5001,-406.104"/>
</g>
<!-- 7 -->
<g id="node8" class="node"><title>7</title>
<path fill="none" stroke="#569ad8" stroke-width="2" d="M225.25,-108C225.25,-108 184.75,-108 184.75,-108 178.75,-108 172.75,-102 172.75,-96 172.75,-96 172.75,-84 172.75,-84 172.75,-78 178.75,-72 184.75,-72 184.75,-72 225.25,-72 225.25,-72 231.25,-72 237.25,-78 237.25,-84 237.25,-84 237.25,-96 237.25,-96 237.25,-102 231.25,-108 225.25,-108"/>
<text text-anchor="middle" x="205" y="-87.5" font-family="sans" font-size="10.00">build_tree</text>
</g>
<!-- 7&#45;&gt;0 -->
<g id="edge2" class="edge"><title>7&#45;&gt;0</title>
<path fill="none" stroke="grey" stroke-width="2" d="M205,-71.6966C205,-63.9827 205,-54.7125 205,-46.1124"/>
<polygon fill="grey" stroke="grey" points="208.5,-46.1043 205,-36.1043 201.5,-46.1044 208.5,-46.1043"/>
</g>
<!-- 8 -->
<g id="node9" class="node"><title>8</title>
<path fill="none" stroke="#56d8d8" stroke-width="2" d="M239,-180C239,-180 171,-180 171,-180 165,-180 159,-174 159,-168 159,-168 159,-156 159,-156 159,-150 165,-144 171,-144 171,-144 239,-144 239,-144 245,-144 251,-150 251,-156 251,-156 251,-168 251,-168 251,-174 245,-180 239,-180"/>
<text text-anchor="middle" x="205" y="-159.5" font-family="sans" font-size="10.00">align_partitions</text>
</g>
<!-- 8&#45;&gt;7 -->
<g id="edge9" class="edge"><title>8&#45;&gt;7</title>
<path fill="none" stroke="grey" stroke-width="2" d="M205,-143.697C205,-135.983 205,-126.712 205,-118.112"/>
<polygon fill="grey" stroke="grey" points="208.5,-118.104 205,-108.104 201.5,-118.104 208.5,-118.104"/>
</g>
<!-- 9 -->
<g id="node10" class="node"><title>9</title>
<path fill="none" stroke="#59d856" stroke-width="2" d="M255.25,-252C255.25,-252 154.75,-252 154.75,-252 148.75,-252 142.75,-246 142.75,-240 142.75,-240 142.75,-228 142.75,-228 142.75,-222 148.75,-216 154.75,-216 154.75,-216 255.25,-216 255.25,-216 261.25,-216 267.25,-222 267.25,-228 267.25,-228 267.25,-240 267.25,-240 267.25,-246 261.25,-252 255.25,-252"/>
<text text-anchor="middle" x="205" y="-231.5" font-family="sans" font-size="10.00">analyze_partis_output</text>
</g>
<!-- 9&#45;&gt;8 -->
<g id="edge10" class="edge"><title>9&#45;&gt;8</title>
<path fill="none" stroke="grey" stroke-width="2" d="M205,-215.697C205,-207.983 205,-198.712 205,-190.112"/>
<polygon fill="grey" stroke="grey" points="208.5,-190.104 205,-180.104 201.5,-190.104 208.5,-190.104"/>
</g>
<!-- 10 -->
<g id="node11" class="node"><title>10</title>
<path fill="none" stroke="#d85656" stroke-width="2" d="M222.25,-324C222.25,-324 187.75,-324 187.75,-324 181.75,-324 175.75,-318 175.75,-312 175.75,-312 175.75,-300 175.75,-300 175.75,-294 181.75,-288 187.75,-288 187.75,-288 222.25,-288 222.25,-288 228.25,-288 234.25,-294 234.25,-300 234.25,-300 234.25,-312 234.25,-312 234.25,-318 228.25,-324 222.25,-324"/>
<text text-anchor="middle" x="205" y="-303.5" font-family="sans" font-size="10.00">simulate</text>
</g>
<!-- 10&#45;&gt;9 -->
<g id="edge11" class="edge"><title>10&#45;&gt;9</title>
<path fill="none" stroke="grey" stroke-width="2" d="M205,-287.697C205,-279.983 205,-270.712 205,-262.112"/>
<polygon fill="grey" stroke="grey" points="208.5,-262.104 205,-252.104 201.5,-262.104 208.5,-262.104"/>
</g>
<!-- 11 -->
<g id="node12" class="node"><title>11</title>
<path fill="none" stroke="#d89556" stroke-width="2" d="M246.25,-396C246.25,-396 163.75,-396 163.75,-396 157.75,-396 151.75,-390 151.75,-384 151.75,-384 151.75,-372 151.75,-372 151.75,-366 157.75,-360 163.75,-360 163.75,-360 246.25,-360 246.25,-360 252.25,-360 258.25,-366 258.25,-372 258.25,-372 258.25,-384 258.25,-384 258.25,-390 252.25,-396 246.25,-396"/>
<text text-anchor="middle" x="205" y="-375.5" font-family="sans" font-size="10.00">cache_parameters</text>
</g>
<!-- 11&#45;&gt;10 -->
<g id="edge12" class="edge"><title>11&#45;&gt;10</title>
<path fill="none" stroke="grey" stroke-width="2" d="M205,-359.697C205,-351.983 205,-342.712 205,-334.112"/>
<polygon fill="grey" stroke="grey" points="208.5,-334.104 205,-324.104 201.5,-334.104 208.5,-334.104"/>
</g>
<!-- 12 -->
<g id="node13" class="node"><title>12</title>
<path fill="none" stroke="#d6d856" stroke-width="2" d="M231.25,-468C231.25,-468 178.75,-468 178.75,-468 172.75,-468 166.75,-462 166.75,-456 166.75,-456 166.75,-444 166.75,-444 166.75,-438 172.75,-432 178.75,-432 178.75,-432 231.25,-432 231.25,-432 237.25,-432 243.25,-438 243.25,-444 243.25,-444 243.25,-456 243.25,-456 243.25,-462 237.25,-468 231.25,-468"/>
<text text-anchor="middle" x="205" y="-453" font-family="sans" font-size="10.00">tsv_to_fasta</text>
<text text-anchor="middle" x="205" y="-442" font-family="sans" font-size="10.00">d: nielson2</text>
</g>
<!-- 12&#45;&gt;11 -->
<g id="edge13" class="edge"><title>12&#45;&gt;11</title>
<path fill="none" stroke="grey" stroke-width="2" d="M205,-431.697C205,-423.983 205,-414.712 205,-406.112"/>
<polygon fill="grey" stroke="grey" points="208.5,-406.104 205,-396.104 201.5,-406.104 208.5,-406.104"/>
</g>
<!-- 13 -->
<g id="node14" class="node"><title>13</title>
<path fill="none" stroke="#569ad8" stroke-width="2" d="M329.25,-108C329.25,-108 288.75,-108 288.75,-108 282.75,-108 276.75,-102 276.75,-96 276.75,-96 276.75,-84 276.75,-84 276.75,-78 282.75,-72 288.75,-72 288.75,-72 329.25,-72 329.25,-72 335.25,-72 341.25,-78 341.25,-84 341.25,-84 341.25,-96 341.25,-96 341.25,-102 335.25,-108 329.25,-108"/>
<text text-anchor="middle" x="309" y="-87.5" font-family="sans" font-size="10.00">build_tree</text>
</g>
<!-- 13&#45;&gt;0 -->
<g id="edge3" class="edge"><title>13&#45;&gt;0</title>
<path fill="none" stroke="grey" stroke-width="2" d="M283.559,-71.8761C270.213,-62.8931 253.676,-51.7625 239.222,-42.0341"/>
<polygon fill="grey" stroke="grey" points="240.789,-38.87 230.539,-36.1898 236.881,-44.6771 240.789,-38.87"/>
</g>
<!-- 14 -->
<g id="node15" class="node"><title>14</title>
<path fill="none" stroke="#56d8d8" stroke-width="2" d="M365,-180C365,-180 297,-180 297,-180 291,-180 285,-174 285,-168 285,-168 285,-156 285,-156 285,-150 291,-144 297,-144 297,-144 365,-144 365,-144 371,-144 377,-150 377,-156 377,-156 377,-168 377,-168 377,-174 371,-180 365,-180"/>
<text text-anchor="middle" x="331" y="-159.5" font-family="sans" font-size="10.00">align_partitions</text>
</g>
<!-- 14&#45;&gt;13 -->
<g id="edge14" class="edge"><title>14&#45;&gt;13</title>
<path fill="none" stroke="grey" stroke-width="2" d="M325.562,-143.697C323.111,-135.898 320.16,-126.509 317.432,-117.829"/>
<polygon fill="grey" stroke="grey" points="320.713,-116.595 314.376,-108.104 314.035,-118.694 320.713,-116.595"/>
</g>
<!-- 15 -->
<g id="node16" class="node"><title>15</title>
<path fill="none" stroke="#59d856" stroke-width="2" d="M398.25,-252C398.25,-252 297.75,-252 297.75,-252 291.75,-252 285.75,-246 285.75,-240 285.75,-240 285.75,-228 285.75,-228 285.75,-222 291.75,-216 297.75,-216 297.75,-216 398.25,-216 398.25,-216 404.25,-216 410.25,-222 410.25,-228 410.25,-228 410.25,-240 410.25,-240 410.25,-246 404.25,-252 398.25,-252"/>
<text text-anchor="middle" x="348" y="-231.5" font-family="sans" font-size="10.00">analyze_partis_output</text>
</g>
<!-- 15&#45;&gt;14 -->
<g id="edge15" class="edge"><title>15&#45;&gt;14</title>
<path fill="none" stroke="grey" stroke-width="2" d="M343.798,-215.697C341.904,-207.898 339.623,-198.509 337.516,-189.829"/>
<polygon fill="grey" stroke="grey" points="340.915,-188.996 335.154,-180.104 334.113,-190.648 340.915,-188.996"/>
</g>
<!-- 16 -->
<g id="node17" class="node"><title>16</title>
<path fill="none" stroke="#d85656" stroke-width="2" d="M365.25,-324C365.25,-324 330.75,-324 330.75,-324 324.75,-324 318.75,-318 318.75,-312 318.75,-312 318.75,-300 318.75,-300 318.75,-294 324.75,-288 330.75,-288 330.75,-288 365.25,-288 365.25,-288 371.25,-288 377.25,-294 377.25,-300 377.25,-300 377.25,-312 377.25,-312 377.25,-318 371.25,-324 365.25,-324"/>
<text text-anchor="middle" x="348" y="-303.5" font-family="sans" font-size="10.00">simulate</text>
</g>
<!-- 16&#45;&gt;15 -->
<g id="edge16" class="edge"><title>16&#45;&gt;15</title>
<path fill="none" stroke="grey" stroke-width="2" d="M348,-287.697C348,-279.983 348,-270.712 348,-262.112"/>
<polygon fill="grey" stroke="grey" points="351.5,-262.104 348,-252.104 344.5,-262.104 351.5,-262.104"/>
</g>
<!-- 17 -->
<g id="node18" class="node"><title>17</title>
<path fill="none" stroke="#d89556" stroke-width="2" d="M389.25,-396C389.25,-396 306.75,-396 306.75,-396 300.75,-396 294.75,-390 294.75,-384 294.75,-384 294.75,-372 294.75,-372 294.75,-366 300.75,-360 306.75,-360 306.75,-360 389.25,-360 389.25,-360 395.25,-360 401.25,-366 401.25,-372 401.25,-372 401.25,-384 401.25,-384 401.25,-390 395.25,-396 389.25,-396"/>
<text text-anchor="middle" x="348" y="-375.5" font-family="sans" font-size="10.00">cache_parameters</text>
</g>
<!-- 17&#45;&gt;16 -->
<g id="edge17" class="edge"><title>17&#45;&gt;16</title>
<path fill="none" stroke="grey" stroke-width="2" d="M348,-359.697C348,-351.983 348,-342.712 348,-334.112"/>
<polygon fill="grey" stroke="grey" points="351.5,-334.104 348,-324.104 344.5,-334.104 351.5,-334.104"/>
</g>
<!-- 18 -->
<g id="node19" class="node"><title>18</title>
<path fill="none" stroke="#d6d856" stroke-width="2" d="M374.25,-468C374.25,-468 321.75,-468 321.75,-468 315.75,-468 309.75,-462 309.75,-456 309.75,-456 309.75,-444 309.75,-444 309.75,-438 315.75,-432 321.75,-432 321.75,-432 374.25,-432 374.25,-432 380.25,-432 386.25,-438 386.25,-444 386.25,-444 386.25,-456 386.25,-456 386.25,-462 380.25,-468 374.25,-468"/>
<text text-anchor="middle" x="348" y="-453" font-family="sans" font-size="10.00">tsv_to_fasta</text>
<text text-anchor="middle" x="348" y="-442" font-family="sans" font-size="10.00">d: nielson1</text>
</g>
<!-- 18&#45;&gt;17 -->
<g id="edge18" class="edge"><title>18&#45;&gt;17</title>
<path fill="none" stroke="grey" stroke-width="2" d="M348,-431.697C348,-423.983 348,-414.712 348,-406.112"/>
<polygon fill="grey" stroke="grey" points="351.5,-406.104 348,-396.104 344.5,-406.104 351.5,-406.104"/>
</g>
</g>
</svg>
