<?xml version="1.0" encoding="UTF-8" standalone="no"?>
<!DOCTYPE svg PUBLIC "-//W3C//DTD SVG 1.1//EN"
 "http://www.w3.org/Graphics/SVG/1.1/DTD/svg11.dtd">
<!-- Generated by graphviz version 2.30.1 (20180420.1509)
 -->
<!-- Title: snakemake_dag Pages: 1 -->
<svg width="208pt" height="404pt"
 viewBox="0.00 0.00 208.04 404.00" xmlns="http://www.w3.org/2000/svg" xmlns:xlink="http://www.w3.org/1999/xlink">
<g id="graph0" class="graph" transform="scale(1 1) rotate(0) translate(4 400)">
<title>snakemake_dag</title>
<polygon fill="white" stroke="white" points="-4,5 -4,-400 205.039,-400 205.039,5 -4,5"/>
<!-- 0 -->
<g id="node1" class="node"><title>0</title>
<path fill="none" stroke="#afd856" stroke-width="2" d="M56.0388,-36C56.0388,-36 26.0388,-36 26.0388,-36 20.0388,-36 14.0388,-30 14.0388,-24 14.0388,-24 14.0388,-12 14.0388,-12 14.0388,-6 20.0388,-0 26.0388,-0 26.0388,-0 56.0388,-0 56.0388,-0 62.0388,-0 68.0388,-6 68.0388,-12 68.0388,-12 68.0388,-24 68.0388,-24 68.0388,-30 62.0388,-36 56.0388,-36"/>
<text text-anchor="middle" x="41.0388" y="-15.5" font-family="sans" font-size="10.00">result</text>
</g>
<!-- 1 -->
<g id="node2" class="node"><title>1</title>
<path fill="none" stroke="#d85656" stroke-width="2" d="M71.2888,-180C71.2888,-180 30.7888,-180 30.7888,-180 24.7888,-180 18.7888,-174 18.7888,-168 18.7888,-168 18.7888,-156 18.7888,-156 18.7888,-150 24.7888,-144 30.7888,-144 30.7888,-144 71.2888,-144 71.2888,-144 77.2888,-144 83.2888,-150 83.2888,-156 83.2888,-156 83.2888,-168 83.2888,-168 83.2888,-174 77.2888,-180 71.2888,-180"/>
<text text-anchor="middle" x="51.0388" y="-159.5" font-family="sans" font-size="10.00">build_tree</text>
</g>
<!-- 1&#45;&gt;0 -->
<g id="edge1" class="edge"><title>1&#45;&gt;0</title>
<path fill="none" stroke="grey" stroke-width="2" d="M29.7722,-143.701C19.9298,-134.305 9.27538,-121.798 4.0388,-108 -1.63852,-93.0411 -0.761758,-87.2629 4.0388,-72 7.13742,-62.1483 12.79,-52.5302 18.7597,-44.2511"/>
<polygon fill="grey" stroke="grey" points="21.6681,-46.2111 25.0019,-36.1544 16.1243,-41.9371 21.6681,-46.2111"/>
</g>
<!-- 5 -->
<g id="node6" class="node"><title>5</title>
<path fill="none" stroke="#70d856" stroke-width="2" d="M188.289,-108C188.289,-108 99.7888,-108 99.7888,-108 93.7888,-108 87.7888,-102 87.7888,-96 87.7888,-96 87.7888,-84 87.7888,-84 87.7888,-78 93.7888,-72 99.7888,-72 99.7888,-72 188.289,-72 188.289,-72 194.289,-72 200.289,-78 200.289,-84 200.289,-84 200.289,-96 200.289,-96 200.289,-102 194.289,-108 188.289,-108"/>
<text text-anchor="middle" x="144.039" y="-87.5" font-family="sans" font-size="10.00">ancestral_sequence</text>
</g>
<!-- 1&#45;&gt;5 -->
<g id="edge7" class="edge"><title>1&#45;&gt;5</title>
<path fill="none" stroke="grey" stroke-width="2" d="M74.0276,-143.697C85.8527,-134.796 100.431,-123.823 113.217,-114.199"/>
<polygon fill="grey" stroke="grey" points="115.43,-116.915 121.314,-108.104 111.22,-111.322 115.43,-116.915"/>
</g>
<!-- 6 -->
<g id="node7" class="node"><title>6</title>
<path fill="none" stroke="#5692d8" stroke-width="2" d="M57.0388,-108C57.0388,-108 25.0388,-108 25.0388,-108 19.0388,-108 13.0388,-102 13.0388,-96 13.0388,-96 13.0388,-84 13.0388,-84 13.0388,-78 19.0388,-72 25.0388,-72 25.0388,-72 57.0388,-72 57.0388,-72 63.0388,-72 69.0388,-78 69.0388,-84 69.0388,-84 69.0388,-96 69.0388,-96 69.0388,-102 63.0388,-108 57.0388,-108"/>
<text text-anchor="middle" x="41.0388" y="-87.5" font-family="sans" font-size="10.00">cut_tree</text>
</g>
<!-- 1&#45;&gt;6 -->
<g id="edge9" class="edge"><title>1&#45;&gt;6</title>
<path fill="none" stroke="grey" stroke-width="2" d="M48.5669,-143.697C47.4649,-135.983 46.1406,-126.712 44.912,-118.112"/>
<polygon fill="grey" stroke="grey" points="48.3614,-117.509 43.4823,-108.104 41.4318,-118.499 48.3614,-117.509"/>
</g>
<!-- 2 -->
<g id="node3" class="node"><title>2</title>
<path fill="none" stroke="#56d873" stroke-width="2" d="M126.039,-252C126.039,-252 58.0388,-252 58.0388,-252 52.0388,-252 46.0388,-246 46.0388,-240 46.0388,-240 46.0388,-228 46.0388,-228 46.0388,-222 52.0388,-216 58.0388,-216 58.0388,-216 126.039,-216 126.039,-216 132.039,-216 138.039,-222 138.039,-228 138.039,-228 138.039,-240 138.039,-240 138.039,-246 132.039,-252 126.039,-252"/>
<text text-anchor="middle" x="92.0388" y="-231.5" font-family="sans" font-size="10.00">align_partitions</text>
</g>
<!-- 2&#45;&gt;1 -->
<g id="edge4" class="edge"><title>2&#45;&gt;1</title>
<path fill="none" stroke="grey" stroke-width="2" d="M81.904,-215.697C77.1872,-207.644 71.477,-197.894 66.2571,-188.982"/>
<polygon fill="grey" stroke="grey" points="69.1312,-186.964 61.0571,-180.104 63.091,-190.502 69.1312,-186.964"/>
</g>
<!-- 2&#45;&gt;5 -->
<g id="edge8" class="edge"><title>2&#45;&gt;5</title>
<path fill="none" stroke="grey" stroke-width="2" d="M98.3112,-215.871C107.252,-191.457 123.742,-146.426 134.285,-117.635"/>
<polygon fill="grey" stroke="grey" points="137.592,-118.783 137.744,-108.189 131.019,-116.376 137.592,-118.783"/>
</g>
<!-- 3 -->
<g id="node4" class="node"><title>3</title>
<path fill="none" stroke="#56d8a9" stroke-width="2" d="M142.289,-324C142.289,-324 41.7888,-324 41.7888,-324 35.7888,-324 29.7888,-318 29.7888,-312 29.7888,-312 29.7888,-300 29.7888,-300 29.7888,-294 35.7888,-288 41.7888,-288 41.7888,-288 142.289,-288 142.289,-288 148.289,-288 154.289,-294 154.289,-300 154.289,-300 154.289,-312 154.289,-312 154.289,-318 148.289,-324 142.289,-324"/>
<text text-anchor="middle" x="92.0388" y="-303.5" font-family="sans" font-size="10.00">analyze_partis_output</text>
</g>
<!-- 3&#45;&gt;2 -->
<g id="edge5" class="edge"><title>3&#45;&gt;2</title>
<path fill="none" stroke="grey" stroke-width="2" d="M92.0388,-287.697C92.0388,-279.983 92.0388,-270.712 92.0388,-262.112"/>
<polygon fill="grey" stroke="grey" points="95.5389,-262.104 92.0388,-252.104 88.5389,-262.104 95.5389,-262.104"/>
</g>
<!-- 4 -->
<g id="node5" class="node"><title>4</title>
<path fill="none" stroke="#d88d56" stroke-width="2" d="M109.289,-396C109.289,-396 74.7888,-396 74.7888,-396 68.7888,-396 62.7888,-390 62.7888,-384 62.7888,-384 62.7888,-372 62.7888,-372 62.7888,-366 68.7888,-360 74.7888,-360 74.7888,-360 109.289,-360 109.289,-360 115.289,-360 121.289,-366 121.289,-372 121.289,-372 121.289,-384 121.289,-384 121.289,-390 115.289,-396 109.289,-396"/>
<text text-anchor="middle" x="92.0388" y="-375.5" font-family="sans" font-size="10.00">simulate</text>
</g>
<!-- 4&#45;&gt;3 -->
<g id="edge6" class="edge"><title>4&#45;&gt;3</title>
<path fill="none" stroke="grey" stroke-width="2" d="M92.0388,-359.697C92.0388,-351.983 92.0388,-342.712 92.0388,-334.112"/>
<polygon fill="grey" stroke="grey" points="95.5389,-334.104 92.0388,-324.104 88.5389,-334.104 95.5389,-334.104"/>
</g>
<!-- 5&#45;&gt;0 -->
<g id="edge2" class="edge"><title>5&#45;&gt;0</title>
<path fill="none" stroke="grey" stroke-width="2" d="M118.842,-71.8761C105.624,-62.8931 89.2465,-51.7625 74.9319,-42.0341"/>
<polygon fill="grey" stroke="grey" points="76.5704,-38.9159 66.3323,-36.1898 72.6357,-44.7055 76.5704,-38.9159"/>
</g>
<!-- 6&#45;&gt;0 -->
<g id="edge3" class="edge"><title>6&#45;&gt;0</title>
<path fill="none" stroke="grey" stroke-width="2" d="M41.0388,-71.6966C41.0388,-63.9827 41.0388,-54.7125 41.0388,-46.1124"/>
<polygon fill="grey" stroke="grey" points="44.5389,-46.1043 41.0388,-36.1043 37.5389,-46.1044 44.5389,-46.1043"/>
</g>
</g>
</svg>
