<?xml version="1.0" encoding="UTF-8" standalone="no"?>
<!DOCTYPE svg PUBLIC "-//W3C//DTD SVG 1.1//EN"
 "http://www.w3.org/Graphics/SVG/1.1/DTD/svg11.dtd">
<!-- Generated by graphviz version 2.30.1 (20180420.1509)
 -->
<!-- Title: snakemake_dag Pages: 1 -->
<svg width="276pt" height="404pt"
 viewBox="0.00 0.00 276.00 404.00" xmlns="http://www.w3.org/2000/svg" xmlns:xlink="http://www.w3.org/1999/xlink">
<g id="graph0" class="graph" transform="scale(1 1) rotate(0) translate(4 400)">
<title>snakemake_dag</title>
<polygon fill="white" stroke="white" points="-4,5 -4,-400 273,-400 273,5 -4,5"/>
<!-- 0 -->
<g id="node1" class="node"><title>0</title>
<path fill="none" stroke="#d8ac56" stroke-width="2" d="M119,-36C119,-36 89,-36 89,-36 83,-36 77,-30 77,-24 77,-24 77,-12 77,-12 77,-6 83,-0 89,-0 89,-0 119,-0 119,-0 125,-0 131,-6 131,-12 131,-12 131,-24 131,-24 131,-30 125,-36 119,-36"/>
<text text-anchor="middle" x="104" y="-15.5" font-family="sans" font-size="10.00">result</text>
</g>
<!-- 1 -->
<g id="node2" class="node"><title>1</title>
<path fill="none" stroke="#d6d856" stroke-width="2" d="M53.25,-180C53.25,-180 12.75,-180 12.75,-180 6.75,-180 0.75,-174 0.75,-168 0.75,-168 0.75,-156 0.75,-156 0.75,-150 6.75,-144 12.75,-144 12.75,-144 53.25,-144 53.25,-144 59.25,-144 65.25,-150 65.25,-156 65.25,-156 65.25,-168 65.25,-168 65.25,-174 59.25,-180 53.25,-180"/>
<text text-anchor="middle" x="33" y="-159.5" font-family="sans" font-size="10.00">build_tree</text>
</g>
<!-- 1&#45;&gt;0 -->
<g id="edge4" class="edge"><title>1&#45;&gt;0</title>
<path fill="none" stroke="grey" stroke-width="2" d="M30.288,-143.863C28.1665,-125.111 27.2677,-94.7 39,-72 45.7245,-58.9891 57.1995,-48.0204 68.6538,-39.4976"/>
<polygon fill="grey" stroke="grey" points="70.7231,-42.3216 76.9224,-33.7297 66.7182,-36.5804 70.7231,-42.3216"/>
</g>
<!-- 7 -->
<g id="node8" class="node"><title>7</title>
<path fill="none" stroke="#56d8d8" stroke-width="2" d="M92,-108C92,-108 60,-108 60,-108 54,-108 48,-102 48,-96 48,-96 48,-84 48,-84 48,-78 54,-72 60,-72 60,-72 92,-72 92,-72 98,-72 104,-78 104,-84 104,-84 104,-96 104,-96 104,-102 98,-108 92,-108"/>
<text text-anchor="middle" x="76" y="-87.5" font-family="sans" font-size="10.00">cut_tree</text>
</g>
<!-- 1&#45;&gt;7 -->
<g id="edge10" class="edge"><title>1&#45;&gt;7</title>
<path fill="none" stroke="grey" stroke-width="2" d="M43.6292,-143.697C48.6281,-135.559 54.691,-125.689 60.2121,-116.701"/>
<polygon fill="grey" stroke="grey" points="63.2411,-118.457 65.4931,-108.104 57.2766,-114.793 63.2411,-118.457"/>
</g>
<!-- 2 -->
<g id="node3" class="node"><title>2</title>
<path fill="none" stroke="#5682d8" stroke-width="2" d="M80,-252C80,-252 12,-252 12,-252 6,-252 0,-246 0,-240 0,-240 0,-228 0,-228 0,-222 6,-216 12,-216 12,-216 80,-216 80,-216 86,-216 92,-222 92,-228 92,-228 92,-240 92,-240 92,-246 86,-252 80,-252"/>
<text text-anchor="middle" x="46" y="-231.5" font-family="sans" font-size="10.00">align_partitions</text>
</g>
<!-- 2&#45;&gt;1 -->
<g id="edge5" class="edge"><title>2&#45;&gt;1</title>
<path fill="none" stroke="grey" stroke-width="2" d="M42.7865,-215.697C41.3539,-207.983 39.6323,-198.712 38.0352,-190.112"/>
<polygon fill="grey" stroke="grey" points="41.4437,-189.297 36.1765,-180.104 34.5614,-190.575 41.4437,-189.297"/>
</g>
<!-- 3 -->
<g id="node4" class="node"><title>3</title>
<path fill="none" stroke="#afd856" stroke-width="2" d="M183.25,-324C183.25,-324 82.75,-324 82.75,-324 76.75,-324 70.75,-318 70.75,-312 70.75,-312 70.75,-300 70.75,-300 70.75,-294 76.75,-288 82.75,-288 82.75,-288 183.25,-288 183.25,-288 189.25,-288 195.25,-294 195.25,-300 195.25,-300 195.25,-312 195.25,-312 195.25,-318 189.25,-324 183.25,-324"/>
<text text-anchor="middle" x="133" y="-303.5" font-family="sans" font-size="10.00">analyze_partis_output</text>
</g>
<!-- 3&#45;&gt;2 -->
<g id="edge6" class="edge"><title>3&#45;&gt;2</title>
<path fill="none" stroke="grey" stroke-width="2" d="M111.494,-287.697C100.537,-278.881 87.0541,-268.032 75.1751,-258.474"/>
<polygon fill="grey" stroke="grey" points="77.2435,-255.646 67.2582,-252.104 72.8554,-261.1 77.2435,-255.646"/>
</g>
<!-- 5 -->
<g id="node6" class="node"><title>5</title>
<path fill="none" stroke="#56a9d8" stroke-width="2" d="M170.25,-180C170.25,-180 95.75,-180 95.75,-180 89.75,-180 83.75,-174 83.75,-168 83.75,-168 83.75,-156 83.75,-156 83.75,-150 89.75,-144 95.75,-144 95.75,-144 170.25,-144 170.25,-144 176.25,-144 182.25,-150 182.25,-156 182.25,-156 182.25,-168 182.25,-168 182.25,-174 176.25,-180 170.25,-180"/>
<text text-anchor="middle" x="133" y="-159.5" font-family="sans" font-size="10.00">get_family_sizes</text>
</g>
<!-- 3&#45;&gt;5 -->
<g id="edge8" class="edge"><title>3&#45;&gt;5</title>
<path fill="none" stroke="grey" stroke-width="2" d="M133,-287.871C133,-263.67 133,-219.211 133,-190.393"/>
<polygon fill="grey" stroke="grey" points="136.5,-190.189 133,-180.189 129.5,-190.189 136.5,-190.189"/>
</g>
<!-- 6 -->
<g id="node7" class="node"><title>6</title>
<path fill="none" stroke="#59d856" stroke-width="2" d="M255.25,-108C255.25,-108 172.75,-108 172.75,-108 166.75,-108 160.75,-102 160.75,-96 160.75,-96 160.75,-84 160.75,-84 160.75,-78 166.75,-72 172.75,-72 172.75,-72 255.25,-72 255.25,-72 261.25,-72 267.25,-78 267.25,-84 267.25,-84 267.25,-96 267.25,-96 267.25,-102 261.25,-108 255.25,-108"/>
<text text-anchor="middle" x="214" y="-87.5" font-family="sans" font-size="10.00">shuffle_sequences</text>
</g>
<!-- 3&#45;&gt;6 -->
<g id="edge9" class="edge"><title>3&#45;&gt;6</title>
<path fill="none" stroke="grey" stroke-width="2" d="M142.296,-287.623C154.719,-263.859 176.813,-219.644 191,-180 198.293,-159.622 204.314,-135.857 208.363,-118.013"/>
<polygon fill="grey" stroke="grey" points="211.834,-118.525 210.569,-108.006 204.999,-117.018 211.834,-118.525"/>
</g>
<!-- 4 -->
<g id="node5" class="node"><title>4</title>
<path fill="none" stroke="#d88556" stroke-width="2" d="M150.25,-396C150.25,-396 115.75,-396 115.75,-396 109.75,-396 103.75,-390 103.75,-384 103.75,-384 103.75,-372 103.75,-372 103.75,-366 109.75,-360 115.75,-360 115.75,-360 150.25,-360 150.25,-360 156.25,-360 162.25,-366 162.25,-372 162.25,-372 162.25,-384 162.25,-384 162.25,-390 156.25,-396 150.25,-396"/>
<text text-anchor="middle" x="133" y="-375.5" font-family="sans" font-size="10.00">simulate</text>
</g>
<!-- 4&#45;&gt;3 -->
<g id="edge7" class="edge"><title>4&#45;&gt;3</title>
<path fill="none" stroke="grey" stroke-width="2" d="M133,-359.697C133,-351.983 133,-342.712 133,-334.112"/>
<polygon fill="grey" stroke="grey" points="136.5,-334.104 133,-324.104 129.5,-334.104 136.5,-334.104"/>
</g>
<!-- 5&#45;&gt;0 -->
<g id="edge2" class="edge"><title>5&#45;&gt;0</title>
<path fill="none" stroke="grey" stroke-width="2" d="M129.502,-143.871C124.538,-119.564 115.4,-74.8187 109.517,-46.0132"/>
<polygon fill="grey" stroke="grey" points="112.941,-45.2867 107.51,-36.1893 106.082,-46.6874 112.941,-45.2867"/>
</g>
<!-- 6&#45;&gt;0 -->
<g id="edge3" class="edge"><title>6&#45;&gt;0</title>
<path fill="none" stroke="grey" stroke-width="2" d="M187.091,-71.8761C172.842,-62.8083 155.154,-51.5523 139.764,-41.7592"/>
<polygon fill="grey" stroke="grey" points="141.328,-38.6057 131.012,-36.1898 137.57,-44.5114 141.328,-38.6057"/>
</g>
<!-- 7&#45;&gt;0 -->
<g id="edge1" class="edge"><title>7&#45;&gt;0</title>
<path fill="none" stroke="grey" stroke-width="2" d="M82.9214,-71.6966C86.0747,-63.8132 89.8783,-54.3042 93.3814,-45.5464"/>
<polygon fill="grey" stroke="grey" points="96.694,-46.689 97.1583,-36.1043 90.1946,-44.0892 96.694,-46.689"/>
</g>
</g>
</svg>
