<?xml version="1.0" encoding="UTF-8" standalone="no"?>
<!DOCTYPE svg PUBLIC "-//W3C//DTD SVG 1.1//EN"
 "http://www.w3.org/Graphics/SVG/1.1/DTD/svg11.dtd">
<!-- Generated by graphviz version 2.30.1 (20180420.1509)
 -->
<!-- Title: snakemake_dag Pages: 1 -->
<svg width="197pt" height="404pt"
 viewBox="0.00 0.00 197.00 404.00" xmlns="http://www.w3.org/2000/svg" xmlns:xlink="http://www.w3.org/1999/xlink">
<g id="graph0" class="graph" transform="scale(1 1) rotate(0) translate(4 400)">
<title>snakemake_dag</title>
<polygon fill="white" stroke="white" points="-4,5 -4,-400 194,-400 194,5 -4,5"/>
<!-- 0 -->
<g id="node1" class="node"><title>0</title>
<path fill="none" stroke="#bed856" stroke-width="2" d="M99,-36C99,-36 69,-36 69,-36 63,-36 57,-30 57,-24 57,-24 57,-12 57,-12 57,-6 63,-0 69,-0 69,-0 99,-0 99,-0 105,-0 111,-6 111,-12 111,-12 111,-24 111,-24 111,-30 105,-36 99,-36"/>
<text text-anchor="middle" x="84" y="-15.5" font-family="sans" font-size="10.00">result</text>
</g>
<!-- 1 -->
<g id="node2" class="node"><title>1</title>
<path fill="none" stroke="#56c1d8" stroke-width="2" d="M60.25,-180C60.25,-180 19.75,-180 19.75,-180 13.75,-180 7.75,-174 7.75,-168 7.75,-168 7.75,-156 7.75,-156 7.75,-150 13.75,-144 19.75,-144 19.75,-144 60.25,-144 60.25,-144 66.25,-144 72.25,-150 72.25,-156 72.25,-156 72.25,-168 72.25,-168 72.25,-174 66.25,-180 60.25,-180"/>
<text text-anchor="middle" x="40" y="-159.5" font-family="sans" font-size="10.00">build_tree</text>
</g>
<!-- 1&#45;&gt;0 -->
<g id="edge1" class="edge"><title>1&#45;&gt;0</title>
<path fill="none" stroke="grey" stroke-width="2" d="M38.7271,-143.713C37.9721,-125.362 38.4803,-95.7837 47,-72 50.4828,-62.2774 56.2433,-52.6957 62.1937,-44.4101"/>
<polygon fill="grey" stroke="grey" points="65.1011,-46.3692 68.3759,-36.2932 59.5324,-42.1278 65.1011,-46.3692"/>
</g>
<!-- 6 -->
<g id="node7" class="node"><title>6</title>
<path fill="none" stroke="#568ad8" stroke-width="2" d="M100,-108C100,-108 68,-108 68,-108 62,-108 56,-102 56,-96 56,-96 56,-84 56,-84 56,-78 62,-72 68,-72 68,-72 100,-72 100,-72 106,-72 112,-78 112,-84 112,-84 112,-96 112,-96 112,-102 106,-108 100,-108"/>
<text text-anchor="middle" x="84" y="-87.5" font-family="sans" font-size="10.00">cut_tree</text>
</g>
<!-- 1&#45;&gt;6 -->
<g id="edge8" class="edge"><title>1&#45;&gt;6</title>
<path fill="none" stroke="grey" stroke-width="2" d="M50.8764,-143.697C55.9916,-135.559 62.1955,-125.689 67.8449,-116.701"/>
<polygon fill="grey" stroke="grey" points="70.8902,-118.433 73.2487,-108.104 64.9637,-114.708 70.8902,-118.433"/>
</g>
<!-- 2 -->
<g id="node3" class="node"><title>2</title>
<path fill="none" stroke="#56d88a" stroke-width="2" d="M80,-252C80,-252 12,-252 12,-252 6,-252 0,-246 0,-240 0,-240 0,-228 0,-228 0,-222 6,-216 12,-216 12,-216 80,-216 80,-216 86,-216 92,-222 92,-228 92,-228 92,-240 92,-240 92,-246 86,-252 80,-252"/>
<text text-anchor="middle" x="46" y="-231.5" font-family="sans" font-size="10.00">align_partitions</text>
</g>
<!-- 2&#45;&gt;1 -->
<g id="edge4" class="edge"><title>2&#45;&gt;1</title>
<path fill="none" stroke="grey" stroke-width="2" d="M44.5169,-215.697C43.8557,-207.983 43.0611,-198.712 42.3239,-190.112"/>
<polygon fill="grey" stroke="grey" points="45.8074,-189.769 41.4661,-180.104 38.833,-190.367 45.8074,-189.769"/>
</g>
<!-- 3 -->
<g id="node4" class="node"><title>3</title>
<path fill="none" stroke="#59d856" stroke-width="2" d="M133.25,-324C133.25,-324 32.75,-324 32.75,-324 26.75,-324 20.75,-318 20.75,-312 20.75,-312 20.75,-300 20.75,-300 20.75,-294 26.75,-288 32.75,-288 32.75,-288 133.25,-288 133.25,-288 139.25,-288 145.25,-294 145.25,-300 145.25,-300 145.25,-312 145.25,-312 145.25,-318 139.25,-324 133.25,-324"/>
<text text-anchor="middle" x="83" y="-303.5" font-family="sans" font-size="10.00">analyze_partis_output</text>
</g>
<!-- 3&#45;&gt;2 -->
<g id="edge5" class="edge"><title>3&#45;&gt;2</title>
<path fill="none" stroke="grey" stroke-width="2" d="M73.8539,-287.697C69.5974,-279.644 64.4442,-269.894 59.7336,-260.982"/>
<polygon fill="grey" stroke="grey" points="62.8083,-259.31 55.0409,-252.104 56.6197,-262.581 62.8083,-259.31"/>
</g>
<!-- 5 -->
<g id="node6" class="node"><title>5</title>
<path fill="none" stroke="#d8bc56" stroke-width="2" d="M177.25,-180C177.25,-180 102.75,-180 102.75,-180 96.75,-180 90.75,-174 90.75,-168 90.75,-168 90.75,-156 90.75,-156 90.75,-150 96.75,-144 102.75,-144 102.75,-144 177.25,-144 177.25,-144 183.25,-144 189.25,-150 189.25,-156 189.25,-156 189.25,-168 189.25,-168 189.25,-174 183.25,-180 177.25,-180"/>
<text text-anchor="middle" x="140" y="-159.5" font-family="sans" font-size="10.00">get_family_sizes</text>
</g>
<!-- 3&#45;&gt;5 -->
<g id="edge7" class="edge"><title>3&#45;&gt;5</title>
<path fill="none" stroke="grey" stroke-width="2" d="M89.8755,-287.871C99.6757,-263.457 117.752,-218.426 129.308,-189.635"/>
<polygon fill="grey" stroke="grey" points="132.623,-190.773 133.1,-180.189 126.127,-188.166 132.623,-190.773"/>
</g>
<!-- 4 -->
<g id="node5" class="node"><title>4</title>
<path fill="none" stroke="#d88d56" stroke-width="2" d="M100.25,-396C100.25,-396 65.75,-396 65.75,-396 59.75,-396 53.75,-390 53.75,-384 53.75,-384 53.75,-372 53.75,-372 53.75,-366 59.75,-360 65.75,-360 65.75,-360 100.25,-360 100.25,-360 106.25,-360 112.25,-366 112.25,-372 112.25,-372 112.25,-384 112.25,-384 112.25,-390 106.25,-396 100.25,-396"/>
<text text-anchor="middle" x="83" y="-375.5" font-family="sans" font-size="10.00">simulate</text>
</g>
<!-- 4&#45;&gt;3 -->
<g id="edge6" class="edge"><title>4&#45;&gt;3</title>
<path fill="none" stroke="grey" stroke-width="2" d="M83,-359.697C83,-351.983 83,-342.712 83,-334.112"/>
<polygon fill="grey" stroke="grey" points="86.5001,-334.104 83,-324.104 79.5001,-334.104 86.5001,-334.104"/>
</g>
<!-- 5&#45;&gt;0 -->
<g id="edge2" class="edge"><title>5&#45;&gt;0</title>
<path fill="none" stroke="grey" stroke-width="2" d="M138.403,-143.986C136.219,-125.607 131.326,-95.7649 121,-72 116.818,-62.3752 110.754,-52.7098 104.741,-44.3178"/>
<polygon fill="grey" stroke="grey" points="107.372,-41.9922 98.5744,-36.0886 101.77,-46.1899 107.372,-41.9922"/>
</g>
<!-- 6&#45;&gt;0 -->
<g id="edge3" class="edge"><title>6&#45;&gt;0</title>
<path fill="none" stroke="grey" stroke-width="2" d="M84,-71.6966C84,-63.9827 84,-54.7125 84,-46.1124"/>
<polygon fill="grey" stroke="grey" points="87.5001,-46.1043 84,-36.1043 80.5001,-46.1044 87.5001,-46.1043"/>
</g>
</g>
</svg>
