<?xml version="1.0" encoding="UTF-8" standalone="no"?>
<!DOCTYPE svg PUBLIC "-//W3C//DTD SVG 1.1//EN"
 "http://www.w3.org/Graphics/SVG/1.1/DTD/svg11.dtd">
<!-- Generated by graphviz version 5.0.1 (20220820.1526)
 -->
<!-- Title: snakemake_dag Pages: 1 -->
<svg width="174pt" height="116pt"
 viewBox="0.00 0.00 174.00 116.00" xmlns="http://www.w3.org/2000/svg" xmlns:xlink="http://www.w3.org/1999/xlink">
<g id="graph0" class="graph" transform="scale(1 1) rotate(0) translate(4 112)">
<title>snakemake_dag</title>
<polygon fill="white" stroke="none" points="-4,4 -4,-112 170,-112 170,4 -4,4"/>
<!-- 0 -->
<g id="node1" class="node">
<title>0</title>
<path fill="none" stroke="#d85656" stroke-width="2" stroke-dasharray="5,2" d="M99.5,-36C99.5,-36 69.5,-36 69.5,-36 63.5,-36 57.5,-30 57.5,-24 57.5,-24 57.5,-12 57.5,-12 57.5,-6 63.5,0 69.5,0 69.5,0 99.5,0 99.5,0 105.5,0 111.5,-6 111.5,-12 111.5,-12 111.5,-24 111.5,-24 111.5,-30 105.5,-36 99.5,-36"/>
<text text-anchor="middle" x="84.5" y="-15.5" font-family="sans" font-size="10.00">result</text>
</g>
<!-- 1 -->
<g id="node2" class="node">
<title>1</title>
<path fill="none" stroke="#59d856" stroke-width="2" stroke-dasharray="5,2" d="M65,-108C65,-108 12,-108 12,-108 6,-108 0,-102 0,-96 0,-96 0,-84 0,-84 0,-78 6,-72 12,-72 12,-72 65,-72 65,-72 71,-72 77,-78 77,-84 77,-84 77,-96 77,-96 77,-102 71,-108 65,-108"/>
<text text-anchor="middle" x="38.5" y="-93" font-family="sans" font-size="10.00">tsv_to_fasta</text>
<text text-anchor="middle" x="38.5" y="-82" font-family="sans" font-size="10.00">d: nolan12Oct</text>
</g>
<!-- 1&#45;&gt;0 -->
<g id="edge1" class="edge">
<title>1&#45;&gt;0</title>
<path fill="none" stroke="grey" stroke-width="2" d="M49.87,-71.7C55.22,-63.56 61.7,-53.69 67.61,-44.7"/>
<polygon fill="grey" stroke="grey" stroke-width="2" points="70.69,-46.38 73.26,-36.1 64.84,-42.54 70.69,-46.38"/>
</g>
<!-- 2 -->
<g id="node3" class="node">
<title>2</title>
<path fill="none" stroke="#59d856" stroke-width="2" stroke-dasharray="5,2" d="M154,-108C154,-108 107,-108 107,-108 101,-108 95,-102 95,-96 95,-96 95,-84 95,-84 95,-78 101,-72 107,-72 107,-72 154,-72 154,-72 160,-72 166,-78 166,-84 166,-84 166,-96 166,-96 166,-102 160,-108 154,-108"/>
<text text-anchor="middle" x="130.5" y="-93" font-family="sans" font-size="10.00">tsv_to_fasta</text>
<text text-anchor="middle" x="130.5" y="-82" font-family="sans" font-size="10.00">d: minervina</text>
</g>
<!-- 2&#45;&gt;0 -->
<g id="edge2" class="edge">
<title>2&#45;&gt;0</title>
<path fill="none" stroke="grey" stroke-width="2" d="M119.13,-71.7C113.78,-63.56 107.3,-53.69 101.39,-44.7"/>
<polygon fill="grey" stroke="grey" stroke-width="2" points="104.16,-42.54 95.74,-36.1 98.31,-46.38 104.16,-42.54"/>
</g>
</g>
</svg>
