<?xml version="1.0" encoding="UTF-8" standalone="no"?>
<!DOCTYPE svg PUBLIC "-//W3C//DTD SVG 1.1//EN"
 "http://www.w3.org/Graphics/SVG/1.1/DTD/svg11.dtd">
<!-- Generated by graphviz version 2.30.1 (20180420.1509)
 -->
<!-- Title: snakemake_dag Pages: 1 -->
<svg width="457pt" height="476pt"
 viewBox="0.00 0.00 457.00 476.00" xmlns="http://www.w3.org/2000/svg" xmlns:xlink="http://www.w3.org/1999/xlink">
<g id="graph0" class="graph" transform="scale(1 1) rotate(0) translate(4 472)">
<title>snakemake_dag</title>
<polygon fill="white" stroke="white" points="-4,5 -4,-472 454,-472 454,5 -4,5"/>
<!-- 0 -->
<g id="node1" class="node"><title>0</title>
<path fill="none" stroke="#68d856" stroke-width="2" d="M242,-36C242,-36 212,-36 212,-36 206,-36 200,-30 200,-24 200,-24 200,-12 200,-12 200,-6 206,-0 212,-0 212,-0 242,-0 242,-0 248,-0 254,-6 254,-12 254,-12 254,-24 254,-24 254,-30 248,-36 242,-36"/>
<text text-anchor="middle" x="227" y="-15.5" font-family="sans" font-size="10.00">result</text>
</g>
<!-- 1 -->
<g id="node2" class="node"><title>1</title>
<path fill="none" stroke="#56d88a" stroke-width="2" d="M86.25,-252C86.25,-252 11.75,-252 11.75,-252 5.75,-252 -0.25,-246 -0.25,-240 -0.25,-240 -0.25,-228 -0.25,-228 -0.25,-222 5.75,-216 11.75,-216 11.75,-216 86.25,-216 86.25,-216 92.25,-216 98.25,-222 98.25,-228 98.25,-228 98.25,-240 98.25,-240 98.25,-246 92.25,-252 86.25,-252"/>
<text text-anchor="middle" x="49" y="-231.5" font-family="sans" font-size="10.00">get_family_sizes</text>
</g>
<!-- 1&#45;&gt;0 -->
<g id="edge3" class="edge"><title>1&#45;&gt;0</title>
<path fill="none" stroke="grey" stroke-width="2" d="M44.2162,-215.797C36.4307,-183.771 24.9865,-114.417 58,-72 89.1198,-32.0159 150.194,-21.5463 189.769,-19.1619"/>
<polygon fill="grey" stroke="grey" points="189.998,-22.6552 199.827,-18.7011 189.677,-15.6626 189.998,-22.6552"/>
</g>
<!-- 2 -->
<g id="node3" class="node"><title>2</title>
<path fill="none" stroke="#56c1d8" stroke-width="2" d="M255.25,-396C255.25,-396 154.75,-396 154.75,-396 148.75,-396 142.75,-390 142.75,-384 142.75,-384 142.75,-372 142.75,-372 142.75,-366 148.75,-360 154.75,-360 154.75,-360 255.25,-360 255.25,-360 261.25,-360 267.25,-366 267.25,-372 267.25,-372 267.25,-384 267.25,-384 267.25,-390 261.25,-396 255.25,-396"/>
<text text-anchor="middle" x="205" y="-375.5" font-family="sans" font-size="10.00">analyze_partis_output</text>
</g>
<!-- 2&#45;&gt;1 -->
<g id="edge5" class="edge"><title>2&#45;&gt;1</title>
<path fill="none" stroke="grey" stroke-width="2" d="M158.182,-359.997C138.885,-351.349 117.282,-339.373 101,-324 82.3843,-306.424 68.3354,-280.698 59.5627,-261.42"/>
<polygon fill="grey" stroke="grey" points="62.663,-259.773 55.4598,-252.003 56.2457,-262.569 62.663,-259.773"/>
</g>
<!-- 7 -->
<g id="node8" class="node"><title>7</title>
<path fill="none" stroke="#569ad8" stroke-width="2" d="M205.25,-324C205.25,-324 122.75,-324 122.75,-324 116.75,-324 110.75,-318 110.75,-312 110.75,-312 110.75,-300 110.75,-300 110.75,-294 116.75,-288 122.75,-288 122.75,-288 205.25,-288 205.25,-288 211.25,-288 217.25,-294 217.25,-300 217.25,-300 217.25,-312 217.25,-312 217.25,-318 211.25,-324 205.25,-324"/>
<text text-anchor="middle" x="164" y="-303.5" font-family="sans" font-size="10.00">shuffle_sequences</text>
</g>
<!-- 2&#45;&gt;7 -->
<g id="edge11" class="edge"><title>2&#45;&gt;7</title>
<path fill="none" stroke="grey" stroke-width="2" d="M194.865,-359.697C190.148,-351.644 184.438,-341.894 179.218,-332.982"/>
<polygon fill="grey" stroke="grey" points="182.092,-330.964 174.018,-324.104 176.052,-334.502 182.092,-330.964"/>
</g>
<!-- 8 -->
<g id="node9" class="node"><title>8</title>
<path fill="none" stroke="#d87556" stroke-width="2" d="M363,-108C363,-108 255,-108 255,-108 249,-108 243,-102 243,-96 243,-96 243,-84 243,-84 243,-78 249,-72 255,-72 255,-72 363,-72 363,-72 369,-72 375,-78 375,-84 375,-84 375,-96 375,-96 375,-102 369,-108 363,-108"/>
<text text-anchor="middle" x="309" y="-87.5" font-family="sans" font-size="10.00">compare_ancestral_seq</text>
</g>
<!-- 2&#45;&gt;8 -->
<g id="edge13" class="edge"><title>2&#45;&gt;8</title>
<path fill="none" stroke="grey" stroke-width="2" d="M212.711,-359.583C217.031,-349.36 222.281,-336.11 226,-324 250.058,-245.659 230.344,-217.788 266,-144 270.844,-133.975 277.926,-124.168 284.95,-115.771"/>
<polygon fill="grey" stroke="grey" points="287.634,-118.018 291.591,-108.19 282.369,-113.405 287.634,-118.018"/>
</g>
<!-- 11 -->
<g id="node12" class="node"><title>11</title>
<path fill="none" stroke="#56d86b" stroke-width="2" d="M360,-324C360,-324 292,-324 292,-324 286,-324 280,-318 280,-312 280,-312 280,-300 280,-300 280,-294 286,-288 292,-288 292,-288 360,-288 360,-288 366,-288 372,-294 372,-300 372,-300 372,-312 372,-312 372,-318 366,-324 360,-324"/>
<text text-anchor="middle" x="326" y="-303.5" font-family="sans" font-size="10.00">align_partitions</text>
</g>
<!-- 2&#45;&gt;11 -->
<g id="edge17" class="edge"><title>2&#45;&gt;11</title>
<path fill="none" stroke="grey" stroke-width="2" d="M234.6,-359.876C250.567,-350.639 270.46,-339.131 287.606,-329.212"/>
<polygon fill="grey" stroke="grey" points="289.383,-332.227 296.286,-324.19 285.878,-326.168 289.383,-332.227"/>
</g>
<!-- 3 -->
<g id="node4" class="node"><title>3</title>
<path fill="none" stroke="#ced856" stroke-width="2" d="M222.25,-468C222.25,-468 187.75,-468 187.75,-468 181.75,-468 175.75,-462 175.75,-456 175.75,-456 175.75,-444 175.75,-444 175.75,-438 181.75,-432 187.75,-432 187.75,-432 222.25,-432 222.25,-432 228.25,-432 234.25,-438 234.25,-444 234.25,-444 234.25,-456 234.25,-456 234.25,-462 228.25,-468 222.25,-468"/>
<text text-anchor="middle" x="205" y="-447.5" font-family="sans" font-size="10.00">simulate</text>
</g>
<!-- 3&#45;&gt;2 -->
<g id="edge6" class="edge"><title>3&#45;&gt;2</title>
<path fill="none" stroke="grey" stroke-width="2" d="M205,-431.697C205,-423.983 205,-414.712 205,-406.112"/>
<polygon fill="grey" stroke="grey" points="208.5,-406.104 205,-396.104 201.5,-406.104 208.5,-406.104"/>
</g>
<!-- 4 -->
<g id="node5" class="node"><title>4</title>
<path fill="none" stroke="#d85656" stroke-width="2" d="M213,-108C213,-108 79,-108 79,-108 73,-108 67,-102 67,-96 67,-96 67,-84 67,-84 67,-78 73,-72 79,-72 79,-72 213,-72 213,-72 219,-72 225,-78 225,-84 225,-84 225,-96 225,-96 225,-102 219,-108 213,-108"/>
<text text-anchor="middle" x="146" y="-87.5" font-family="sans" font-size="10.00">ancestral_sequence_shuffled</text>
</g>
<!-- 4&#45;&gt;0 -->
<g id="edge1" class="edge"><title>4&#45;&gt;0</title>
<path fill="none" stroke="grey" stroke-width="2" d="M166.022,-71.6966C176.126,-62.9655 188.536,-52.2405 199.518,-42.7503"/>
<polygon fill="grey" stroke="grey" points="201.93,-45.2912 207.208,-36.1043 197.353,-39.9948 201.93,-45.2912"/>
</g>
<!-- 5 -->
<g id="node6" class="node"><title>5</title>
<path fill="none" stroke="#88d856" stroke-width="2" d="M207,-180C207,-180 121,-180 121,-180 115,-180 109,-174 109,-168 109,-168 109,-156 109,-156 109,-150 115,-144 121,-144 121,-144 207,-144 207,-144 213,-144 219,-150 219,-156 219,-156 219,-168 219,-168 219,-174 213,-180 207,-180"/>
<text text-anchor="middle" x="164" y="-159.5" font-family="sans" font-size="10.00">build_tree_shuffled</text>
</g>
<!-- 5&#45;&gt;4 -->
<g id="edge7" class="edge"><title>5&#45;&gt;4</title>
<path fill="none" stroke="grey" stroke-width="2" d="M159.551,-143.697C157.545,-135.898 155.131,-126.509 152.899,-117.829"/>
<polygon fill="grey" stroke="grey" points="156.278,-116.918 150.398,-108.104 149.499,-118.661 156.278,-116.918"/>
</g>
<!-- 6 -->
<g id="node7" class="node"><title>6</title>
<path fill="none" stroke="#56d8d0" stroke-width="2" d="M194.25,-252C194.25,-252 133.75,-252 133.75,-252 127.75,-252 121.75,-246 121.75,-240 121.75,-240 121.75,-228 121.75,-228 121.75,-222 127.75,-216 133.75,-216 133.75,-216 194.25,-216 194.25,-216 200.25,-216 206.25,-222 206.25,-228 206.25,-228 206.25,-240 206.25,-240 206.25,-246 200.25,-252 194.25,-252"/>
<text text-anchor="middle" x="164" y="-231.5" font-family="sans" font-size="10.00">align_shuffled</text>
</g>
<!-- 6&#45;&gt;4 -->
<g id="edge8" class="edge"><title>6&#45;&gt;4</title>
<path fill="none" stroke="grey" stroke-width="2" d="M133.231,-215.907C120.456,-207.021 106.999,-194.883 100,-180 93.1912,-165.521 94.4025,-158.989 100,-144 103.876,-133.621 110.803,-123.927 118.124,-115.743"/>
<polygon fill="grey" stroke="grey" points="120.784,-118.026 125.177,-108.385 115.731,-113.182 120.784,-118.026"/>
</g>
<!-- 6&#45;&gt;5 -->
<g id="edge9" class="edge"><title>6&#45;&gt;5</title>
<path fill="none" stroke="grey" stroke-width="2" d="M164,-215.697C164,-207.983 164,-198.712 164,-190.112"/>
<polygon fill="grey" stroke="grey" points="167.5,-190.104 164,-180.104 160.5,-190.104 167.5,-190.104"/>
</g>
<!-- 7&#45;&gt;6 -->
<g id="edge10" class="edge"><title>7&#45;&gt;6</title>
<path fill="none" stroke="grey" stroke-width="2" d="M164,-287.697C164,-279.983 164,-270.712 164,-262.112"/>
<polygon fill="grey" stroke="grey" points="167.5,-262.104 164,-252.104 160.5,-262.104 167.5,-262.104"/>
</g>
<!-- 8&#45;&gt;0 -->
<g id="edge2" class="edge"><title>8&#45;&gt;0</title>
<path fill="none" stroke="grey" stroke-width="2" d="M288.73,-71.6966C278.502,-62.9655 265.939,-52.2405 254.822,-42.7503"/>
<polygon fill="grey" stroke="grey" points="256.915,-39.935 247.037,-36.1043 252.37,-45.259 256.915,-39.935"/>
</g>
<!-- 9 -->
<g id="node10" class="node"><title>9</title>
<path fill="none" stroke="#d89c56" stroke-width="2" d="M376.25,-180C376.25,-180 287.75,-180 287.75,-180 281.75,-180 275.75,-174 275.75,-168 275.75,-168 275.75,-156 275.75,-156 275.75,-150 281.75,-144 287.75,-144 287.75,-144 376.25,-144 376.25,-144 382.25,-144 388.25,-150 388.25,-156 388.25,-156 388.25,-168 388.25,-168 388.25,-174 382.25,-180 376.25,-180"/>
<text text-anchor="middle" x="332" y="-159.5" font-family="sans" font-size="10.00">ancestral_sequence</text>
</g>
<!-- 9&#45;&gt;8 -->
<g id="edge12" class="edge"><title>9&#45;&gt;8</title>
<path fill="none" stroke="grey" stroke-width="2" d="M326.315,-143.697C323.752,-135.898 320.667,-126.509 317.815,-117.829"/>
<polygon fill="grey" stroke="grey" points="321.067,-116.512 314.62,-108.104 314.416,-118.697 321.067,-116.512"/>
</g>
<!-- 10 -->
<g id="node11" class="node"><title>10</title>
<path fill="none" stroke="#567bd8" stroke-width="2" d="M407.25,-252C407.25,-252 366.75,-252 366.75,-252 360.75,-252 354.75,-246 354.75,-240 354.75,-240 354.75,-228 354.75,-228 354.75,-222 360.75,-216 366.75,-216 366.75,-216 407.25,-216 407.25,-216 413.25,-216 419.25,-222 419.25,-228 419.25,-228 419.25,-240 419.25,-240 419.25,-246 413.25,-252 407.25,-252"/>
<text text-anchor="middle" x="387" y="-231.5" font-family="sans" font-size="10.00">build_tree</text>
</g>
<!-- 10&#45;&gt;9 -->
<g id="edge15" class="edge"><title>10&#45;&gt;9</title>
<path fill="none" stroke="grey" stroke-width="2" d="M373.404,-215.697C366.877,-207.389 358.932,-197.277 351.753,-188.141"/>
<polygon fill="grey" stroke="grey" points="354.369,-185.805 345.439,-180.104 348.865,-190.13 354.369,-185.805"/>
</g>
<!-- 12 -->
<g id="node13" class="node"><title>12</title>
<path fill="none" stroke="#d8bc56" stroke-width="2" d="M437,-108C437,-108 405,-108 405,-108 399,-108 393,-102 393,-96 393,-96 393,-84 393,-84 393,-78 399,-72 405,-72 405,-72 437,-72 437,-72 443,-72 449,-78 449,-84 449,-84 449,-96 449,-96 449,-102 443,-108 437,-108"/>
<text text-anchor="middle" x="421" y="-87.5" font-family="sans" font-size="10.00">cut_tree</text>
</g>
<!-- 10&#45;&gt;12 -->
<g id="edge18" class="edge"><title>10&#45;&gt;12</title>
<path fill="none" stroke="grey" stroke-width="2" d="M391.101,-215.871C396.921,-191.564 407.635,-146.819 414.532,-118.013"/>
<polygon fill="grey" stroke="grey" points="417.959,-118.729 416.884,-108.189 411.152,-117.099 417.959,-118.729"/>
</g>
<!-- 11&#45;&gt;9 -->
<g id="edge14" class="edge"><title>11&#45;&gt;9</title>
<path fill="none" stroke="grey" stroke-width="2" d="M326.724,-287.871C327.746,-263.67 329.625,-219.211 330.843,-190.393"/>
<polygon fill="grey" stroke="grey" points="334.348,-190.328 331.274,-180.189 327.355,-190.033 334.348,-190.328"/>
</g>
<!-- 11&#45;&gt;10 -->
<g id="edge16" class="edge"><title>11&#45;&gt;10</title>
<path fill="none" stroke="grey" stroke-width="2" d="M341.079,-287.697C348.392,-279.305 357.31,-269.07 365.335,-259.861"/>
<polygon fill="grey" stroke="grey" points="368.164,-261.943 372.095,-252.104 362.886,-257.344 368.164,-261.943"/>
</g>
<!-- 12&#45;&gt;0 -->
<g id="edge4" class="edge"><title>12&#45;&gt;0</title>
<path fill="none" stroke="grey" stroke-width="2" d="M392.851,-75.6965C389.881,-74.4041 386.891,-73.1483 384,-72 343.591,-55.9476 296.171,-40.3755 264.104,-30.312"/>
<polygon fill="grey" stroke="grey" points="264.849,-26.8783 254.261,-27.2446 262.766,-33.5613 264.849,-26.8783"/>
</g>
</g>
</svg>
