<?xml version="1.0" encoding="UTF-8" standalone="no"?>
<!DOCTYPE svg PUBLIC "-//W3C//DTD SVG 1.1//EN"
 "http://www.w3.org/Graphics/SVG/1.1/DTD/svg11.dtd">
<!-- Generated by graphviz version 2.30.1 (20180420.1509)
 -->
<!-- Title: snakemake_dag Pages: 1 -->
<svg width="204pt" height="476pt"
 viewBox="0.00 0.00 204.00 476.00" xmlns="http://www.w3.org/2000/svg" xmlns:xlink="http://www.w3.org/1999/xlink">
<g id="graph0" class="graph" transform="scale(1 1) rotate(0) translate(4 472)">
<title>snakemake_dag</title>
<polygon fill="white" stroke="white" points="-4,5 -4,-472 201,-472 201,5 -4,5"/>
<!-- 0 -->
<g id="node1" class="node"><title>0</title>
<path fill="none" stroke="#d85656" stroke-width="2" d="M112,-36C112,-36 82,-36 82,-36 76,-36 70,-30 70,-24 70,-24 70,-12 70,-12 70,-6 76,-0 82,-0 82,-0 112,-0 112,-0 118,-0 124,-6 124,-12 124,-12 124,-24 124,-24 124,-30 118,-36 112,-36"/>
<text text-anchor="middle" x="97" y="-15.5" font-family="sans" font-size="10.00">all</text>
</g>
<!-- 1 -->
<g id="node2" class="node"><title>1</title>
<path fill="none" stroke="#569ad8" stroke-width="2" d="M86.25,-252C86.25,-252 11.75,-252 11.75,-252 5.75,-252 -0.25,-246 -0.25,-240 -0.25,-240 -0.25,-228 -0.25,-228 -0.25,-222 5.75,-216 11.75,-216 11.75,-216 86.25,-216 86.25,-216 92.25,-216 98.25,-222 98.25,-228 98.25,-228 98.25,-240 98.25,-240 98.25,-246 92.25,-252 86.25,-252"/>
<text text-anchor="middle" x="49" y="-231.5" font-family="sans" font-size="10.00">get_family_sizes</text>
</g>
<!-- 1&#45;&gt;0 -->
<g id="edge2" class="edge"><title>1&#45;&gt;0</title>
<path fill="none" stroke="grey" stroke-width="2" d="M52.8469,-215.849C61.1674,-178.753 80.8931,-90.8101 90.9209,-46.1027"/>
<polygon fill="grey" stroke="grey" points="94.3612,-46.7561 93.1348,-36.2325 87.5309,-45.224 94.3612,-46.7561"/>
</g>
<!-- 2 -->
<g id="node3" class="node"><title>2</title>
<path fill="none" stroke="#56d8d8" stroke-width="2" d="M143.25,-396C143.25,-396 42.75,-396 42.75,-396 36.75,-396 30.75,-390 30.75,-384 30.75,-384 30.75,-372 30.75,-372 30.75,-366 36.75,-360 42.75,-360 42.75,-360 143.25,-360 143.25,-360 149.25,-360 155.25,-366 155.25,-372 155.25,-372 155.25,-384 155.25,-384 155.25,-390 149.25,-396 143.25,-396"/>
<text text-anchor="middle" x="93" y="-375.5" font-family="sans" font-size="10.00">analyze_partis_output</text>
</g>
<!-- 2&#45;&gt;1 -->
<g id="edge3" class="edge"><title>2&#45;&gt;1</title>
<path fill="none" stroke="grey" stroke-width="2" d="M87.6926,-359.871C80.1606,-335.564 66.2959,-290.819 57.3703,-262.013"/>
<polygon fill="grey" stroke="grey" points="60.6293,-260.705 54.3263,-252.189 53.9429,-262.777 60.6293,-260.705"/>
</g>
<!-- 7 -->
<g id="node8" class="node"><title>7</title>
<path fill="none" stroke="#d89556" stroke-width="2" d="M184,-324C184,-324 98,-324 98,-324 92,-324 86,-318 86,-312 86,-312 86,-300 86,-300 86,-294 92,-288 98,-288 98,-288 184,-288 184,-288 190,-288 196,-294 196,-300 196,-300 196,-312 196,-312 196,-318 190,-324 184,-324"/>
<text text-anchor="middle" x="141" y="-303.5" font-family="sans" font-size="10.00">remove_singletons</text>
</g>
<!-- 2&#45;&gt;7 -->
<g id="edge8" class="edge"><title>2&#45;&gt;7</title>
<path fill="none" stroke="grey" stroke-width="2" d="M104.865,-359.697C110.503,-351.474 117.354,-341.483 123.569,-332.421"/>
<polygon fill="grey" stroke="grey" points="126.503,-334.331 129.271,-324.104 120.729,-330.372 126.503,-334.331"/>
</g>
<!-- 3 -->
<g id="node4" class="node"><title>3</title>
<path fill="none" stroke="#d6d856" stroke-width="2" d="M110.25,-468C110.25,-468 75.75,-468 75.75,-468 69.75,-468 63.75,-462 63.75,-456 63.75,-456 63.75,-444 63.75,-444 63.75,-438 69.75,-432 75.75,-432 75.75,-432 110.25,-432 110.25,-432 116.25,-432 122.25,-438 122.25,-444 122.25,-444 122.25,-456 122.25,-456 122.25,-462 116.25,-468 110.25,-468"/>
<text text-anchor="middle" x="93" y="-447.5" font-family="sans" font-size="10.00">simulate</text>
</g>
<!-- 3&#45;&gt;2 -->
<g id="edge4" class="edge"><title>3&#45;&gt;2</title>
<path fill="none" stroke="grey" stroke-width="2" d="M93,-431.697C93,-423.983 93,-414.712 93,-406.112"/>
<polygon fill="grey" stroke="grey" points="96.5001,-406.104 93,-396.104 89.5001,-406.104 96.5001,-406.104"/>
</g>
<!-- 4 -->
<g id="node5" class="node"><title>4</title>
<path fill="none" stroke="#97d856" stroke-width="2" d="M144,-108C144,-108 112,-108 112,-108 106,-108 100,-102 100,-96 100,-96 100,-84 100,-84 100,-78 106,-72 112,-72 112,-72 144,-72 144,-72 150,-72 156,-78 156,-84 156,-84 156,-96 156,-96 156,-102 150,-108 144,-108"/>
<text text-anchor="middle" x="128" y="-87.5" font-family="sans" font-size="10.00">cut_tree</text>
</g>
<!-- 4&#45;&gt;0 -->
<g id="edge1" class="edge"><title>4&#45;&gt;0</title>
<path fill="none" stroke="grey" stroke-width="2" d="M120.337,-71.6966C116.808,-63.7284 112.544,-54.0995 108.631,-45.2641"/>
<polygon fill="grey" stroke="grey" points="111.824,-43.8306 104.575,-36.1043 105.424,-46.6651 111.824,-43.8306"/>
</g>
<!-- 5 -->
<g id="node6" class="node"><title>5</title>
<path fill="none" stroke="#59d856" stroke-width="2" d="M155.25,-180C155.25,-180 114.75,-180 114.75,-180 108.75,-180 102.75,-174 102.75,-168 102.75,-168 102.75,-156 102.75,-156 102.75,-150 108.75,-144 114.75,-144 114.75,-144 155.25,-144 155.25,-144 161.25,-144 167.25,-150 167.25,-156 167.25,-156 167.25,-168 167.25,-168 167.25,-174 161.25,-180 155.25,-180"/>
<text text-anchor="middle" x="135" y="-159.5" font-family="sans" font-size="10.00">build_tree</text>
</g>
<!-- 5&#45;&gt;4 -->
<g id="edge5" class="edge"><title>5&#45;&gt;4</title>
<path fill="none" stroke="grey" stroke-width="2" d="M133.27,-143.697C132.498,-135.983 131.571,-126.712 130.711,-118.112"/>
<polygon fill="grey" stroke="grey" points="134.188,-117.706 129.71,-108.104 127.223,-118.403 134.188,-117.706"/>
</g>
<!-- 6 -->
<g id="node7" class="node"><title>6</title>
<path fill="none" stroke="#56d89a" stroke-width="2" d="M159,-252C159,-252 129,-252 129,-252 123,-252 117,-246 117,-240 117,-240 117,-228 117,-228 117,-222 123,-216 129,-216 129,-216 159,-216 159,-216 165,-216 171,-222 171,-228 171,-228 171,-240 171,-240 171,-246 165,-252 159,-252"/>
<text text-anchor="middle" x="144" y="-231.5" font-family="sans" font-size="10.00">align</text>
</g>
<!-- 6&#45;&gt;5 -->
<g id="edge6" class="edge"><title>6&#45;&gt;5</title>
<path fill="none" stroke="grey" stroke-width="2" d="M141.775,-215.697C140.783,-207.983 139.592,-198.712 138.486,-190.112"/>
<polygon fill="grey" stroke="grey" points="141.946,-189.576 137.199,-180.104 135.003,-190.469 141.946,-189.576"/>
</g>
<!-- 7&#45;&gt;6 -->
<g id="edge7" class="edge"><title>7&#45;&gt;6</title>
<path fill="none" stroke="grey" stroke-width="2" d="M141.742,-287.697C142.072,-279.983 142.469,-270.712 142.838,-262.112"/>
<polygon fill="grey" stroke="grey" points="146.335,-262.245 143.267,-252.104 139.342,-261.945 146.335,-262.245"/>
</g>
</g>
</svg>
