<?xml version="1.0" encoding="UTF-8" standalone="no"?>
<!DOCTYPE svg PUBLIC "-//W3C//DTD SVG 1.1//EN"
 "http://www.w3.org/Graphics/SVG/1.1/DTD/svg11.dtd">
<!-- Generated by graphviz version 8.1.0 (20230707.0739)
 -->
<!-- Title: snakemake_dag Pages: 1 -->
<svg width="323pt" height="548pt"
 viewBox="0.00 0.00 322.88 548.00" xmlns="http://www.w3.org/2000/svg" xmlns:xlink="http://www.w3.org/1999/xlink">
<g id="graph0" class="graph" transform="scale(1 1) rotate(0) translate(4 544)">
<title>snakemake_dag</title>
<polygon fill="white" stroke="none" points="-4,4 -4,-544 318.88,-544 318.88,4 -4,4"/>
<!-- 0 -->
<g id="node1" class="node">
<title>0</title>
<path fill="none" stroke="#d89c56" stroke-width="2" d="M116,-36C116,-36 86,-36 86,-36 80,-36 74,-30 74,-24 74,-24 74,-12 74,-12 74,-6 80,0 86,0 86,0 116,0 116,0 122,0 128,-6 128,-12 128,-12 128,-24 128,-24 128,-30 122,-36 116,-36"/>
<text text-anchor="middle" x="101" y="-14.12" font-family="sans" font-size="10.00">all</text>
</g>
<!-- 1 -->
<g id="node2" class="node">
<title>1</title>
<path fill="none" stroke="#ced856" stroke-width="2" d="M42,-252C42,-252 12,-252 12,-252 6,-252 0,-246 0,-240 0,-240 0,-228 0,-228 0,-222 6,-216 12,-216 12,-216 42,-216 42,-216 48,-216 54,-222 54,-228 54,-228 54,-240 54,-240 54,-246 48,-252 42,-252"/>
<text text-anchor="middle" x="27" y="-230.12" font-family="sans" font-size="10.00">mixcr</text>
</g>
<!-- 1&#45;&gt;0 -->
<g id="edge2" class="edge">
<title>1&#45;&gt;0</title>
<path fill="none" stroke="grey" stroke-width="2" d="M33.18,-215.12C45.86,-178.46 74.92,-94.41 90.57,-49.16"/>
<polygon fill="grey" stroke="grey" stroke-width="2" points="94.82,-49.57 94.78,-38.98 88.21,-47.28 94.82,-49.57"/>
</g>
<!-- 2 -->
<g id="node3" class="node">
<title>2</title>
<path fill="none" stroke="#88d856" stroke-width="2" d="M156.88,-396C156.88,-396 83.12,-396 83.12,-396 77.12,-396 71.12,-390 71.12,-384 71.12,-384 71.12,-372 71.12,-372 71.12,-366 77.12,-360 83.12,-360 83.12,-360 156.88,-360 156.88,-360 162.88,-360 168.88,-366 168.88,-372 168.88,-372 168.88,-384 168.88,-384 168.88,-390 162.88,-396 156.88,-396"/>
<text text-anchor="middle" x="120" y="-374.12" font-family="sans" font-size="10.00">remove_singletons</text>
</g>
<!-- 2&#45;&gt;1 -->
<g id="edge5" class="edge">
<title>2&#45;&gt;1</title>
<path fill="none" stroke="grey" stroke-width="2" d="M99.26,-359.04C88.96,-349.38 76.86,-336.84 68,-324 55.33,-305.63 44.88,-282.72 37.7,-264.75"/>
<polygon fill="grey" stroke="grey" stroke-width="2" points="40.92,-262.75 34.07,-254.67 34.38,-265.26 40.92,-262.75"/>
</g>
<!-- 5 -->
<g id="node6" class="node">
<title>5</title>
<path fill="none" stroke="#56d8a9" stroke-width="2" d="M124,-180C124,-180 94,-180 94,-180 88,-180 82,-174 82,-168 82,-168 82,-156 82,-156 82,-150 88,-144 94,-144 94,-144 124,-144 124,-144 130,-144 136,-150 136,-156 136,-156 136,-168 136,-168 136,-174 130,-180 124,-180"/>
<text text-anchor="middle" x="109" y="-158.12" font-family="sans" font-size="10.00">changeo</text>
</g>
<!-- 2&#45;&gt;5 -->
<g id="edge9" class="edge">
<title>2&#45;&gt;5</title>
<path fill="none" stroke="grey" stroke-width="2" d="M115.64,-359.18C108.89,-329.54 97.08,-268.2 101,-216 101.56,-208.58 102.55,-200.62 103.65,-193.18"/>
<polygon fill="grey" stroke="grey" stroke-width="2" points="107.54,-193.02 105.67,-182.59 100.63,-191.91 107.54,-193.02"/>
</g>
<!-- 6 -->
<g id="node7" class="node">
<title>6</title>
<path fill="none" stroke="#afd856" stroke-width="2" d="M185.62,-252C185.62,-252 122.38,-252 122.38,-252 116.38,-252 110.38,-246 110.38,-240 110.38,-240 110.38,-228 110.38,-228 110.38,-222 116.38,-216 122.38,-216 122.38,-216 185.62,-216 185.62,-216 191.62,-216 197.62,-222 197.62,-228 197.62,-228 197.62,-240 197.62,-240 197.62,-246 191.62,-252 185.62,-252"/>
<text text-anchor="middle" x="154" y="-230.12" font-family="sans" font-size="10.00">combine_vquest</text>
</g>
<!-- 2&#45;&gt;6 -->
<g id="edge11" class="edge">
<title>2&#45;&gt;6</title>
<path fill="none" stroke="grey" stroke-width="2" d="M123.44,-359.19C127.01,-341.17 132.92,-312.54 139,-288 140.86,-280.48 143.05,-272.42 145.17,-264.9"/>
<polygon fill="grey" stroke="grey" stroke-width="2" points="149.31,-265.17 148.71,-254.59 142.58,-263.23 149.31,-265.17"/>
</g>
<!-- 7 -->
<g id="node8" class="node">
<title>7</title>
<path fill="none" stroke="#d85656" stroke-width="2" d="M190,-324C190,-324 160,-324 160,-324 154,-324 148,-318 148,-312 148,-312 148,-300 148,-300 148,-294 154,-288 160,-288 160,-288 190,-288 190,-288 196,-288 202,-294 202,-300 202,-300 202,-312 202,-312 202,-318 196,-324 190,-324"/>
<text text-anchor="middle" x="175" y="-302.12" font-family="sans" font-size="10.00">findVDJ</text>
</g>
<!-- 2&#45;&gt;7 -->
<g id="edge12" class="edge">
<title>2&#45;&gt;7</title>
<path fill="none" stroke="grey" stroke-width="2" d="M133.88,-359.34C139.7,-351.93 146.6,-343.14 153.08,-334.9"/>
<polygon fill="grey" stroke="grey" stroke-width="2" points="156.51,-336.93 159.93,-326.9 151,-332.6 156.51,-336.93"/>
</g>
<!-- 11 -->
<g id="node12" class="node">
<title>11</title>
<path fill="none" stroke="#569ad8" stroke-width="2" d="M262,-324C262,-324 232,-324 232,-324 226,-324 220,-318 220,-312 220,-312 220,-300 220,-300 220,-294 226,-288 232,-288 232,-288 262,-288 262,-288 268,-288 274,-294 274,-300 274,-300 274,-312 274,-312 274,-318 268,-324 262,-324"/>
<text text-anchor="middle" x="247" y="-302.12" font-family="sans" font-size="10.00">align</text>
</g>
<!-- 2&#45;&gt;11 -->
<g id="edge16" class="edge">
<title>2&#45;&gt;11</title>
<path fill="none" stroke="grey" stroke-width="2" d="M152.38,-359.15C169.38,-349.78 190.33,-338.23 208.2,-328.39"/>
<polygon fill="grey" stroke="grey" stroke-width="2" points="210.35,-331.1 217.42,-323.2 206.97,-324.97 210.35,-331.1"/>
</g>
<!-- 3 -->
<g id="node4" class="node">
<title>3</title>
<path fill="none" stroke="#d87556" stroke-width="2" d="M163.62,-468C163.62,-468 76.38,-468 76.38,-468 70.38,-468 64.38,-462 64.38,-456 64.38,-456 64.38,-444 64.38,-444 64.38,-438 70.38,-432 76.38,-432 76.38,-432 163.62,-432 163.62,-432 169.62,-432 175.62,-438 175.62,-444 175.62,-444 175.62,-456 175.62,-456 175.62,-462 169.62,-468 163.62,-468"/>
<text text-anchor="middle" x="120" y="-446.12" font-family="sans" font-size="10.00">analyze_partis_output</text>
</g>
<!-- 3&#45;&gt;2 -->
<g id="edge6" class="edge">
<title>3&#45;&gt;2</title>
<path fill="none" stroke="grey" stroke-width="2" d="M120,-431.34C120,-424.75 120,-417.08 120,-409.67"/>
<polygon fill="grey" stroke="grey" stroke-width="2" points="123.5,-409.9 120,-399.9 116.5,-409.9 123.5,-409.9"/>
</g>
<!-- 4 -->
<g id="node5" class="node">
<title>4</title>
<path fill="none" stroke="#56c1d8" stroke-width="2" d="M135,-540C135,-540 105,-540 105,-540 99,-540 93,-534 93,-528 93,-528 93,-516 93,-516 93,-510 99,-504 105,-504 105,-504 135,-504 135,-504 141,-504 147,-510 147,-516 147,-516 147,-528 147,-528 147,-534 141,-540 135,-540"/>
<text text-anchor="middle" x="120" y="-518.12" font-family="sans" font-size="10.00">simulate</text>
</g>
<!-- 4&#45;&gt;3 -->
<g id="edge7" class="edge">
<title>4&#45;&gt;3</title>
<path fill="none" stroke="grey" stroke-width="2" d="M120,-503.34C120,-496.75 120,-489.08 120,-481.67"/>
<polygon fill="grey" stroke="grey" stroke-width="2" points="123.5,-481.9 120,-471.9 116.5,-481.9 123.5,-481.9"/>
</g>
<!-- 5&#45;&gt;0 -->
<g id="edge4" class="edge">
<title>5&#45;&gt;0</title>
<path fill="none" stroke="grey" stroke-width="2" d="M102.18,-143.15C98.67,-133.01 94.77,-119.98 93,-108 90.14,-88.62 92.05,-66.71 94.71,-49.48"/>
<polygon fill="grey" stroke="grey" stroke-width="2" points="98.66,-49.26 96.94,-38.8 91.76,-48.04 98.66,-49.26"/>
</g>
<!-- 12 -->
<g id="node13" class="node">
<title>12</title>
<path fill="none" stroke="#68d856" stroke-width="2" d="M144,-108C144,-108 114,-108 114,-108 108,-108 102,-102 102,-96 102,-96 102,-84 102,-84 102,-78 108,-72 114,-72 114,-72 144,-72 144,-72 150,-72 156,-78 156,-84 156,-84 156,-96 156,-96 156,-102 150,-108 144,-108"/>
<text text-anchor="middle" x="129" y="-86.12" font-family="sans" font-size="10.00">scoper</text>
</g>
<!-- 5&#45;&gt;12 -->
<g id="edge17" class="edge">
<title>5&#45;&gt;12</title>
<path fill="none" stroke="grey" stroke-width="2" d="M114.05,-143.34C115.95,-136.67 118.18,-128.89 120.32,-121.39"/>
<polygon fill="grey" stroke="grey" stroke-width="2" points="124.5,-121.48 123.89,-110.9 117.77,-119.56 124.5,-121.48"/>
</g>
<!-- 6&#45;&gt;5 -->
<g id="edge8" class="edge">
<title>6&#45;&gt;5</title>
<path fill="none" stroke="grey" stroke-width="2" d="M142.64,-215.34C138.04,-208.18 132.61,-199.73 127.47,-191.73"/>
<polygon fill="grey" stroke="grey" stroke-width="2" points="129.86,-189.42 121.51,-182.9 123.97,-193.21 129.86,-189.42"/>
</g>
<!-- 7&#45;&gt;6 -->
<g id="edge10" class="edge">
<title>7&#45;&gt;6</title>
<path fill="none" stroke="grey" stroke-width="2" d="M169.7,-287.34C167.68,-280.59 165.31,-272.69 163.03,-265.11"/>
<polygon fill="grey" stroke="grey" stroke-width="2" points="165.6,-263.47 159.37,-254.9 158.89,-265.49 165.6,-263.47"/>
</g>
<!-- 8 -->
<g id="node9" class="node">
<title>8</title>
<path fill="none" stroke="#56d8d0" stroke-width="2" d="M302.88,-108C302.88,-108 187.12,-108 187.12,-108 181.12,-108 175.12,-102 175.12,-96 175.12,-96 175.12,-84 175.12,-84 175.12,-78 181.12,-72 187.12,-72 187.12,-72 302.88,-72 302.88,-72 308.88,-72 314.88,-78 314.88,-84 314.88,-84 314.88,-96 314.88,-96 314.88,-102 308.88,-108 302.88,-108"/>
<text text-anchor="middle" x="245" y="-86.12" font-family="sans" font-size="10.00">get_mptp_values_singletons</text>
</g>
<!-- 8&#45;&gt;0 -->
<g id="edge1" class="edge">
<title>8&#45;&gt;0</title>
<path fill="none" stroke="grey" stroke-width="2" d="M208.29,-71.15C187.44,-61.02 161.33,-48.33 140.1,-38.01"/>
<polygon fill="grey" stroke="grey" stroke-width="2" points="141.07,-34.62 130.55,-33.39 138.01,-40.91 141.07,-34.62"/>
</g>
<!-- 9 -->
<g id="node10" class="node">
<title>9</title>
<path fill="none" stroke="#56d86b" stroke-width="2" d="M272.12,-180C272.12,-180 217.88,-180 217.88,-180 211.88,-180 205.88,-174 205.88,-168 205.88,-168 205.88,-156 205.88,-156 205.88,-150 211.88,-144 217.88,-144 217.88,-144 272.12,-144 272.12,-144 278.12,-144 284.12,-150 284.12,-156 284.12,-156 284.12,-168 284.12,-168 284.12,-174 278.12,-180 272.12,-180"/>
<text text-anchor="middle" x="245" y="-158.12" font-family="sans" font-size="10.00">cut_tree_mptp</text>
</g>
<!-- 9&#45;&gt;8 -->
<g id="edge13" class="edge">
<title>9&#45;&gt;8</title>
<path fill="none" stroke="grey" stroke-width="2" d="M245,-143.34C245,-136.75 245,-129.08 245,-121.67"/>
<polygon fill="grey" stroke="grey" stroke-width="2" points="248.5,-121.9 245,-111.9 241.5,-121.9 248.5,-121.9"/>
</g>
<!-- 10 -->
<g id="node11" class="node">
<title>10</title>
<path fill="none" stroke="#567bd8" stroke-width="2" d="M263,-252C263,-252 229,-252 229,-252 223,-252 217,-246 217,-240 217,-240 217,-228 217,-228 217,-222 223,-216 229,-216 229,-216 263,-216 263,-216 269,-216 275,-222 275,-228 275,-228 275,-240 275,-240 275,-246 269,-252 263,-252"/>
<text text-anchor="middle" x="246" y="-230.12" font-family="sans" font-size="10.00">build_tree</text>
</g>
<!-- 10&#45;&gt;9 -->
<g id="edge14" class="edge">
<title>10&#45;&gt;9</title>
<path fill="none" stroke="grey" stroke-width="2" d="M245.75,-215.34C245.65,-208.75 245.54,-201.08 245.44,-193.67"/>
<polygon fill="grey" stroke="grey" stroke-width="2" points="248.9,-193.85 245.26,-183.9 241.9,-193.95 248.9,-193.85"/>
</g>
<!-- 11&#45;&gt;10 -->
<g id="edge15" class="edge">
<title>11&#45;&gt;10</title>
<path fill="none" stroke="grey" stroke-width="2" d="M246.75,-287.34C246.65,-280.75 246.54,-273.08 246.44,-265.67"/>
<polygon fill="grey" stroke="grey" stroke-width="2" points="249.9,-265.85 246.26,-255.9 242.9,-265.95 249.9,-265.85"/>
</g>
<!-- 12&#45;&gt;0 -->
<g id="edge3" class="edge">
<title>12&#45;&gt;0</title>
<path fill="none" stroke="grey" stroke-width="2" d="M121.93,-71.34C119.2,-64.51 116,-56.5 112.93,-48.83"/>
<polygon fill="grey" stroke="grey" stroke-width="2" points="116.12,-46.89 109.16,-38.9 109.63,-49.49 116.12,-46.89"/>
</g>
</g>
</svg>
