<?xml version="1.0" encoding="UTF-8" standalone="no"?>
<!DOCTYPE svg PUBLIC "-//W3C//DTD SVG 1.1//EN"
 "http://www.w3.org/Graphics/SVG/1.1/DTD/svg11.dtd">
<!-- Generated by graphviz version 2.30.1 (20180420.1509)
 -->
<!-- Title: snakemake_dag Pages: 1 -->
<svg width="390pt" height="476pt"
 viewBox="0.00 0.00 390.00 476.00" xmlns="http://www.w3.org/2000/svg" xmlns:xlink="http://www.w3.org/1999/xlink">
<g id="graph0" class="graph" transform="scale(1 1) rotate(0) translate(4 472)">
<title>snakemake_dag</title>
<polygon fill="white" stroke="white" points="-4,5 -4,-472 387,-472 387,5 -4,5"/>
<!-- 0 -->
<g id="node1" class="node"><title>0</title>
<path fill="none" stroke="#d85656" stroke-width="2" d="M146,-36C146,-36 116,-36 116,-36 110,-36 104,-30 104,-24 104,-24 104,-12 104,-12 104,-6 110,-0 116,-0 116,-0 146,-0 146,-0 152,-0 158,-6 158,-12 158,-12 158,-24 158,-24 158,-30 152,-36 146,-36"/>
<text text-anchor="middle" x="131" y="-15.5" font-family="sans" font-size="10.00">result</text>
</g>
<!-- 1 -->
<g id="node2" class="node"><title>1</title>
<path fill="none" stroke="#70d856" stroke-width="2" d="M116.25,-252C116.25,-252 75.75,-252 75.75,-252 69.75,-252 63.75,-246 63.75,-240 63.75,-240 63.75,-228 63.75,-228 63.75,-222 69.75,-216 75.75,-216 75.75,-216 116.25,-216 116.25,-216 122.25,-216 128.25,-222 128.25,-228 128.25,-228 128.25,-240 128.25,-240 128.25,-246 122.25,-252 116.25,-252"/>
<text text-anchor="middle" x="96" y="-231.5" font-family="sans" font-size="10.00">build_tree</text>
</g>
<!-- 1&#45;&gt;0 -->
<g id="edge1" class="edge"><title>1&#45;&gt;0</title>
<path fill="none" stroke="grey" stroke-width="2" d="M94.3061,-215.702C91.9133,-185.798 89.2372,-122.766 103,-72 105.493,-62.8051 109.783,-53.4087 114.267,-45.1309"/>
<polygon fill="grey" stroke="grey" points="117.377,-46.7445 119.326,-36.3306 111.308,-43.2558 117.377,-46.7445"/>
</g>
<!-- 6 -->
<g id="node7" class="node"><title>6</title>
<path fill="none" stroke="#56d86b" stroke-width="2" d="M44,-108C44,-108 12,-108 12,-108 6,-108 -3.55271e-15,-102 -3.55271e-15,-96 -3.55271e-15,-96 -3.55271e-15,-84 -3.55271e-15,-84 -3.55271e-15,-78 6,-72 12,-72 12,-72 44,-72 44,-72 50,-72 56,-78 56,-84 56,-84 56,-96 56,-96 56,-102 50,-108 44,-108"/>
<text text-anchor="middle" x="28" y="-87.5" font-family="sans" font-size="10.00">cut_tree</text>
</g>
<!-- 1&#45;&gt;6 -->
<g id="edge9" class="edge"><title>1&#45;&gt;6</title>
<path fill="none" stroke="grey" stroke-width="2" d="M87.5033,-215.846C82.3917,-205.486 75.7773,-192.006 70,-180 59.8735,-158.956 48.5872,-135.011 40.2664,-117.263"/>
<polygon fill="grey" stroke="grey" points="43.3854,-115.671 35.9751,-108.098 37.046,-118.639 43.3854,-115.671"/>
</g>
<!-- 8 -->
<g id="node9" class="node"><title>8</title>
<path fill="none" stroke="#d8b456" stroke-width="2" d="M213.25,-180C213.25,-180 124.75,-180 124.75,-180 118.75,-180 112.75,-174 112.75,-168 112.75,-168 112.75,-156 112.75,-156 112.75,-150 118.75,-144 124.75,-144 124.75,-144 213.25,-144 213.25,-144 219.25,-144 225.25,-150 225.25,-156 225.25,-156 225.25,-168 225.25,-168 225.25,-174 219.25,-180 213.25,-180"/>
<text text-anchor="middle" x="169" y="-159.5" font-family="sans" font-size="10.00">ancestral_sequence</text>
</g>
<!-- 1&#45;&gt;8 -->
<g id="edge12" class="edge"><title>1&#45;&gt;8</title>
<path fill="none" stroke="grey" stroke-width="2" d="M114.045,-215.697C123.062,-207.05 134.118,-196.449 143.943,-187.027"/>
<polygon fill="grey" stroke="grey" points="146.367,-189.552 151.163,-180.104 141.522,-184.499 146.367,-189.552"/>
</g>
<!-- 2 -->
<g id="node3" class="node"><title>2</title>
<path fill="none" stroke="#56d8c9" stroke-width="2" d="M203,-324C203,-324 135,-324 135,-324 129,-324 123,-318 123,-312 123,-312 123,-300 123,-300 123,-294 129,-288 135,-288 135,-288 203,-288 203,-288 209,-288 215,-294 215,-300 215,-300 215,-312 215,-312 215,-318 209,-324 203,-324"/>
<text text-anchor="middle" x="169" y="-303.5" font-family="sans" font-size="10.00">align_partitions</text>
</g>
<!-- 2&#45;&gt;1 -->
<g id="edge5" class="edge"><title>2&#45;&gt;1</title>
<path fill="none" stroke="grey" stroke-width="2" d="M150.955,-287.697C141.938,-279.05 130.882,-268.449 121.057,-259.027"/>
<polygon fill="grey" stroke="grey" points="123.478,-256.499 113.837,-252.104 118.633,-261.552 123.478,-256.499"/>
</g>
<!-- 2&#45;&gt;8 -->
<g id="edge13" class="edge"><title>2&#45;&gt;8</title>
<path fill="none" stroke="grey" stroke-width="2" d="M169,-287.871C169,-263.67 169,-219.211 169,-190.393"/>
<polygon fill="grey" stroke="grey" points="172.5,-190.189 169,-180.189 165.5,-190.189 172.5,-190.189"/>
</g>
<!-- 3 -->
<g id="node4" class="node"><title>3</title>
<path fill="none" stroke="#56d89a" stroke-width="2" d="M304.25,-396C304.25,-396 203.75,-396 203.75,-396 197.75,-396 191.75,-390 191.75,-384 191.75,-384 191.75,-372 191.75,-372 191.75,-366 197.75,-360 203.75,-360 203.75,-360 304.25,-360 304.25,-360 310.25,-360 316.25,-366 316.25,-372 316.25,-372 316.25,-384 316.25,-384 316.25,-390 310.25,-396 304.25,-396"/>
<text text-anchor="middle" x="254" y="-375.5" font-family="sans" font-size="10.00">analyze_partis_output</text>
</g>
<!-- 3&#45;&gt;2 -->
<g id="edge6" class="edge"><title>3&#45;&gt;2</title>
<path fill="none" stroke="grey" stroke-width="2" d="M232.989,-359.697C222.284,-350.881 209.11,-340.032 197.504,-330.474"/>
<polygon fill="grey" stroke="grey" points="199.714,-327.76 189.77,-324.104 195.264,-333.163 199.714,-327.76"/>
</g>
<!-- 5 -->
<g id="node6" class="node"><title>5</title>
<path fill="none" stroke="#5682d8" stroke-width="2" d="M369.25,-252C369.25,-252 294.75,-252 294.75,-252 288.75,-252 282.75,-246 282.75,-240 282.75,-240 282.75,-228 282.75,-228 282.75,-222 288.75,-216 294.75,-216 294.75,-216 369.25,-216 369.25,-216 375.25,-216 381.25,-222 381.25,-228 381.25,-228 381.25,-240 381.25,-240 381.25,-246 375.25,-252 369.25,-252"/>
<text text-anchor="middle" x="332" y="-231.5" font-family="sans" font-size="10.00">get_family_sizes</text>
</g>
<!-- 3&#45;&gt;5 -->
<g id="edge8" class="edge"><title>3&#45;&gt;5</title>
<path fill="none" stroke="grey" stroke-width="2" d="M263.409,-359.871C276.878,-335.35 301.771,-290.032 317.576,-261.259"/>
<polygon fill="grey" stroke="grey" points="320.811,-262.639 322.558,-252.189 314.676,-259.269 320.811,-262.639"/>
</g>
<!-- 7 -->
<g id="node8" class="node"><title>7</title>
<path fill="none" stroke="#ced856" stroke-width="2" d="M232,-108C232,-108 124,-108 124,-108 118,-108 112,-102 112,-96 112,-96 112,-84 112,-84 112,-78 118,-72 124,-72 124,-72 232,-72 232,-72 238,-72 244,-78 244,-84 244,-84 244,-96 244,-96 244,-102 238,-108 232,-108"/>
<text text-anchor="middle" x="178" y="-87.5" font-family="sans" font-size="10.00">compare_ancestral_seq</text>
</g>
<!-- 3&#45;&gt;7 -->
<g id="edge10" class="edge"><title>3&#45;&gt;7</title>
<path fill="none" stroke="grey" stroke-width="2" d="M256.498,-359.835C261.519,-319.729 269.53,-217.691 234,-144 228.694,-132.995 220.054,-123.101 211.131,-114.924"/>
<polygon fill="grey" stroke="grey" points="213.161,-112.054 203.294,-108.196 208.602,-117.365 213.161,-112.054"/>
</g>
<!-- 4 -->
<g id="node5" class="node"><title>4</title>
<path fill="none" stroke="#56b1d8" stroke-width="2" d="M271.25,-468C271.25,-468 236.75,-468 236.75,-468 230.75,-468 224.75,-462 224.75,-456 224.75,-456 224.75,-444 224.75,-444 224.75,-438 230.75,-432 236.75,-432 236.75,-432 271.25,-432 271.25,-432 277.25,-432 283.25,-438 283.25,-444 283.25,-444 283.25,-456 283.25,-456 283.25,-462 277.25,-468 271.25,-468"/>
<text text-anchor="middle" x="254" y="-447.5" font-family="sans" font-size="10.00">simulate</text>
</g>
<!-- 4&#45;&gt;3 -->
<g id="edge7" class="edge"><title>4&#45;&gt;3</title>
<path fill="none" stroke="grey" stroke-width="2" d="M254,-431.697C254,-423.983 254,-414.712 254,-406.112"/>
<polygon fill="grey" stroke="grey" points="257.5,-406.104 254,-396.104 250.5,-406.104 257.5,-406.104"/>
</g>
<!-- 5&#45;&gt;0 -->
<g id="edge4" class="edge"><title>5&#45;&gt;0</title>
<path fill="none" stroke="grey" stroke-width="2" d="M327.763,-215.584C319.057,-183.202 296.238,-113.28 253,-72 229.228,-49.3053 194.182,-35.4638 167.744,-27.646"/>
<polygon fill="grey" stroke="grey" points="168.648,-24.2645 158.075,-24.9388 166.761,-31.0053 168.648,-24.2645"/>
</g>
<!-- 6&#45;&gt;0 -->
<g id="edge2" class="edge"><title>6&#45;&gt;0</title>
<path fill="none" stroke="grey" stroke-width="2" d="M53.1966,-71.8761C66.4145,-62.8931 82.7923,-51.7625 97.1069,-42.0341"/>
<polygon fill="grey" stroke="grey" points="99.4031,-44.7055 105.707,-36.1898 95.4684,-38.9159 99.4031,-44.7055"/>
</g>
<!-- 7&#45;&gt;0 -->
<g id="edge3" class="edge"><title>7&#45;&gt;0</title>
<path fill="none" stroke="grey" stroke-width="2" d="M166.382,-71.6966C160.861,-63.4741 154.153,-53.4832 148.068,-44.4207"/>
<polygon fill="grey" stroke="grey" points="150.965,-42.4555 142.484,-36.1043 145.153,-46.3576 150.965,-42.4555"/>
</g>
<!-- 8&#45;&gt;7 -->
<g id="edge11" class="edge"><title>8&#45;&gt;7</title>
<path fill="none" stroke="grey" stroke-width="2" d="M171.225,-143.697C172.217,-135.983 173.408,-126.712 174.514,-118.112"/>
<polygon fill="grey" stroke="grey" points="177.997,-118.469 175.801,-108.104 171.054,-117.576 177.997,-118.469"/>
</g>
</g>
</svg>
