<?xml version="1.0" encoding="UTF-8" standalone="no"?>
<!DOCTYPE svg PUBLIC "-//W3C//DTD SVG 1.1//EN"
 "http://www.w3.org/Graphics/SVG/1.1/DTD/svg11.dtd">
<!-- Generated by graphviz version 2.30.1 (20180420.1509)
 -->
<!-- Title: snakemake_dag Pages: 1 -->
<svg width="132pt" height="404pt"
 viewBox="0.00 0.00 132.00 404.00" xmlns="http://www.w3.org/2000/svg" xmlns:xlink="http://www.w3.org/1999/xlink">
<g id="graph0" class="graph" transform="scale(1 1) rotate(0) translate(4 400)">
<title>snakemake_dag</title>
<polygon fill="white" stroke="white" points="-4,5 -4,-400 129,-400 129,5 -4,5"/>
<!-- 0 -->
<g id="node1" class="node"><title>0</title>
<path fill="none" stroke="#56d8d8" stroke-width="2" d="M77,-36C77,-36 47,-36 47,-36 41,-36 35,-30 35,-24 35,-24 35,-12 35,-12 35,-6 41,-0 47,-0 47,-0 77,-0 77,-0 83,-0 89,-6 89,-12 89,-12 89,-24 89,-24 89,-30 83,-36 77,-36"/>
<text text-anchor="middle" x="62" y="-15.5" font-family="sans" font-size="10.00">result</text>
</g>
<!-- 1 -->
<g id="node2" class="node"><title>1</title>
<path fill="none" stroke="#d85656" stroke-width="2" d="M82.25,-108C82.25,-108 41.75,-108 41.75,-108 35.75,-108 29.75,-102 29.75,-96 29.75,-96 29.75,-84 29.75,-84 29.75,-78 35.75,-72 41.75,-72 41.75,-72 82.25,-72 82.25,-72 88.25,-72 94.25,-78 94.25,-84 94.25,-84 94.25,-96 94.25,-96 94.25,-102 88.25,-108 82.25,-108"/>
<text text-anchor="middle" x="62" y="-87.5" font-family="sans" font-size="10.00">build_tree</text>
</g>
<!-- 1&#45;&gt;0 -->
<g id="edge1" class="edge"><title>1&#45;&gt;0</title>
<path fill="none" stroke="grey" stroke-width="2" d="M62,-71.6966C62,-63.9827 62,-54.7125 62,-46.1124"/>
<polygon fill="grey" stroke="grey" points="65.5001,-46.1043 62,-36.1043 58.5001,-46.1044 65.5001,-46.1043"/>
</g>
<!-- 2 -->
<g id="node3" class="node"><title>2</title>
<path fill="none" stroke="#569ad8" stroke-width="2" d="M96,-180C96,-180 28,-180 28,-180 22,-180 16,-174 16,-168 16,-168 16,-156 16,-156 16,-150 22,-144 28,-144 28,-144 96,-144 96,-144 102,-144 108,-150 108,-156 108,-156 108,-168 108,-168 108,-174 102,-180 96,-180"/>
<text text-anchor="middle" x="62" y="-159.5" font-family="sans" font-size="10.00">align_partitions</text>
</g>
<!-- 2&#45;&gt;1 -->
<g id="edge2" class="edge"><title>2&#45;&gt;1</title>
<path fill="none" stroke="grey" stroke-width="2" d="M62,-143.697C62,-135.983 62,-126.712 62,-118.112"/>
<polygon fill="grey" stroke="grey" points="65.5001,-118.104 62,-108.104 58.5001,-118.104 65.5001,-118.104"/>
</g>
<!-- 3 -->
<g id="node4" class="node"><title>3</title>
<path fill="none" stroke="#d89556" stroke-width="2" d="M112.25,-252C112.25,-252 11.75,-252 11.75,-252 5.75,-252 -0.25,-246 -0.25,-240 -0.25,-240 -0.25,-228 -0.25,-228 -0.25,-222 5.75,-216 11.75,-216 11.75,-216 112.25,-216 112.25,-216 118.25,-216 124.25,-222 124.25,-228 124.25,-228 124.25,-240 124.25,-240 124.25,-246 118.25,-252 112.25,-252"/>
<text text-anchor="middle" x="62" y="-231.5" font-family="sans" font-size="10.00">analyze_partis_output</text>
</g>
<!-- 3&#45;&gt;2 -->
<g id="edge3" class="edge"><title>3&#45;&gt;2</title>
<path fill="none" stroke="grey" stroke-width="2" d="M62,-215.697C62,-207.983 62,-198.712 62,-190.112"/>
<polygon fill="grey" stroke="grey" points="65.5001,-190.104 62,-180.104 58.5001,-190.104 65.5001,-190.104"/>
</g>
<!-- 4 -->
<g id="node5" class="node"><title>4</title>
<path fill="none" stroke="#59d856" stroke-width="2" d="M79.25,-324C79.25,-324 44.75,-324 44.75,-324 38.75,-324 32.75,-318 32.75,-312 32.75,-312 32.75,-300 32.75,-300 32.75,-294 38.75,-288 44.75,-288 44.75,-288 79.25,-288 79.25,-288 85.25,-288 91.25,-294 91.25,-300 91.25,-300 91.25,-312 91.25,-312 91.25,-318 85.25,-324 79.25,-324"/>
<text text-anchor="middle" x="62" y="-303.5" font-family="sans" font-size="10.00">simulate</text>
</g>
<!-- 4&#45;&gt;3 -->
<g id="edge4" class="edge"><title>4&#45;&gt;3</title>
<path fill="none" stroke="grey" stroke-width="2" d="M62,-287.697C62,-279.983 62,-270.712 62,-262.112"/>
<polygon fill="grey" stroke="grey" points="65.5001,-262.104 62,-252.104 58.5001,-262.104 65.5001,-262.104"/>
</g>
<!-- 5 -->
<g id="node6" class="node"><title>5</title>
<path fill="none" stroke="#56d89a" stroke-width="2" stroke-dasharray="5,2" d="M88.25,-396C88.25,-396 35.75,-396 35.75,-396 29.75,-396 23.75,-390 23.75,-384 23.75,-384 23.75,-372 23.75,-372 23.75,-366 29.75,-360 35.75,-360 35.75,-360 88.25,-360 88.25,-360 94.25,-360 100.25,-366 100.25,-372 100.25,-372 100.25,-384 100.25,-384 100.25,-390 94.25,-396 88.25,-396"/>
<text text-anchor="middle" x="62" y="-381" font-family="sans" font-size="10.00">tsv_to_fasta</text>
<text text-anchor="middle" x="62" y="-370" font-family="sans" font-size="10.00">d: nielson1</text>
</g>
<!-- 5&#45;&gt;4 -->
<g id="edge5" class="edge"><title>5&#45;&gt;4</title>
<path fill="none" stroke="grey" stroke-width="2" d="M62,-359.697C62,-351.983 62,-342.712 62,-334.112"/>
<polygon fill="grey" stroke="grey" points="65.5001,-334.104 62,-324.104 58.5001,-334.104 65.5001,-334.104"/>
</g>
</g>
</svg>
