<?xml version="1.0" encoding="UTF-8" standalone="no"?>
<!DOCTYPE svg PUBLIC "-//W3C//DTD SVG 1.1//EN"
 "http://www.w3.org/Graphics/SVG/1.1/DTD/svg11.dtd">
<!-- Generated by graphviz version 2.30.1 (20180420.1509)
 -->
<!-- Title: snakemake_dag Pages: 1 -->
<svg width="384pt" height="260pt"
 viewBox="0.00 0.00 384.00 260.00" xmlns="http://www.w3.org/2000/svg" xmlns:xlink="http://www.w3.org/1999/xlink">
<g id="graph0" class="graph" transform="scale(1 1) rotate(0) translate(4 256)">
<title>snakemake_dag</title>
<polygon fill="white" stroke="white" points="-4,5 -4,-256 381,-256 381,5 -4,5"/>
<!-- 0 -->
<g id="node1" class="node"><title>0</title>
<path fill="none" stroke="#d85656" stroke-width="2" d="M192,-36C192,-36 162,-36 162,-36 156,-36 150,-30 150,-24 150,-24 150,-12 150,-12 150,-6 156,-0 162,-0 162,-0 192,-0 192,-0 198,-0 204,-6 204,-12 204,-12 204,-24 204,-24 204,-30 198,-36 192,-36"/>
<text text-anchor="middle" x="177" y="-15.5" font-family="sans" font-size="10.00">result</text>
</g>
<!-- 1 -->
<g id="node2" class="node"><title>1</title>
<path fill="none" stroke="#59d856" stroke-width="2" d="M94,-108C94,-108 12,-108 12,-108 6,-108 0,-102 0,-96 0,-96 0,-84 0,-84 0,-78 6,-72 12,-72 12,-72 94,-72 94,-72 100,-72 106,-78 106,-84 106,-84 106,-96 106,-96 106,-102 100,-108 94,-108"/>
<text text-anchor="middle" x="53" y="-87.5" font-family="sans" font-size="10.00">partition_simulate</text>
</g>
<!-- 1&#45;&gt;0 -->
<g id="edge1" class="edge"><title>1&#45;&gt;0</title>
<path fill="none" stroke="grey" stroke-width="2" d="M83.3338,-71.8761C100.753,-62.0425 122.732,-49.6353 141.02,-39.3113"/>
<polygon fill="grey" stroke="grey" points="142.946,-42.2432 149.934,-34.2793 139.505,-36.1475 142.946,-42.2432"/>
</g>
<!-- 2 -->
<g id="node3" class="node"><title>2</title>
<path fill="none" stroke="#d6d856" stroke-width="2" stroke-dasharray="5,2" d="M96.25,-252C96.25,-252 43.75,-252 43.75,-252 37.75,-252 31.75,-246 31.75,-240 31.75,-240 31.75,-228 31.75,-228 31.75,-222 37.75,-216 43.75,-216 43.75,-216 96.25,-216 96.25,-216 102.25,-216 108.25,-222 108.25,-228 108.25,-228 108.25,-240 108.25,-240 108.25,-246 102.25,-252 96.25,-252"/>
<text text-anchor="middle" x="70" y="-237" font-family="sans" font-size="10.00">tsv_to_fasta</text>
<text text-anchor="middle" x="70" y="-226" font-family="sans" font-size="10.00">d: nielson3</text>
</g>
<!-- 2&#45;&gt;1 -->
<g id="edge4" class="edge"><title>2&#45;&gt;1</title>
<path fill="none" stroke="grey" stroke-width="2" d="M62.1071,-215.745C57.8928,-205.577 53.1428,-192.327 51,-180 47.449,-159.572 48.1691,-136.113 49.6589,-118.409"/>
<polygon fill="grey" stroke="grey" points="53.1664,-118.502 50.6547,-108.209 46.1995,-117.822 53.1664,-118.502"/>
</g>
<!-- 3 -->
<g id="node4" class="node"><title>3</title>
<path fill="none" stroke="#56d8d8" stroke-width="2" stroke-dasharray="5,2" d="M107.25,-180C107.25,-180 72.75,-180 72.75,-180 66.75,-180 60.75,-174 60.75,-168 60.75,-168 60.75,-156 60.75,-156 60.75,-150 66.75,-144 72.75,-144 72.75,-144 107.25,-144 107.25,-144 113.25,-144 119.25,-150 119.25,-156 119.25,-156 119.25,-168 119.25,-168 119.25,-174 113.25,-180 107.25,-180"/>
<text text-anchor="middle" x="90" y="-159.5" font-family="sans" font-size="10.00">simulate</text>
</g>
<!-- 2&#45;&gt;3 -->
<g id="edge6" class="edge"><title>2&#45;&gt;3</title>
<path fill="none" stroke="grey" stroke-width="2" d="M74.9438,-215.697C77.172,-207.898 79.8547,-198.509 82.3345,-189.829"/>
<polygon fill="grey" stroke="grey" points="85.7311,-190.681 85.113,-180.104 79.0004,-188.758 85.7311,-190.681"/>
</g>
<!-- 3&#45;&gt;1 -->
<g id="edge5" class="edge"><title>3&#45;&gt;1</title>
<path fill="none" stroke="grey" stroke-width="2" d="M80.8539,-143.697C76.5974,-135.644 71.4442,-125.894 66.7336,-116.982"/>
<polygon fill="grey" stroke="grey" points="69.8083,-115.31 62.0409,-108.104 63.6197,-118.581 69.8083,-115.31"/>
</g>
<!-- 4 -->
<g id="node5" class="node"><title>4</title>
<path fill="none" stroke="#59d856" stroke-width="2" d="M218,-108C218,-108 136,-108 136,-108 130,-108 124,-102 124,-96 124,-96 124,-84 124,-84 124,-78 130,-72 136,-72 136,-72 218,-72 218,-72 224,-72 230,-78 230,-84 230,-84 230,-96 230,-96 230,-102 224,-108 218,-108"/>
<text text-anchor="middle" x="177" y="-87.5" font-family="sans" font-size="10.00">partition_simulate</text>
</g>
<!-- 4&#45;&gt;0 -->
<g id="edge2" class="edge"><title>4&#45;&gt;0</title>
<path fill="none" stroke="grey" stroke-width="2" d="M177,-71.6966C177,-63.9827 177,-54.7125 177,-46.1124"/>
<polygon fill="grey" stroke="grey" points="180.5,-46.1043 177,-36.1043 173.5,-46.1044 180.5,-46.1043"/>
</g>
<!-- 5 -->
<g id="node6" class="node"><title>5</title>
<path fill="none" stroke="#d6d856" stroke-width="2" stroke-dasharray="5,2" d="M208.25,-252C208.25,-252 155.75,-252 155.75,-252 149.75,-252 143.75,-246 143.75,-240 143.75,-240 143.75,-228 143.75,-228 143.75,-222 149.75,-216 155.75,-216 155.75,-216 208.25,-216 208.25,-216 214.25,-216 220.25,-222 220.25,-228 220.25,-228 220.25,-240 220.25,-240 220.25,-246 214.25,-252 208.25,-252"/>
<text text-anchor="middle" x="182" y="-237" font-family="sans" font-size="10.00">tsv_to_fasta</text>
<text text-anchor="middle" x="182" y="-226" font-family="sans" font-size="10.00">d: nielson2</text>
</g>
<!-- 5&#45;&gt;4 -->
<g id="edge7" class="edge"><title>5&#45;&gt;4</title>
<path fill="none" stroke="grey" stroke-width="2" d="M181.397,-215.871C180.545,-191.67 178.979,-147.211 177.965,-118.393"/>
<polygon fill="grey" stroke="grey" points="181.455,-118.06 177.605,-108.189 174.459,-118.306 181.455,-118.06"/>
</g>
<!-- 6 -->
<g id="node7" class="node"><title>6</title>
<path fill="none" stroke="#56d8d8" stroke-width="2" stroke-dasharray="5,2" d="M237.25,-180C237.25,-180 202.75,-180 202.75,-180 196.75,-180 190.75,-174 190.75,-168 190.75,-168 190.75,-156 190.75,-156 190.75,-150 196.75,-144 202.75,-144 202.75,-144 237.25,-144 237.25,-144 243.25,-144 249.25,-150 249.25,-156 249.25,-156 249.25,-168 249.25,-168 249.25,-174 243.25,-180 237.25,-180"/>
<text text-anchor="middle" x="220" y="-159.5" font-family="sans" font-size="10.00">simulate</text>
</g>
<!-- 5&#45;&gt;6 -->
<g id="edge9" class="edge"><title>5&#45;&gt;6</title>
<path fill="none" stroke="grey" stroke-width="2" d="M191.393,-215.697C195.765,-207.644 201.057,-197.894 205.895,-188.982"/>
<polygon fill="grey" stroke="grey" points="209.02,-190.563 210.715,-180.104 202.868,-187.223 209.02,-190.563"/>
</g>
<!-- 6&#45;&gt;4 -->
<g id="edge8" class="edge"><title>6&#45;&gt;4</title>
<path fill="none" stroke="grey" stroke-width="2" d="M209.371,-143.697C204.372,-135.559 198.309,-125.689 192.788,-116.701"/>
<polygon fill="grey" stroke="grey" points="195.723,-114.793 187.507,-108.104 189.759,-118.457 195.723,-114.793"/>
</g>
<!-- 7 -->
<g id="node8" class="node"><title>7</title>
<path fill="none" stroke="#59d856" stroke-width="2" d="M342,-108C342,-108 260,-108 260,-108 254,-108 248,-102 248,-96 248,-96 248,-84 248,-84 248,-78 254,-72 260,-72 260,-72 342,-72 342,-72 348,-72 354,-78 354,-84 354,-84 354,-96 354,-96 354,-102 348,-108 342,-108"/>
<text text-anchor="middle" x="301" y="-87.5" font-family="sans" font-size="10.00">partition_simulate</text>
</g>
<!-- 7&#45;&gt;0 -->
<g id="edge3" class="edge"><title>7&#45;&gt;0</title>
<path fill="none" stroke="grey" stroke-width="2" d="M270.666,-71.8761C253.247,-62.0425 231.268,-49.6353 212.98,-39.3113"/>
<polygon fill="grey" stroke="grey" points="214.495,-36.1475 204.066,-34.2793 211.054,-42.2432 214.495,-36.1475"/>
</g>
<!-- 8 -->
<g id="node9" class="node"><title>8</title>
<path fill="none" stroke="#d6d856" stroke-width="2" stroke-dasharray="5,2" d="M344.25,-252C344.25,-252 291.75,-252 291.75,-252 285.75,-252 279.75,-246 279.75,-240 279.75,-240 279.75,-228 279.75,-228 279.75,-222 285.75,-216 291.75,-216 291.75,-216 344.25,-216 344.25,-216 350.25,-216 356.25,-222 356.25,-228 356.25,-228 356.25,-240 356.25,-240 356.25,-246 350.25,-252 344.25,-252"/>
<text text-anchor="middle" x="318" y="-237" font-family="sans" font-size="10.00">tsv_to_fasta</text>
<text text-anchor="middle" x="318" y="-226" font-family="sans" font-size="10.00">d: nielson1</text>
</g>
<!-- 8&#45;&gt;7 -->
<g id="edge10" class="edge"><title>8&#45;&gt;7</title>
<path fill="none" stroke="grey" stroke-width="2" d="M314.739,-215.865C312.856,-205.512 310.56,-192.032 309,-180 306.324,-159.36 304.256,-135.911 302.893,-118.265"/>
<polygon fill="grey" stroke="grey" points="306.37,-117.818 302.137,-108.105 299.389,-118.338 306.37,-117.818"/>
</g>
<!-- 9 -->
<g id="node10" class="node"><title>9</title>
<path fill="none" stroke="#56d8d8" stroke-width="2" stroke-dasharray="5,2" d="M364.25,-180C364.25,-180 329.75,-180 329.75,-180 323.75,-180 317.75,-174 317.75,-168 317.75,-168 317.75,-156 317.75,-156 317.75,-150 323.75,-144 329.75,-144 329.75,-144 364.25,-144 364.25,-144 370.25,-144 376.25,-150 376.25,-156 376.25,-156 376.25,-168 376.25,-168 376.25,-174 370.25,-180 364.25,-180"/>
<text text-anchor="middle" x="347" y="-159.5" font-family="sans" font-size="10.00">simulate</text>
</g>
<!-- 8&#45;&gt;9 -->
<g id="edge12" class="edge"><title>8&#45;&gt;9</title>
<path fill="none" stroke="grey" stroke-width="2" d="M325.169,-215.697C328.435,-207.813 332.374,-198.304 336.002,-189.546"/>
<polygon fill="grey" stroke="grey" points="339.32,-190.683 339.914,-180.104 332.853,-188.003 339.32,-190.683"/>
</g>
<!-- 9&#45;&gt;7 -->
<g id="edge11" class="edge"><title>9&#45;&gt;7</title>
<path fill="none" stroke="grey" stroke-width="2" d="M335.629,-143.697C330.282,-135.559 323.796,-125.689 317.889,-116.701"/>
<polygon fill="grey" stroke="grey" points="320.657,-114.539 312.24,-108.104 314.807,-118.384 320.657,-114.539"/>
</g>
</g>
</svg>
