<?xml version="1.0" encoding="UTF-8" standalone="no"?>
<!DOCTYPE svg PUBLIC "-//W3C//DTD SVG 1.1//EN"
 "http://www.w3.org/Graphics/SVG/1.1/DTD/svg11.dtd">
<!-- Generated by graphviz version 8.1.0 (20230707.0739)
 -->
<!-- Title: snakemake_dag Pages: 1 -->
<svg width="276pt" height="548pt"
 viewBox="0.00 0.00 275.88 548.00" xmlns="http://www.w3.org/2000/svg" xmlns:xlink="http://www.w3.org/1999/xlink">
<g id="graph0" class="graph" transform="scale(1 1) rotate(0) translate(4 544)">
<title>snakemake_dag</title>
<polygon fill="white" stroke="none" points="-4,4 -4,-544 271.88,-544 271.88,4 -4,4"/>
<!-- 0 -->
<g id="node1" class="node">
<title>0</title>
<path fill="none" stroke="#56d87b" stroke-width="2" d="M109,-36C109,-36 79,-36 79,-36 73,-36 67,-30 67,-24 67,-24 67,-12 67,-12 67,-6 73,0 79,0 79,0 109,0 109,0 115,0 121,-6 121,-12 121,-12 121,-24 121,-24 121,-30 115,-36 109,-36"/>
<text text-anchor="middle" x="94" y="-14.12" font-family="sans" font-size="10.00">all</text>
</g>
<!-- 1 -->
<g id="node2" class="node">
<title>1</title>
<path fill="none" stroke="#567bd8" stroke-width="2" d="M42,-108C42,-108 12,-108 12,-108 6,-108 0,-102 0,-96 0,-96 0,-84 0,-84 0,-78 6,-72 12,-72 12,-72 42,-72 42,-72 48,-72 54,-78 54,-84 54,-84 54,-96 54,-96 54,-102 48,-108 42,-108"/>
<text text-anchor="middle" x="27" y="-86.12" font-family="sans" font-size="10.00">mixcr</text>
</g>
<!-- 1&#45;&gt;0 -->
<g id="edge3" class="edge">
<title>1&#45;&gt;0</title>
<path fill="none" stroke="grey" stroke-width="2" d="M43.91,-71.34C51.23,-63.69 59.97,-54.56 68.08,-46.08"/>
<polygon fill="grey" stroke="grey" stroke-width="2" points="70.48,-48.55 74.87,-38.9 65.42,-43.71 70.48,-48.55"/>
</g>
<!-- 2 -->
<g id="node3" class="node">
<title>2</title>
<path fill="none" stroke="#78d856" stroke-width="2" d="M115.88,-396C115.88,-396 42.12,-396 42.12,-396 36.12,-396 30.12,-390 30.12,-384 30.12,-384 30.12,-372 30.12,-372 30.12,-366 36.12,-360 42.12,-360 42.12,-360 115.88,-360 115.88,-360 121.88,-360 127.88,-366 127.88,-372 127.88,-372 127.88,-384 127.88,-384 127.88,-390 121.88,-396 115.88,-396"/>
<text text-anchor="middle" x="79" y="-374.12" font-family="sans" font-size="10.00">remove_singletons</text>
</g>
<!-- 2&#45;&gt;1 -->
<g id="edge4" class="edge">
<title>2&#45;&gt;1</title>
<path fill="none" stroke="grey" stroke-width="2" d="M68.49,-359.47C62.97,-349.43 56.61,-336.4 53,-324 32.5,-253.68 27.98,-167.09 27.09,-121.85"/>
<polygon fill="grey" stroke="grey" stroke-width="2" points="30.56,-121.9 26.92,-111.94 23.56,-121.99 30.56,-121.9"/>
</g>
<!-- 5 -->
<g id="node6" class="node">
<title>5</title>
<path fill="none" stroke="#56d8c9" stroke-width="2" d="M109,-180C109,-180 79,-180 79,-180 73,-180 67,-174 67,-168 67,-168 67,-156 67,-156 67,-150 73,-144 79,-144 79,-144 109,-144 109,-144 115,-144 121,-150 121,-156 121,-156 121,-168 121,-168 121,-174 115,-180 109,-180"/>
<text text-anchor="middle" x="94" y="-158.12" font-family="sans" font-size="10.00">changeo</text>
</g>
<!-- 2&#45;&gt;5 -->
<g id="edge8" class="edge">
<title>2&#45;&gt;5</title>
<path fill="none" stroke="grey" stroke-width="2" d="M72.38,-359.22C62.16,-329.13 45.19,-266.51 60,-216 62.49,-207.5 66.81,-199.07 71.55,-191.52"/>
<polygon fill="grey" stroke="grey" stroke-width="2" points="75.11,-193.07 77.89,-182.84 69.34,-189.1 75.11,-193.07"/>
</g>
<!-- 6 -->
<g id="node7" class="node">
<title>6</title>
<path fill="none" stroke="#9fd856" stroke-width="2" d="M144.62,-252C144.62,-252 81.38,-252 81.38,-252 75.38,-252 69.38,-246 69.38,-240 69.38,-240 69.38,-228 69.38,-228 69.38,-222 75.38,-216 81.38,-216 81.38,-216 144.62,-216 144.62,-216 150.62,-216 156.62,-222 156.62,-228 156.62,-228 156.62,-240 156.62,-240 156.62,-246 150.62,-252 144.62,-252"/>
<text text-anchor="middle" x="113" y="-230.12" font-family="sans" font-size="10.00">combine_vquest</text>
</g>
<!-- 2&#45;&gt;6 -->
<g id="edge10" class="edge">
<title>2&#45;&gt;6</title>
<path fill="none" stroke="grey" stroke-width="2" d="M82.44,-359.19C86.01,-341.17 91.92,-312.54 98,-288 99.86,-280.48 102.05,-272.42 104.17,-264.9"/>
<polygon fill="grey" stroke="grey" stroke-width="2" points="108.31,-265.17 107.71,-254.59 101.58,-263.23 108.31,-265.17"/>
</g>
<!-- 7 -->
<g id="node8" class="node">
<title>7</title>
<path fill="none" stroke="#56c9d8" stroke-width="2" d="M149,-324C149,-324 119,-324 119,-324 113,-324 107,-318 107,-312 107,-312 107,-300 107,-300 107,-294 113,-288 119,-288 119,-288 149,-288 149,-288 155,-288 161,-294 161,-300 161,-300 161,-312 161,-312 161,-318 155,-324 149,-324"/>
<text text-anchor="middle" x="134" y="-302.12" font-family="sans" font-size="10.00">findVDJ</text>
</g>
<!-- 2&#45;&gt;7 -->
<g id="edge11" class="edge">
<title>2&#45;&gt;7</title>
<path fill="none" stroke="grey" stroke-width="2" d="M92.88,-359.34C98.7,-351.93 105.6,-343.14 112.08,-334.9"/>
<polygon fill="grey" stroke="grey" stroke-width="2" points="115.51,-336.93 118.93,-326.9 110,-332.6 115.51,-336.93"/>
</g>
<!-- 11 -->
<g id="node12" class="node">
<title>11</title>
<path fill="none" stroke="#59d856" stroke-width="2" d="M221,-324C221,-324 191,-324 191,-324 185,-324 179,-318 179,-312 179,-312 179,-300 179,-300 179,-294 185,-288 191,-288 191,-288 221,-288 221,-288 227,-288 233,-294 233,-300 233,-300 233,-312 233,-312 233,-318 227,-324 221,-324"/>
<text text-anchor="middle" x="206" y="-302.12" font-family="sans" font-size="10.00">align</text>
</g>
<!-- 2&#45;&gt;11 -->
<g id="edge15" class="edge">
<title>2&#45;&gt;11</title>
<path fill="none" stroke="grey" stroke-width="2" d="M111.38,-359.15C128.38,-349.78 149.33,-338.23 167.2,-328.39"/>
<polygon fill="grey" stroke="grey" stroke-width="2" points="169.35,-331.1 176.42,-323.2 165.97,-324.97 169.35,-331.1"/>
</g>
<!-- 3 -->
<g id="node4" class="node">
<title>3</title>
<path fill="none" stroke="#d8a456" stroke-width="2" d="M122.62,-468C122.62,-468 35.38,-468 35.38,-468 29.38,-468 23.38,-462 23.38,-456 23.38,-456 23.38,-444 23.38,-444 23.38,-438 29.38,-432 35.38,-432 35.38,-432 122.62,-432 122.62,-432 128.62,-432 134.62,-438 134.62,-444 134.62,-444 134.62,-456 134.62,-456 134.62,-462 128.62,-468 122.62,-468"/>
<text text-anchor="middle" x="79" y="-446.12" font-family="sans" font-size="10.00">analyze_partis_output</text>
</g>
<!-- 3&#45;&gt;2 -->
<g id="edge5" class="edge">
<title>3&#45;&gt;2</title>
<path fill="none" stroke="grey" stroke-width="2" d="M79,-431.34C79,-424.75 79,-417.08 79,-409.67"/>
<polygon fill="grey" stroke="grey" stroke-width="2" points="82.5,-409.9 79,-399.9 75.5,-409.9 82.5,-409.9"/>
</g>
<!-- 4 -->
<g id="node5" class="node">
<title>4</title>
<path fill="none" stroke="#d85656" stroke-width="2" d="M94,-540C94,-540 64,-540 64,-540 58,-540 52,-534 52,-528 52,-528 52,-516 52,-516 52,-510 58,-504 64,-504 64,-504 94,-504 94,-504 100,-504 106,-510 106,-516 106,-516 106,-528 106,-528 106,-534 100,-540 94,-540"/>
<text text-anchor="middle" x="79" y="-518.12" font-family="sans" font-size="10.00">simulate</text>
</g>
<!-- 4&#45;&gt;3 -->
<g id="edge6" class="edge">
<title>4&#45;&gt;3</title>
<path fill="none" stroke="grey" stroke-width="2" d="M79,-503.34C79,-496.75 79,-489.08 79,-481.67"/>
<polygon fill="grey" stroke="grey" stroke-width="2" points="82.5,-481.9 79,-471.9 75.5,-481.9 82.5,-481.9"/>
</g>
<!-- 5&#45;&gt;0 -->
<g id="edge1" class="edge">
<title>5&#45;&gt;0</title>
<path fill="none" stroke="grey" stroke-width="2" d="M94,-143.02C94,-119.54 94,-78.11 94,-49.64"/>
<polygon fill="grey" stroke="grey" stroke-width="2" points="97.5,-49.84 94,-39.84 90.5,-49.84 97.5,-49.84"/>
</g>
<!-- 6&#45;&gt;5 -->
<g id="edge7" class="edge">
<title>6&#45;&gt;5</title>
<path fill="none" stroke="grey" stroke-width="2" d="M108.21,-215.34C106.4,-208.67 104.28,-200.89 102.25,-193.39"/>
<polygon fill="grey" stroke="grey" stroke-width="2" points="104.86,-191.64 98.86,-182.9 98.1,-193.47 104.86,-191.64"/>
</g>
<!-- 7&#45;&gt;6 -->
<g id="edge9" class="edge">
<title>7&#45;&gt;6</title>
<path fill="none" stroke="grey" stroke-width="2" d="M128.7,-287.34C126.68,-280.59 124.31,-272.69 122.03,-265.11"/>
<polygon fill="grey" stroke="grey" stroke-width="2" points="124.6,-263.47 118.37,-254.9 117.89,-265.49 124.6,-263.47"/>
</g>
<!-- 8 -->
<g id="node9" class="node">
<title>8</title>
<path fill="none" stroke="#d8c356" stroke-width="2" d="M255.88,-108C255.88,-108 140.12,-108 140.12,-108 134.12,-108 128.12,-102 128.12,-96 128.12,-96 128.12,-84 128.12,-84 128.12,-78 134.12,-72 140.12,-72 140.12,-72 255.88,-72 255.88,-72 261.88,-72 267.88,-78 267.88,-84 267.88,-84 267.88,-96 267.88,-96 267.88,-102 261.88,-108 255.88,-108"/>
<text text-anchor="middle" x="198" y="-86.12" font-family="sans" font-size="10.00">get_mptp_values_singletons</text>
</g>
<!-- 8&#45;&gt;0 -->
<g id="edge2" class="edge">
<title>8&#45;&gt;0</title>
<path fill="none" stroke="grey" stroke-width="2" d="M171.49,-71.15C159.26,-62.93 144.54,-53.02 131.23,-44.06"/>
<polygon fill="grey" stroke="grey" stroke-width="2" points="132.71,-40.49 122.46,-37.81 128.81,-46.3 132.71,-40.49"/>
</g>
<!-- 9 -->
<g id="node10" class="node">
<title>9</title>
<path fill="none" stroke="#c6d856" stroke-width="2" d="M228.12,-180C228.12,-180 173.88,-180 173.88,-180 167.88,-180 161.88,-174 161.88,-168 161.88,-168 161.88,-156 161.88,-156 161.88,-150 167.88,-144 173.88,-144 173.88,-144 228.12,-144 228.12,-144 234.12,-144 240.12,-150 240.12,-156 240.12,-156 240.12,-168 240.12,-168 240.12,-174 234.12,-180 228.12,-180"/>
<text text-anchor="middle" x="201" y="-158.12" font-family="sans" font-size="10.00">cut_tree_mptp</text>
</g>
<!-- 9&#45;&gt;8 -->
<g id="edge12" class="edge">
<title>9&#45;&gt;8</title>
<path fill="none" stroke="grey" stroke-width="2" d="M200.24,-143.34C199.96,-136.75 199.63,-129.08 199.31,-121.67"/>
<polygon fill="grey" stroke="grey" stroke-width="2" points="202.69,-121.74 198.77,-111.9 195.7,-122.04 202.69,-121.74"/>
</g>
<!-- 10 -->
<g id="node11" class="node">
<title>10</title>
<path fill="none" stroke="#56a2d8" stroke-width="2" d="M222,-252C222,-252 188,-252 188,-252 182,-252 176,-246 176,-240 176,-240 176,-228 176,-228 176,-222 182,-216 188,-216 188,-216 222,-216 222,-216 228,-216 234,-222 234,-228 234,-228 234,-240 234,-240 234,-246 228,-252 222,-252"/>
<text text-anchor="middle" x="205" y="-230.12" font-family="sans" font-size="10.00">build_tree</text>
</g>
<!-- 10&#45;&gt;9 -->
<g id="edge13" class="edge">
<title>10&#45;&gt;9</title>
<path fill="none" stroke="grey" stroke-width="2" d="M203.99,-215.34C203.61,-208.75 203.18,-201.08 202.75,-193.67"/>
<polygon fill="grey" stroke="grey" stroke-width="2" points="206.09,-193.69 202.02,-183.9 199.1,-194.09 206.09,-193.69"/>
</g>
<!-- 11&#45;&gt;10 -->
<g id="edge14" class="edge">
<title>11&#45;&gt;10</title>
<path fill="none" stroke="grey" stroke-width="2" d="M205.75,-287.34C205.65,-280.75 205.54,-273.08 205.44,-265.67"/>
<polygon fill="grey" stroke="grey" stroke-width="2" points="208.9,-265.85 205.26,-255.9 201.9,-265.95 208.9,-265.85"/>
</g>
</g>
</svg>
