<?xml version="1.0" encoding="UTF-8" standalone="no"?>
<!DOCTYPE svg PUBLIC "-//W3C//DTD SVG 1.1//EN"
 "http://www.w3.org/Graphics/SVG/1.1/DTD/svg11.dtd">
<!-- Generated by graphviz version 2.30.1 (20180420.1509)
 -->
<!-- Title: snakemake_dag Pages: 1 -->
<svg width="639pt" height="908pt"
 viewBox="0.00 0.00 639.00 908.00" xmlns="http://www.w3.org/2000/svg" xmlns:xlink="http://www.w3.org/1999/xlink">
<g id="graph0" class="graph" transform="scale(1 1) rotate(0) translate(4 904)">
<title>snakemake_dag</title>
<polygon fill="white" stroke="white" points="-4,5 -4,-904 636,-904 636,5 -4,5"/>
<!-- 0 -->
<g id="node1" class="node"><title>0</title>
<path fill="none" stroke="#d87556" stroke-width="2" d="M392,-36C392,-36 362,-36 362,-36 356,-36 350,-30 350,-24 350,-24 350,-12 350,-12 350,-6 356,-0 362,-0 362,-0 392,-0 392,-0 398,-0 404,-6 404,-12 404,-12 404,-24 404,-24 404,-30 398,-36 392,-36"/>
<text text-anchor="middle" x="377" y="-15.5" font-family="sans" font-size="10.00">all</text>
</g>
<!-- 1 -->
<g id="node2" class="node"><title>1</title>
<path fill="none" stroke="#d88d56" stroke-width="2" d="M299,-108C299,-108 237,-108 237,-108 231,-108 225,-102 225,-96 225,-96 225,-84 225,-84 225,-78 231,-72 237,-72 237,-72 299,-72 299,-72 305,-72 311,-78 311,-84 311,-84 311,-96 311,-96 311,-102 305,-108 299,-108"/>
<text text-anchor="middle" x="268" y="-87.5" font-family="sans" font-size="10.00">seq_similarity</text>
</g>
<!-- 1&#45;&gt;0 -->
<g id="edge2" class="edge"><title>1&#45;&gt;0</title>
<path fill="none" stroke="grey" stroke-width="2" d="M294.664,-71.8761C308.784,-62.8083 326.311,-51.5523 341.561,-41.7592"/>
<polygon fill="grey" stroke="grey" points="343.71,-44.5385 350.233,-36.1898 339.927,-38.6485 343.71,-44.5385"/>
</g>
<!-- 2 -->
<g id="node3" class="node"><title>2</title>
<path fill="none" stroke="#568ad8" stroke-width="2" d="M388.25,-180C388.25,-180 299.75,-180 299.75,-180 293.75,-180 287.75,-174 287.75,-168 287.75,-168 287.75,-156 287.75,-156 287.75,-150 293.75,-144 299.75,-144 299.75,-144 388.25,-144 388.25,-144 394.25,-144 400.25,-150 400.25,-156 400.25,-156 400.25,-168 400.25,-168 400.25,-174 394.25,-180 388.25,-180"/>
<text text-anchor="middle" x="344" y="-159.5" font-family="sans" font-size="10.00">ancestral_sequence</text>
</g>
<!-- 2&#45;&gt;1 -->
<g id="edge4" class="edge"><title>2&#45;&gt;1</title>
<path fill="none" stroke="grey" stroke-width="2" d="M325.213,-143.697C315.826,-135.05 304.316,-124.449 294.087,-115.027"/>
<polygon fill="grey" stroke="grey" points="296.297,-112.305 286.57,-108.104 291.555,-117.454 296.297,-112.305"/>
</g>
<!-- 3 -->
<g id="node4" class="node"><title>3</title>
<path fill="none" stroke="#d89c56" stroke-width="2" d="M387,-252C387,-252 293,-252 293,-252 287,-252 281,-246 281,-240 281,-240 281,-228 281,-228 281,-222 287,-216 293,-216 293,-216 387,-216 387,-216 393,-216 399,-222 399,-228 399,-228 399,-240 399,-240 399,-246 393,-252 387,-252"/>
<text text-anchor="middle" x="340" y="-231.5" font-family="sans" font-size="10.00">build_tree_discerned</text>
</g>
<!-- 3&#45;&gt;2 -->
<g id="edge6" class="edge"><title>3&#45;&gt;2</title>
<path fill="none" stroke="grey" stroke-width="2" d="M340.989,-215.697C341.43,-207.983 341.959,-198.712 342.451,-190.112"/>
<polygon fill="grey" stroke="grey" points="345.946,-190.288 343.023,-180.104 338.958,-189.888 345.946,-190.288"/>
</g>
<!-- 4 -->
<g id="node5" class="node"><title>4</title>
<path fill="none" stroke="#567bd8" stroke-width="2" d="M392,-324C392,-324 278,-324 278,-324 272,-324 266,-318 266,-312 266,-312 266,-300 266,-300 266,-294 272,-288 278,-288 278,-288 392,-288 392,-288 398,-288 404,-294 404,-300 404,-300 404,-312 404,-312 404,-318 398,-324 392,-324"/>
<text text-anchor="middle" x="335" y="-303.5" font-family="sans" font-size="10.00">align_discerned_families</text>
</g>
<!-- 4&#45;&gt;3 -->
<g id="edge7" class="edge"><title>4&#45;&gt;3</title>
<path fill="none" stroke="grey" stroke-width="2" d="M336.236,-287.697C336.787,-279.983 337.449,-270.712 338.063,-262.112"/>
<polygon fill="grey" stroke="grey" points="341.557,-262.328 338.778,-252.104 334.575,-261.83 341.557,-262.328"/>
</g>
<!-- 5 -->
<g id="node6" class="node"><title>5</title>
<path fill="none" stroke="#d85656" stroke-width="2" d="M333.25,-396C333.25,-396 276.75,-396 276.75,-396 270.75,-396 264.75,-390 264.75,-384 264.75,-384 264.75,-372 264.75,-372 264.75,-366 270.75,-360 276.75,-360 276.75,-360 333.25,-360 333.25,-360 339.25,-360 345.25,-366 345.25,-372 345.25,-372 345.25,-384 345.25,-384 345.25,-390 339.25,-396 333.25,-396"/>
<text text-anchor="middle" x="305" y="-375.5" font-family="sans" font-size="10.00">extract_fasta</text>
</g>
<!-- 5&#45;&gt;4 -->
<g id="edge8" class="edge"><title>5&#45;&gt;4</title>
<path fill="none" stroke="grey" stroke-width="2" d="M312.416,-359.697C315.794,-351.813 319.87,-342.304 323.623,-333.546"/>
<polygon fill="grey" stroke="grey" points="326.947,-334.675 327.67,-324.104 320.513,-331.917 326.947,-334.675"/>
</g>
<!-- 6 -->
<g id="node7" class="node"><title>6</title>
<path fill="none" stroke="#ced856" stroke-width="2" d="M443,-468C443,-468 413,-468 413,-468 407,-468 401,-462 401,-456 401,-456 401,-444 401,-444 401,-438 407,-432 413,-432 413,-432 443,-432 443,-432 449,-432 455,-438 455,-444 455,-444 455,-456 455,-456 455,-462 449,-468 443,-468"/>
<text text-anchor="middle" x="428" y="-447.5" font-family="sans" font-size="10.00">scoper</text>
</g>
<!-- 6&#45;&gt;5 -->
<g id="edge10" class="edge"><title>6&#45;&gt;5</title>
<path fill="none" stroke="grey" stroke-width="2" d="M400.702,-433.465C384.037,-423.98 362.459,-411.7 344.011,-401.201"/>
<polygon fill="grey" stroke="grey" points="345.664,-398.115 335.242,-396.211 342.202,-404.199 345.664,-398.115"/>
</g>
<!-- 25 -->
<g id="node26" class="node"><title>25</title>
<path fill="none" stroke="#59d856" stroke-width="2" d="M472,-396C472,-396 392,-396 392,-396 386,-396 380,-390 380,-384 380,-384 380,-372 380,-372 380,-366 386,-360 392,-360 392,-360 472,-360 472,-360 478,-360 484,-366 484,-372 484,-372 484,-384 484,-384 484,-390 478,-396 472,-396"/>
<text text-anchor="middle" x="432" y="-375.5" font-family="sans" font-size="10.00">combine_analysis</text>
</g>
<!-- 6&#45;&gt;25 -->
<g id="edge34" class="edge"><title>6&#45;&gt;25</title>
<path fill="none" stroke="grey" stroke-width="2" d="M428.989,-431.697C429.43,-423.983 429.959,-414.712 430.451,-406.112"/>
<polygon fill="grey" stroke="grey" points="433.946,-406.288 431.023,-396.104 426.958,-405.888 433.946,-406.288"/>
</g>
<!-- 7 -->
<g id="node8" class="node"><title>7</title>
<path fill="none" stroke="#d8bc56" stroke-width="2" d="M445,-540C445,-540 411,-540 411,-540 405,-540 399,-534 399,-528 399,-528 399,-516 399,-516 399,-510 405,-504 411,-504 411,-504 445,-504 445,-504 451,-504 457,-510 457,-516 457,-516 457,-528 457,-528 457,-534 451,-540 445,-540"/>
<text text-anchor="middle" x="428" y="-519.5" font-family="sans" font-size="10.00">changeo</text>
</g>
<!-- 7&#45;&gt;5 -->
<g id="edge13" class="edge"><title>7&#45;&gt;5</title>
<path fill="none" stroke="grey" stroke-width="2" d="M398.864,-515.773C327.207,-502.886 148.035,-470.453 146,-468 111.06,-425.881 195.947,-400.045 254.67,-387.719"/>
<polygon fill="grey" stroke="grey" points="255.463,-391.129 264.57,-385.715 254.075,-384.268 255.463,-391.129"/>
</g>
<!-- 7&#45;&gt;6 -->
<g id="edge14" class="edge"><title>7&#45;&gt;6</title>
<path fill="none" stroke="grey" stroke-width="2" d="M428,-503.697C428,-495.983 428,-486.712 428,-478.112"/>
<polygon fill="grey" stroke="grey" points="431.5,-478.104 428,-468.104 424.5,-478.104 431.5,-478.104"/>
</g>
<!-- 7&#45;&gt;25 -->
<g id="edge39" class="edge"><title>7&#45;&gt;25</title>
<path fill="none" stroke="grey" stroke-width="2" d="M443.61,-503.774C451.373,-494.03 459.946,-481.184 464,-468 468.703,-452.707 468.292,-447.414 464,-432 461.332,-422.419 456.412,-412.84 451.216,-404.513"/>
<polygon fill="grey" stroke="grey" points="454.021,-402.41 445.564,-396.028 448.195,-406.291 454.021,-402.41"/>
</g>
<!-- 8 -->
<g id="node9" class="node"><title>8</title>
<path fill="none" stroke="#afd856" stroke-width="2" d="M404.25,-612C404.25,-612 331.75,-612 331.75,-612 325.75,-612 319.75,-606 319.75,-600 319.75,-600 319.75,-588 319.75,-588 319.75,-582 325.75,-576 331.75,-576 331.75,-576 404.25,-576 404.25,-576 410.25,-576 416.25,-582 416.25,-588 416.25,-588 416.25,-600 416.25,-600 416.25,-606 410.25,-612 404.25,-612"/>
<text text-anchor="middle" x="368" y="-591.5" font-family="sans" font-size="10.00">combine_vquest</text>
</g>
<!-- 8&#45;&gt;7 -->
<g id="edge15" class="edge"><title>8&#45;&gt;7</title>
<path fill="none" stroke="grey" stroke-width="2" d="M382.831,-575.697C390.025,-567.305 398.797,-557.07 406.69,-547.861"/>
<polygon fill="grey" stroke="grey" points="409.489,-549.975 413.339,-540.104 404.174,-545.419 409.489,-549.975"/>
</g>
<!-- 9 -->
<g id="node10" class="node"><title>9</title>
<path fill="none" stroke="#56d87b" stroke-width="2" d="M405,-684C405,-684 375,-684 375,-684 369,-684 363,-678 363,-672 363,-672 363,-660 363,-660 363,-654 369,-648 375,-648 375,-648 405,-648 405,-648 411,-648 417,-654 417,-660 417,-660 417,-672 417,-672 417,-678 411,-684 405,-684"/>
<text text-anchor="middle" x="390" y="-663.5" font-family="sans" font-size="10.00">findVDJ</text>
</g>
<!-- 9&#45;&gt;8 -->
<g id="edge17" class="edge"><title>9&#45;&gt;8</title>
<path fill="none" stroke="grey" stroke-width="2" d="M384.562,-647.697C382.111,-639.898 379.16,-630.509 376.432,-621.829"/>
<polygon fill="grey" stroke="grey" points="379.713,-620.595 373.376,-612.104 373.035,-622.694 379.713,-620.595"/>
</g>
<!-- 10 -->
<g id="node11" class="node"><title>10</title>
<path fill="none" stroke="#d8ac56" stroke-width="2" d="M433,-756C433,-756 347,-756 347,-756 341,-756 335,-750 335,-744 335,-744 335,-732 335,-732 335,-726 341,-720 347,-720 347,-720 433,-720 433,-720 439,-720 445,-726 445,-732 445,-732 445,-744 445,-744 445,-750 439,-756 433,-756"/>
<text text-anchor="middle" x="390" y="-735.5" font-family="sans" font-size="10.00">remove_singletons</text>
</g>
<!-- 10&#45;&gt;7 -->
<g id="edge16" class="edge"><title>10&#45;&gt;7</title>
<path fill="none" stroke="grey" stroke-width="2" d="M405.545,-719.753C413.289,-710.004 421.864,-697.158 426,-684 440.158,-638.957 436.504,-583.265 432.379,-550.584"/>
<polygon fill="grey" stroke="grey" points="435.813,-549.864 430.987,-540.432 428.878,-550.815 435.813,-549.864"/>
</g>
<!-- 10&#45;&gt;8 -->
<g id="edge18" class="edge"><title>10&#45;&gt;8</title>
<path fill="none" stroke="grey" stroke-width="2" d="M374.39,-719.774C366.627,-710.03 358.054,-697.184 354,-684 347.706,-663.534 352.147,-639.506 357.641,-621.578"/>
<polygon fill="grey" stroke="grey" points="360.974,-622.649 360.833,-612.055 354.337,-620.425 360.974,-622.649"/>
</g>
<!-- 10&#45;&gt;9 -->
<g id="edge19" class="edge"><title>10&#45;&gt;9</title>
<path fill="none" stroke="grey" stroke-width="2" d="M390,-719.697C390,-711.983 390,-702.712 390,-694.112"/>
<polygon fill="grey" stroke="grey" points="393.5,-694.104 390,-684.104 386.5,-694.104 393.5,-694.104"/>
</g>
<!-- 16 -->
<g id="node17" class="node"><title>16</title>
<path fill="none" stroke="#56d88a" stroke-width="2" d="M282,-684C282,-684 252,-684 252,-684 246,-684 240,-678 240,-672 240,-672 240,-660 240,-660 240,-654 246,-648 252,-648 252,-648 282,-648 282,-648 288,-648 294,-654 294,-660 294,-660 294,-672 294,-672 294,-678 288,-684 282,-684"/>
<text text-anchor="middle" x="267" y="-663.5" font-family="sans" font-size="10.00">align</text>
</g>
<!-- 10&#45;&gt;16 -->
<g id="edge25" class="edge"><title>10&#45;&gt;16</title>
<path fill="none" stroke="grey" stroke-width="2" d="M359.911,-719.876C342.832,-710.156 321.335,-697.922 303.321,-687.671"/>
<polygon fill="grey" stroke="grey" points="304.683,-684.419 294.261,-682.514 301.221,-690.502 304.683,-684.419"/>
</g>
<!-- 19 -->
<g id="node20" class="node"><title>19</title>
<path fill="none" stroke="#88d856" stroke-width="2" d="M591,-468C591,-468 561,-468 561,-468 555,-468 549,-462 549,-456 549,-456 549,-444 549,-444 549,-438 555,-432 561,-432 561,-432 591,-432 591,-432 597,-432 603,-438 603,-444 603,-444 603,-456 603,-456 603,-462 597,-468 591,-468"/>
<text text-anchor="middle" x="576" y="-447.5" font-family="sans" font-size="10.00">mixcr</text>
</g>
<!-- 10&#45;&gt;19 -->
<g id="edge28" class="edge"><title>10&#45;&gt;19</title>
<path fill="none" stroke="grey" stroke-width="2" d="M410.09,-719.797C420.887,-709.962 433.996,-697.021 444,-684 497.061,-614.935 543.149,-522.182 564.056,-477.392"/>
<polygon fill="grey" stroke="grey" points="567.34,-478.629 568.36,-468.083 560.986,-475.691 567.34,-478.629"/>
</g>
<!-- 11 -->
<g id="node12" class="node"><title>11</title>
<path fill="none" stroke="#68d856" stroke-width="2" d="M440.25,-828C440.25,-828 339.75,-828 339.75,-828 333.75,-828 327.75,-822 327.75,-816 327.75,-816 327.75,-804 327.75,-804 327.75,-798 333.75,-792 339.75,-792 339.75,-792 440.25,-792 440.25,-792 446.25,-792 452.25,-798 452.25,-804 452.25,-804 452.25,-816 452.25,-816 452.25,-822 446.25,-828 440.25,-828"/>
<text text-anchor="middle" x="390" y="-807.5" font-family="sans" font-size="10.00">analyze_partis_output</text>
</g>
<!-- 11&#45;&gt;10 -->
<g id="edge20" class="edge"><title>11&#45;&gt;10</title>
<path fill="none" stroke="grey" stroke-width="2" d="M390,-791.697C390,-783.983 390,-774.712 390,-766.112"/>
<polygon fill="grey" stroke="grey" points="393.5,-766.104 390,-756.104 386.5,-766.104 393.5,-766.104"/>
</g>
<!-- 22 -->
<g id="node23" class="node"><title>22</title>
<path fill="none" stroke="#56d86b" stroke-width="2" d="M213,-756C213,-756 151,-756 151,-756 145,-756 139,-750 139,-744 139,-744 139,-732 139,-732 139,-726 145,-720 151,-720 151,-720 213,-720 213,-720 219,-720 225,-726 225,-732 225,-732 225,-744 225,-744 225,-750 219,-756 213,-756"/>
<text text-anchor="middle" x="182" y="-735.5" font-family="sans" font-size="10.00">align_families</text>
</g>
<!-- 11&#45;&gt;22 -->
<g id="edge31" class="edge"><title>11&#45;&gt;22</title>
<path fill="none" stroke="grey" stroke-width="2" d="M339.383,-791.966C307.671,-781.293 266.873,-767.563 234.762,-756.756"/>
<polygon fill="grey" stroke="grey" points="235.689,-753.376 225.095,-753.503 233.457,-760.01 235.689,-753.376"/>
</g>
<!-- 26 -->
<g id="node27" class="node"><title>26</title>
<path fill="none" stroke="#bed856" stroke-width="2" d="M598.25,-684C598.25,-684 523.75,-684 523.75,-684 517.75,-684 511.75,-678 511.75,-672 511.75,-672 511.75,-660 511.75,-660 511.75,-654 517.75,-648 523.75,-648 523.75,-648 598.25,-648 598.25,-648 604.25,-648 610.25,-654 610.25,-660 610.25,-660 610.25,-672 610.25,-672 610.25,-678 604.25,-684 598.25,-684"/>
<text text-anchor="middle" x="561" y="-663.5" font-family="sans" font-size="10.00">get_family_sizes</text>
</g>
<!-- 11&#45;&gt;26 -->
<g id="edge40" class="edge"><title>11&#45;&gt;26</title>
<path fill="none" stroke="grey" stroke-width="2" d="M410.762,-791.826C423.29,-781.458 439.568,-767.977 454,-756 480.709,-733.833 511.134,-708.52 532.695,-690.572"/>
<polygon fill="grey" stroke="grey" points="535.052,-693.163 540.498,-684.075 530.574,-687.783 535.052,-693.163"/>
</g>
<!-- 12 -->
<g id="node13" class="node"><title>12</title>
<path fill="none" stroke="#78d856" stroke-width="2" d="M407.25,-900C407.25,-900 372.75,-900 372.75,-900 366.75,-900 360.75,-894 360.75,-888 360.75,-888 360.75,-876 360.75,-876 360.75,-870 366.75,-864 372.75,-864 372.75,-864 407.25,-864 407.25,-864 413.25,-864 419.25,-870 419.25,-876 419.25,-876 419.25,-888 419.25,-888 419.25,-894 413.25,-900 407.25,-900"/>
<text text-anchor="middle" x="390" y="-879.5" font-family="sans" font-size="10.00">simulate</text>
</g>
<!-- 12&#45;&gt;11 -->
<g id="edge21" class="edge"><title>12&#45;&gt;11</title>
<path fill="none" stroke="grey" stroke-width="2" d="M390,-863.697C390,-855.983 390,-846.712 390,-838.112"/>
<polygon fill="grey" stroke="grey" points="393.5,-838.104 390,-828.104 386.5,-838.104 393.5,-838.104"/>
</g>
<!-- 13 -->
<g id="node14" class="node"><title>13</title>
<path fill="none" stroke="#566bd8" stroke-width="2" d="M371,-468C371,-468 239,-468 239,-468 233,-468 227,-462 227,-456 227,-456 227,-444 227,-444 227,-438 233,-432 239,-432 239,-432 371,-432 371,-432 377,-432 383,-438 383,-444 383,-444 383,-456 383,-456 383,-462 377,-468 371,-468"/>
<text text-anchor="middle" x="305" y="-447.5" font-family="sans" font-size="10.00">get_mptp_values_singletons</text>
</g>
<!-- 13&#45;&gt;5 -->
<g id="edge11" class="edge"><title>13&#45;&gt;5</title>
<path fill="none" stroke="grey" stroke-width="2" d="M305,-431.697C305,-423.983 305,-414.712 305,-406.112"/>
<polygon fill="grey" stroke="grey" points="308.5,-406.104 305,-396.104 301.5,-406.104 308.5,-406.104"/>
</g>
<!-- 13&#45;&gt;25 -->
<g id="edge38" class="edge"><title>13&#45;&gt;25</title>
<path fill="none" stroke="grey" stroke-width="2" d="M336.068,-431.876C352.827,-422.639 373.706,-411.131 391.702,-401.212"/>
<polygon fill="grey" stroke="grey" points="393.745,-404.082 400.813,-396.19 390.366,-397.952 393.745,-404.082"/>
</g>
<!-- 14 -->
<g id="node15" class="node"><title>14</title>
<path fill="none" stroke="#56c1d8" stroke-width="2" d="M311.25,-540C311.25,-540 248.75,-540 248.75,-540 242.75,-540 236.75,-534 236.75,-528 236.75,-528 236.75,-516 236.75,-516 236.75,-510 242.75,-504 248.75,-504 248.75,-504 311.25,-504 311.25,-504 317.25,-504 323.25,-510 323.25,-516 323.25,-516 323.25,-528 323.25,-528 323.25,-534 317.25,-540 311.25,-540"/>
<text text-anchor="middle" x="280" y="-519.5" font-family="sans" font-size="10.00">cut_tree_mptp</text>
</g>
<!-- 14&#45;&gt;13 -->
<g id="edge22" class="edge"><title>14&#45;&gt;13</title>
<path fill="none" stroke="grey" stroke-width="2" d="M286.18,-503.697C288.995,-495.813 292.391,-486.304 295.519,-477.546"/>
<polygon fill="grey" stroke="grey" points="298.824,-478.699 298.891,-468.104 292.232,-476.345 298.824,-478.699"/>
</g>
<!-- 15 -->
<g id="node16" class="node"><title>15</title>
<path fill="none" stroke="#56d89a" stroke-width="2" d="M289.25,-612C289.25,-612 220.75,-612 220.75,-612 214.75,-612 208.75,-606 208.75,-600 208.75,-600 208.75,-588 208.75,-588 208.75,-582 214.75,-576 220.75,-576 220.75,-576 289.25,-576 289.25,-576 295.25,-576 301.25,-582 301.25,-588 301.25,-588 301.25,-600 301.25,-600 301.25,-606 295.25,-612 289.25,-612"/>
<text text-anchor="middle" x="255" y="-591.5" font-family="sans" font-size="10.00">build_megatree</text>
</g>
<!-- 15&#45;&gt;14 -->
<g id="edge23" class="edge"><title>15&#45;&gt;14</title>
<path fill="none" stroke="grey" stroke-width="2" d="M261.18,-575.697C263.995,-567.813 267.391,-558.304 270.519,-549.546"/>
<polygon fill="grey" stroke="grey" points="273.824,-550.699 273.891,-540.104 267.232,-548.345 273.824,-550.699"/>
</g>
<!-- 17 -->
<g id="node18" class="node"><title>17</title>
<path fill="none" stroke="#56d0d8" stroke-width="2" d="M197,-468C197,-468 167,-468 167,-468 161,-468 155,-462 155,-456 155,-456 155,-444 155,-444 155,-438 161,-432 167,-432 167,-432 197,-432 197,-432 203,-432 209,-438 209,-444 209,-444 209,-456 209,-456 209,-462 203,-468 197,-468"/>
<text text-anchor="middle" x="182" y="-447.5" font-family="sans" font-size="10.00">gmyc</text>
</g>
<!-- 15&#45;&gt;17 -->
<g id="edge26" class="edge"><title>15&#45;&gt;17</title>
<path fill="none" stroke="grey" stroke-width="2" d="M245.843,-575.855C240.336,-565.497 233.212,-552.018 227,-540 216.133,-518.976 204.041,-495.03 195.131,-477.277"/>
<polygon fill="grey" stroke="grey" points="198.146,-475.48 190.536,-468.108 191.888,-478.616 198.146,-475.48"/>
</g>
<!-- 16&#45;&gt;15 -->
<g id="edge24" class="edge"><title>16&#45;&gt;15</title>
<path fill="none" stroke="grey" stroke-width="2" d="M264.034,-647.697C262.711,-639.983 261.122,-630.712 259.648,-622.112"/>
<polygon fill="grey" stroke="grey" points="263.072,-621.369 257.932,-612.104 256.172,-622.552 263.072,-621.369"/>
</g>
<!-- 17&#45;&gt;5 -->
<g id="edge12" class="edge"><title>17&#45;&gt;5</title>
<path fill="none" stroke="grey" stroke-width="2" d="M209.298,-433.465C225.963,-423.98 247.541,-411.7 265.989,-401.201"/>
<polygon fill="grey" stroke="grey" points="267.798,-404.199 274.758,-396.211 264.336,-398.115 267.798,-404.199"/>
</g>
<!-- 17&#45;&gt;25 -->
<g id="edge37" class="edge"><title>17&#45;&gt;25</title>
<path fill="none" stroke="grey" stroke-width="2" d="M209.281,-435.432C212.191,-434.191 215.135,-433.02 218,-432 245.693,-422.142 317.195,-405.034 369.965,-392.924"/>
<polygon fill="grey" stroke="grey" points="370.95,-396.289 379.918,-390.648 369.39,-389.466 370.95,-396.289"/>
</g>
<!-- 18 -->
<g id="node19" class="node"><title>18</title>
<path fill="none" stroke="#569ad8" stroke-width="2" d="M618.25,-396C618.25,-396 523.75,-396 523.75,-396 517.75,-396 511.75,-390 511.75,-384 511.75,-384 511.75,-372 511.75,-372 511.75,-366 517.75,-360 523.75,-360 523.75,-360 618.25,-360 618.25,-360 624.25,-360 630.25,-366 630.25,-372 630.25,-372 630.25,-384 630.25,-384 630.25,-390 624.25,-396 618.25,-396"/>
<text text-anchor="middle" x="571" y="-375.5" font-family="sans" font-size="10.00">mixcr_extract_fastas</text>
</g>
<!-- 18&#45;&gt;4 -->
<g id="edge9" class="edge"><title>18&#45;&gt;4</title>
<path fill="none" stroke="grey" stroke-width="2" d="M513.57,-359.966C480.022,-350.015 437.512,-337.406 402.386,-326.987"/>
<polygon fill="grey" stroke="grey" points="403.27,-323.599 392.688,-324.111 401.28,-330.31 403.27,-323.599"/>
</g>
<!-- 19&#45;&gt;18 -->
<g id="edge27" class="edge"><title>19&#45;&gt;18</title>
<path fill="none" stroke="grey" stroke-width="2" d="M574.764,-431.697C574.213,-423.983 573.551,-414.712 572.937,-406.112"/>
<polygon fill="grey" stroke="grey" points="576.425,-405.83 572.222,-396.104 569.443,-406.328 576.425,-405.83"/>
</g>
<!-- 19&#45;&gt;25 -->
<g id="edge36" class="edge"><title>19&#45;&gt;25</title>
<path fill="none" stroke="grey" stroke-width="2" d="M548.915,-435.834C528.488,-425.904 500.032,-412.071 476.308,-400.538"/>
<polygon fill="grey" stroke="grey" points="477.664,-397.306 467.14,-396.082 474.604,-403.602 477.664,-397.306"/>
</g>
<!-- 20 -->
<g id="node21" class="node"><title>20</title>
<path fill="none" stroke="#9fd856" stroke-width="2" d="M257.25,-180C257.25,-180 168.75,-180 168.75,-180 162.75,-180 156.75,-174 156.75,-168 156.75,-168 156.75,-156 156.75,-156 156.75,-150 162.75,-144 168.75,-144 168.75,-144 257.25,-144 257.25,-144 263.25,-144 269.25,-150 269.25,-156 269.25,-156 269.25,-168 269.25,-168 269.25,-174 263.25,-180 257.25,-180"/>
<text text-anchor="middle" x="213" y="-159.5" font-family="sans" font-size="10.00">ancestral_phangorn</text>
</g>
<!-- 20&#45;&gt;1 -->
<g id="edge3" class="edge"><title>20&#45;&gt;1</title>
<path fill="none" stroke="grey" stroke-width="2" d="M226.596,-143.697C233.123,-135.389 241.068,-125.277 248.247,-116.141"/>
<polygon fill="grey" stroke="grey" points="251.135,-118.13 254.561,-108.104 245.631,-113.805 251.135,-118.13"/>
</g>
<!-- 21 -->
<g id="node22" class="node"><title>21</title>
<path fill="none" stroke="#d86656" stroke-width="2" d="M109.25,-324C109.25,-324 68.75,-324 68.75,-324 62.75,-324 56.75,-318 56.75,-312 56.75,-312 56.75,-300 56.75,-300 56.75,-294 62.75,-288 68.75,-288 68.75,-288 109.25,-288 109.25,-288 115.25,-288 121.25,-294 121.25,-300 121.25,-300 121.25,-312 121.25,-312 121.25,-318 115.25,-324 109.25,-324"/>
<text text-anchor="middle" x="89" y="-303.5" font-family="sans" font-size="10.00">build_tree</text>
</g>
<!-- 21&#45;&gt;20 -->
<g id="edge29" class="edge"><title>21&#45;&gt;20</title>
<path fill="none" stroke="grey" stroke-width="2" d="M103.957,-287.871C125.742,-262.924 166.326,-216.45 191.367,-187.773"/>
<polygon fill="grey" stroke="grey" points="194.048,-190.024 197.99,-180.189 188.776,-185.419 194.048,-190.024"/>
</g>
<!-- 24 -->
<g id="node25" class="node"><title>24</title>
<path fill="none" stroke="#56a9d8" stroke-width="2" d="M100.25,-252C100.25,-252 53.75,-252 53.75,-252 47.75,-252 41.75,-246 41.75,-240 41.75,-240 41.75,-228 41.75,-228 41.75,-222 47.75,-216 53.75,-216 53.75,-216 100.25,-216 100.25,-216 106.25,-216 112.25,-222 112.25,-228 112.25,-228 112.25,-240 112.25,-240 112.25,-246 106.25,-252 100.25,-252"/>
<text text-anchor="middle" x="77" y="-231.5" font-family="sans" font-size="10.00">reroot_tree</text>
</g>
<!-- 21&#45;&gt;24 -->
<g id="edge33" class="edge"><title>21&#45;&gt;24</title>
<path fill="none" stroke="grey" stroke-width="2" d="M86.0337,-287.697C84.7113,-279.983 83.1221,-270.712 81.6478,-262.112"/>
<polygon fill="grey" stroke="grey" points="85.0716,-261.369 79.9322,-252.104 78.1722,-262.552 85.0716,-261.369"/>
</g>
<!-- 22&#45;&gt;21 -->
<g id="edge30" class="edge"><title>22&#45;&gt;21</title>
<path fill="none" stroke="grey" stroke-width="2" d="M160.897,-719.68C133.458,-695.075 89,-647.161 89,-595 89,-595 89,-595 89,-449 89,-408.996 89,-362.653 89,-334.08"/>
<polygon fill="grey" stroke="grey" points="92.5001,-334.049 89,-324.049 85.5001,-334.049 92.5001,-334.049"/>
</g>
<!-- 23 -->
<g id="node24" class="node"><title>23</title>
<path fill="none" stroke="#d8d356" stroke-width="2" d="M126,-180C126,-180 12,-180 12,-180 6,-180 0,-174 0,-168 0,-168 0,-156 0,-156 0,-150 6,-144 12,-144 12,-144 126,-144 126,-144 132,-144 138,-150 138,-156 138,-156 138,-168 138,-168 138,-174 132,-180 126,-180"/>
<text text-anchor="middle" x="69" y="-159.5" font-family="sans" font-size="10.00">ancestral_sequence_true</text>
</g>
<!-- 23&#45;&gt;1 -->
<g id="edge5" class="edge"><title>23&#45;&gt;1</title>
<path fill="none" stroke="grey" stroke-width="2" d="M117.426,-143.966C147.013,-133.558 184.866,-120.243 215.216,-109.567"/>
<polygon fill="grey" stroke="grey" points="216.515,-112.821 224.787,-106.201 214.192,-106.217 216.515,-112.821"/>
</g>
<!-- 24&#45;&gt;23 -->
<g id="edge32" class="edge"><title>24&#45;&gt;23</title>
<path fill="none" stroke="grey" stroke-width="2" d="M75.0225,-215.697C74.1409,-207.983 73.0814,-198.712 72.0986,-190.112"/>
<polygon fill="grey" stroke="grey" points="75.5677,-189.642 70.9548,-180.104 68.613,-190.437 75.5677,-189.642"/>
</g>
<!-- 25&#45;&gt;0 -->
<g id="edge1" class="edge"><title>25&#45;&gt;0</title>
<path fill="none" stroke="grey" stroke-width="2" d="M432,-359.951C432,-333.292 432,-280.115 432,-235 432,-235 432,-235 432,-161 432,-118.008 409.807,-72.337 393.616,-44.7379"/>
<polygon fill="grey" stroke="grey" points="396.564,-42.849 388.396,-36.1011 390.573,-46.4698 396.564,-42.849"/>
</g>
<!-- 26&#45;&gt;25 -->
<g id="edge35" class="edge"><title>26&#45;&gt;25</title>
<path fill="none" stroke="grey" stroke-width="2" d="M557.534,-647.908C548.924,-607.957 524.015,-506.225 480,-432 473.989,-421.863 465.834,-411.955 457.954,-403.501"/>
<polygon fill="grey" stroke="grey" points="460.334,-400.928 450.862,-396.181 455.306,-405.799 460.334,-400.928"/>
</g>
</g>
</svg>
